<?xml version="1.0" encoding="utf-8"?>
<!-- Generator: Adobe Illustrator 19.0.0, SVG Export Plug-In . SVG Version: 6.00 Build 0)  -->
<svg version="1.1" id="Capa_1" xmlns="http://www.w3.org/2000/svg" xmlns:xlink="http://www.w3.org/1999/xlink" x="0px" y="0px"
	 viewBox="377.9 -9.9 70 70" style="enable-background:new 377.9 -9.9 70 70;" xml:space="preserve">
<style type="text/css">
	.st0{fill:#2668AD;}
</style>
<g>
	<g>
		<path class="st0" d="M444.6,48.3l-2.5-8.7c-0.1-0.2-0.2-0.4-0.3-0.5c-1.6-4.7-5.4-8.4-10.2-9.6l-0.7-0.1c-1.1-0.3-2.3,0.1-3,1
			c-2.6,3-6,3.2-9.5,3.2c-3.5,0-6.9-0.2-9.5-3.2c-0.8-0.9-2-1.3-3-1l-0.7,0.2c-3.6,1-6.8,3.3-8.7,6.4h-7.5c-0.1,0-0.1,0-0.1-0.1
			c0-0.1-0.1-0.1-0.1-0.2l1.6-5.6c1.4-4.4,4-5.7,9.1-7c0.2-0.1,0.4-0.2,0.5-0.3c0.4,0.4,0.9,0.7,1.4,0.9c0.2,0.1,0.4,0.1,0.5,0.1
			c0.4,0,0.8-0.2,1.1-0.7c0.3-0.6,0.1-1.3-0.5-1.6c-2.7-1.4-4.7-5.5-4.7-9.7c0-3.7,3-6.8,6.8-6.8c0.7,0,1.4,0.1,2,0.3
			c-0.7,1.6-1,3.3-1,5.2c0,10.2,6.2,18.8,13.4,18.8c7.2,0,13.5-8.8,13.5-18.8c0-7.5-6-13.5-13.5-13.5c-4.7,0-8.9,2.5-11.3,6.2
			c-1-0.4-2.1-0.5-3.2-0.5c-3.2,0-6.1,1.7-7.7,4.3c-0.1-0.1-0.2-0.2-0.4-0.2c-0.9-0.5-1.8-0.7-2.8-0.7c-3.3-0.1-6,2.6-6,6
			c0,1.9,0.5,3.7,1.4,5.1c-2.7,0.7-5.2,1.8-6.3,5.4l-1,3.5c-0.2,0.6-0.1,1.3,0.3,1.7c0.4,0.5,1,0.8,1.7,0.8h4.6
			c-0.1,0.2-0.2,0.5-0.2,0.7l-1.6,5.6c-0.2,0.8-0.1,1.6,0.5,2.3c0.5,0.7,1.2,1,2,1h6.3c-0.2,0.4-0.3,0.8-0.4,1.3l-2.5,8.8
			c-0.2,1-0.1,2.1,0.6,2.9c0.7,0.8,1.6,1.3,2.6,1.3h35.9h2h8.1c1,0,2-0.5,2.6-1.3C444.6,50.5,444.9,49.4,444.6,48.3z M408.9,5.6
			c0.1-0.1,0.1-0.1,0.2-0.2c0.1-0.1,0.1-0.2,0.1-0.2c1.9-3.3,5.4-5.6,9.6-5.6c5,0,9.1,3.3,10.6,7.8c-2.1,0.4-4.3-0.4-5.6-2.2
			c-0.4-0.5-1.1-0.7-1.7-0.2c-0.2,0.2-0.4,0.4-0.4,0.6c-0.1,0.1-0.1,0.1-0.1,0.2c-1.7,3.4-7.3,4.8-13.7,3.6
			C408,7.9,408.3,6.7,408.9,5.6z M412.2,12c4.8,0,8.7-1.5,10.8-4.3c1.5,1.3,3.3,2,5.3,2c0.5,0,1-0.1,1.5-0.2c0.1,0.4,0.1,0.7,0.1,1
			c0,8.8-5.2,16.5-11.1,16.5c-5.7,0-10.6-7.1-11.1-15.5C409.2,11.9,410.8,12,412.2,12z M383.9,26.3l0.8-3c0.7-2.5,2.2-3.2,5.2-3.9
			c0.2-0.1,0.4-0.1,0.5-0.2c0.3,0.2,0.5,0.4,0.9,0.6c0.2,0.1,0.4,0.1,0.5,0.1c0.4,0,0.8-0.2,1.1-0.7c0.3-0.6,0.1-1.3-0.5-1.6
			c-1.6-0.8-2.7-3.2-2.7-5.6c0-2,1.6-3.6,3.6-3.6c0.7,0,1.2,0.1,1.7,0.4c0.2,0.1,0.3,0.1,0.5,0.1c-0.3,0.9-0.5,1.9-0.5,2.9
			c0,3.4,1.1,6.8,2.9,9.1c-3.6,0.9-6.8,2.1-8.8,5.4L383.9,26.3L383.9,26.3z M442.1,49.9c-0.1,0.1-0.4,0.4-0.8,0.4h-8.1h-2h-35.9
			c-0.4,0-0.7-0.2-0.8-0.4c-0.2-0.2-0.2-0.6-0.2-0.8l2.5-8.7c1.2-4.1,4.5-7.4,8.7-8.4l0.7-0.2c0.2-0.1,0.5,0.1,0.7,0.2
			c3.3,3.8,7.4,4.1,11.3,4.1c3.9,0,8-0.3,11.3-4.1c0.2-0.2,0.4-0.3,0.7-0.2l0.7,0.2c4.1,1.1,7.5,4.3,8.7,8.4l1.1,3.7
			c0.1,0.2,0.1,0.3,0.2,0.4l1.3,4.5C442.3,49.3,442.3,49.6,442.1,49.9z"/>
	</g>
</g>
</svg>
