<?xml version="1.0" encoding="utf-8"?>
<!-- Generator: Adobe Illustrator 19.0.0, SVG Export Plug-In . SVG Version: 6.00 Build 0)  -->
<svg version="1.1" id="Layer_1" xmlns="http://www.w3.org/2000/svg" xmlns:xlink="http://www.w3.org/1999/xlink" x="0px" y="0px"
	 viewBox="0 0 151.7 125.3" style="enable-background:new 0 0 151.7 125.3;" xml:space="preserve">
<style type="text/css">
	.st0{fill:#FFFFFF;}
	.st1{fill:url(#XMLID_91_);}
	.st2{fill:none;stroke:#FFFFFF;stroke-width:2;stroke-miterlimit:10;}
	.st3{fill:url(#XMLID_92_);}
	.st4{fill:#2968AB;}
	.st5{fill:#538FCC;}
	.st6{fill:#43BAE6;}
	.st7{fill:#71C8BA;}
	.st8{fill:url(#XMLID_93_);}
	.st9{fill:url(#XMLID_94_);}
	.st10{fill:url(#XMLID_97_);}
	.st11{fill:url(#XMLID_98_);}
	.st12{fill:url(#XMLID_99_);}
	.st13{fill:url(#XMLID_100_);}
	.st14{fill:url(#XMLID_102_);}
	.st15{fill:url(#XMLID_105_);}
	.st16{fill:url(#XMLID_106_);}
	.st17{fill:url(#XMLID_107_);}
</style>
<path id="XMLID_6_" class="st0" d="M104.9,95.1C67.4,92.7,55.9,77.2,38.6,79c-3.8,0.4-7.3,0.8-10.4,1.3c-3.7,0.5-6.9,1.1-9.5,1.6
	c-3.1,0.6-5.3,1.1-6.5,1.4c-0.2,0,0.1,0,0,0c0,0-0.5,0.1-0.5,0.1c1.2-0.3,1.8-0.9,0.6-0.7c0.1-0.3,0.7-3.6,5-7.9c0,0,0,0,0,0
	c0,0,0,0,0.1-0.1c0,0,0.1-0.1,0.1-0.1c2.6-2.6,6.1-5.3,10.6-7.3c8.9-3.9,21.8-5.1,39.6,2.5C95,81.5,111.5,80.6,122.1,75
	c9.2-4.8,16.1-14.7,19.8-21.6c0,0-1.1,2-1.1,1.9C140.9,55.3,145.7,97.6,104.9,95.1z"/>
<g id="XMLID_7_">
	<linearGradient id="XMLID_91_" gradientUnits="userSpaceOnUse" x1="44.7151" y1="57.5138" x2="121.0282" y2="57.5138">
		<stop  offset="0.2437" style="stop-color:#538FCC"/>
		<stop  offset="0.9211" style="stop-color:#225590"/>
		<stop  offset="1" style="stop-color:#235791"/>
	</linearGradient>
	<path id="XMLID_13_" class="st1" d="M121,74.7c-0.2-8.1-2.8-13.3-7.4-16.9c-1.3-1.1-2.8-2-4.4-2.8c-1.1-0.5-1.1-2-0.2-2.6
		c1.5-1,2.9-2.1,4-3.4c3.1-3.5,4.7-8.2,4.7-14.4c0-1.2-0.1-2.3-0.2-3.4c-0.1-0.6-0.1-1.2-0.3-1.8c0-0.1,0-0.2-0.1-0.3
		c-2.1-11.1-10.8-16.6-23.4-17.8c-1.7-0.2-3.4-0.2-5.3-0.2H46.3c-0.8,0-1.5,0.7-1.5,1.5v90.1c0,0.9,0.7,1.5,1.5,1.5h40.8
		c20.1,0,34-9,34-28.4C121,75.4,121,75.1,121,74.7z M63.5,26.4c0-0.8,0.7-1.5,1.5-1.5h20.4c2,0,3.9,0.1,5.5,0.4
		c5.5,0.9,8.8,3.4,9.7,8.8c0.2,1,0.3,2,0.3,3.2c0,7.6-3.9,10.9-10.5,11.8c-1.4,0.2-3,0.3-4.7,0.3H65c-0.9,0-1.5-0.7-1.5-1.5V26.4z
		 M85.7,87.2H65c-0.9,0-1.5-0.7-1.5-1.5V64.4c0-0.8,0.7-1.5,1.5-1.5h20.4c9.9,0,15.5,2.7,15.5,12.3C100.9,84.5,95.1,87.2,85.7,87.2z
		"/>
</g>
<path id="XMLID_15_" class="st2" d="M142.5-4.6"/>
<linearGradient id="XMLID_92_" gradientUnits="userSpaceOnUse" x1="-651.6188" y1="163.4302" x2="-623.2855" y2="163.4302">
	<stop  offset="1.076729e-007" style="stop-color:#2967AB"/>
	<stop  offset="0.4534" style="stop-color:#548FCC"/>
	<stop  offset="0.7634" style="stop-color:#40BAE6"/>
	<stop  offset="1" style="stop-color:#71C8BA"/>
</linearGradient>
<rect id="XMLID_10_" x="-651.6" y="147.8" class="st3" width="28.3" height="31.3"/>
<rect id="XMLID_12_" x="-613.8" y="151.7" class="st4" width="22.5" height="35.8"/>
<rect id="XMLID_61_" x="-584.3" y="149.7" class="st5" width="22.5" height="35.8"/>
<rect id="XMLID_62_" x="-552.1" y="148.7" class="st6" width="22.5" height="35.8"/>
<rect id="XMLID_63_" x="-514.8" y="145.6" class="st7" width="22.5" height="35.8"/>
<rect id="XMLID_66_" x="-628.8" y="221" class="st4" width="17.3" height="21.8"/>
<path id="XMLID_110_" class="st0" d="M105.9,57.1C68.4,54.7,56.9,39.2,39.6,41c-3.8,0.4-7.3,0.8-10.4,1.3c-3.7,0.5-6.9,1.1-9.5,1.6
	c-3.1,0.6-5.3,1.1-6.5,1.4c-0.2,0-0.3,0.1-0.4,0.1c0,0,0,0-0.1,0c-0.4,0.1-0.6,0.1-0.6,0.1c0.1-0.3,2-4.3,6.3-8.7c0,0,0,0,0,0
	c0,0,0,0,0.1-0.1c0,0,0.1-0.1,0.1-0.1c2.6-2.6,6.1-5.3,10.6-7.3c8.9-3.9,21.8-5.1,39.6,2.5C96,43.5,112.5,42.6,123.1,37
	c9.2-4.8,14-13.1,17.7-20c0,0,0,0,0-0.1C140.9,17,146.7,59.6,105.9,57.1z"/>
<linearGradient id="XMLID_93_" gradientUnits="userSpaceOnUse" x1="12.0992" y1="33.726" x2="140.8669" y2="33.726">
	<stop  offset="1.076729e-007" style="stop-color:#2967AB"/>
	<stop  offset="0.4534" style="stop-color:#548FCC"/>
	<stop  offset="0.7634" style="stop-color:#40BAE6"/>
	<stop  offset="1" style="stop-color:#71C8BA"/>
</linearGradient>
<path id="XMLID_127_" class="st8" d="M105.6,53.3c-37.5-2.4-49.2-15.9-66.5-14.1c-3.6,0.4-6.9,1-9.8,1.7c-3.7,0.9-6.9,2-9.5,3
	c-3.4,1.4-5.8,2.6-7.1,3.4c-0.3,0.2-0.6-0.1-0.6-0.4c0,0,0-0.1,0-0.1c0.2-0.4,0.4-0.9,0.7-1.4c0.2-0.5,0.5-1,0.8-1.6
	c0.1-0.2,0.2-0.3,0.3-0.5c0.2-0.4,0.4-0.7,0.7-1.1c0.2-0.3,0.4-0.6,0.6-0.9c0.1-0.2,0.3-0.4,0.4-0.6c0.2-0.3,0.5-0.7,0.7-1
	c0.2-0.3,0.4-0.5,0.6-0.8c0.1-0.1,0.2-0.3,0.3-0.4c0.1-0.1,0.2-0.3,0.3-0.4c0.3-0.4,0.6-0.8,1-1.2c0,0,0,0,0,0
	c2.7-3.2,6.2-6.5,10.8-9.1c8.6-4.9,20.9-7,37.6-0.3c0.3,0.1,0.6,0.2,0.9,0.3c0.3,0.1,0.6,0.2,0.9,0.4c1,0.4,2,0.8,3,1.2
	c0,0,0.1,0,0.1,0c0.2,0.1,0.3,0.1,0.4,0.2c0.2,0.1,0.3,0.1,0.3,0.1c0,0,0,0,0,0c0.6,0.2,1.2,0.5,1.7,0.7c0.8,0.3,1.7,0.6,2.5,0.9
	c0.8,0.3,1.6,0.6,2.4,0.8c0,0,0.1,0,0.1,0c0.8,0.3,1.6,0.5,2.3,0.8c1.6,0.5,3.1,1,4.6,1.4c0.6,0.2,1.1,0.3,1.6,0.4
	c1.1,0.3,2.1,0.5,3.2,0.8c0.5,0.1,1,0.2,1.5,0.3c0.7,0.1,1.3,0.3,2,0.4c6.9,1.2,12.7,1.3,17.7,0.5c1.6-0.3,3.1-0.6,4.5-1
	c0.5-0.1,1-0.3,1.4-0.4c0.4-0.1,0.7-0.2,1.1-0.4c0.7-0.3,1.4-0.6,2.1-0.8c0.3-0.2,0.7-0.3,1-0.5c1-0.5,1.9-1,2.8-1.5
	c0.9-0.6,1.7-1.1,2.5-1.7c0.3-0.2,0.5-0.4,0.8-0.6c0.5-0.4,1-0.8,1.5-1.3c2.2-2,4-4.2,5.6-6.4v0c0.1-0.2,0.3-0.4,0.4-0.5
	c0.6-0.8,1.1-1.6,1.6-2.4c0.2-0.3,0.4-0.7,0.6-1c0.8-1.3,1.5-2.5,2.1-3.7c0.2-0.3,0.7-0.2,0.7,0.2c0.1,0.6,0.1,1.5,0.1,2.6
	C141.1,27.4,138.8,55.4,105.6,53.3z"/>
<linearGradient id="XMLID_94_" gradientUnits="userSpaceOnUse" x1="116.1628" y1="-8.3686" x2="36.4271" y2="71.3671">
	<stop  offset="1.076729e-007" style="stop-color:#2967AB"/>
	<stop  offset="0.4534" style="stop-color:#548FCC"/>
	<stop  offset="0.7634" style="stop-color:#40BAE6"/>
	<stop  offset="1" style="stop-color:#71C8BA"/>
</linearGradient>
<path id="XMLID_104_" class="st9" d="M139.6,15.1c-5.3,10.3-10.7,17.4-16.5,21.9c-14.3,11.3-31.1,6.8-55-3.1
	c-16.2-6.7-28.5-5.6-37.5-2c-0.5,0.2-0.9,0.4-1.4,0.6c-8.6,3.8-13.8,9.8-16,12.7c-0.6,0.8-1,1.4-1.2,1.7c0,0.1-0.1,0.1-0.1,0.1
	c0.1-0.1,0.2-0.6,0.7-1.6c0.2-0.4,0.5-1,0.9-1.6c0-0.1,0.1-0.1,0.1-0.1c0.1-0.1,0.1-0.2,0.2-0.4c0.2-0.4,0.4-0.7,0.7-1.1
	c0.2-0.3,0.4-0.6,0.6-0.9c0.1-0.2,0.3-0.4,0.4-0.6c0.2-0.3,0.5-0.7,0.7-1c0.2-0.3,0.4-0.5,0.6-0.8c0.1-0.1,0.2-0.3,0.3-0.4
	c0.1-0.1,0.2-0.3,0.3-0.4c0.3-0.4,0.7-0.9,1.1-1.3c0,0,0.1-0.1,0.1-0.1c0.3-0.4,0.7-0.8,1-1.2c0.1-0.1,0.2-0.2,0.3-0.3
	c2.1-2.2,4.6-4.4,7.6-6.3c0.1-0.1,0.2-0.1,0.2-0.1c0.5-0.3,1-0.6,1.5-0.9c1.1-0.6,2.3-1.2,3.5-1.7c8.4-3.5,19.5-4.4,34.1,1.3
	c0.3,0.1,0.6,0.2,0.9,0.3c0.3,0.1,0.6,0.2,0.9,0.4c1,0.4,2,0.8,3,1.2c0,0,0.1,0,0.1,0c0.1,0,0.1,0.1,0.2,0.1c0.1,0,0.2,0.1,0.2,0.1
	c0.2,0.1,0.3,0.1,0.3,0.1c0,0,0,0,0,0c0.6,0.2,1.2,0.5,1.7,0.7c0.8,0.3,1.7,0.6,2.5,0.9c0.8,0.3,1.6,0.6,2.4,0.8c0,0,0.1,0,0.1,0
	c0.8,0.3,1.6,0.5,2.3,0.8c1.6,0.5,3.1,1,4.6,1.4c0.6,0.2,1.1,0.3,1.6,0.4c1.1,0.3,2.1,0.5,3.2,0.8c0.5,0.1,1,0.2,1.5,0.3
	c0.7,0.2,1.3,0.3,2,0.4c6.9,1.2,12.7,1.3,17.7,0.5c1.6-0.2,3.1-0.6,4.5-1c0.5-0.1,1-0.3,1.4-0.4c0.4-0.1,0.7-0.2,1.1-0.4
	c0.7-0.3,1.4-0.5,2.1-0.8c0.3-0.2,0.7-0.3,1-0.5c1-0.5,1.9-1,2.8-1.5c0.9-0.5,1.7-1.1,2.5-1.7c0.3-0.2,0.5-0.4,0.8-0.6
	c0.5-0.4,1-0.8,1.5-1.3c2.2-2,4-4.2,5.6-6.4v0c0.1-0.2,0.3-0.4,0.4-0.5C137.2,19.3,138.5,17.2,139.6,15.1z"/>
<linearGradient id="XMLID_97_" gradientUnits="userSpaceOnUse" x1="54.1021" y1="104.0939" x2="54.1021" y2="45.731">
	<stop  offset="0" style="stop-color:#548FCC"/>
	<stop  offset="0.4695" style="stop-color:#225590"/>
	<stop  offset="1" style="stop-color:#4D85C1"/>
</linearGradient>
<polygon id="XMLID_37_" class="st10" points="44.7,45.7 44.7,69.7 44.7,104.1 63.5,104.1 63.5,69.7 63.5,45.7 "/>
<linearGradient id="XMLID_98_" gradientUnits="userSpaceOnUse" x1="54.1021" y1="434.4896" x2="54.1021" y2="399.6923" gradientTransform="matrix(1 0 0 -1 0 445.4233)">
	<stop  offset="0" style="stop-color:#548FCC"/>
	<stop  offset="1" style="stop-color:#4D85C1"/>
</linearGradient>
<polygon id="XMLID_9_" class="st11" points="44.7,45.7 44.7,31.4 44.7,10.9 63.5,10.9 63.5,31.4 63.5,45.7 "/>
<linearGradient id="XMLID_99_" gradientUnits="userSpaceOnUse" x1="21.3862" y1="86.5515" x2="151.6656" y2="86.5515" gradientTransform="matrix(0.9983 -5.747977e-002 5.747977e-002 0.9983 -12.9392 -6.924)">
	<stop  offset="1.076729e-007" style="stop-color:#2967AB"/>
	<stop  offset="0.4534" style="stop-color:#548FCC"/>
	<stop  offset="0.7634" style="stop-color:#40BAE6"/>
	<stop  offset="1" style="stop-color:#71C8BA"/>
</linearGradient>
<path id="XMLID_23_" class="st12" d="M107.3,91.3c-37.5-2.4-49.2-15.9-66.5-14.1c-14.1,1.5-23.4,6.3-26.4,8.1
	c-0.3,0.2-0.7-0.1-0.6-0.5c0.5-1,1.3-2.7,2.5-4.6c0.2-0.3,0.4-0.6,0.6-0.9c0.1-0.2,0.3-0.4,0.4-0.6c0.2-0.3,0.5-0.7,0.7-1
	c0.4-0.5,0.8-1.1,1.2-1.6c7.5-9.6,22.7-21.2,49.4-10.6c0.6,0.2,1.1,0.5,1.7,0.7c1,0.4,2,0.8,3,1.2c38.9,15.7,54.9,5,63.7-7.4
	c0.1-0.2,0.3-0.4,0.4-0.6c0.6-0.8,1.1-1.6,1.6-2.4c0.2-0.3,0.4-0.7,0.6-1c0.8-1.3,1.5-2.5,2.1-3.7c0.2-0.3,0.7-0.2,0.7,0.2
	C143,59.5,143.8,93.6,107.3,91.3z"/>
<linearGradient id="XMLID_100_" gradientUnits="userSpaceOnUse" x1="124.6785" y1="42.9118" x2="47.8317" y2="119.7586" gradientTransform="matrix(0.9983 -5.747977e-002 5.747977e-002 0.9983 -12.9392 -6.924)">
	<stop  offset="1.076729e-007" style="stop-color:#2967AB"/>
	<stop  offset="0.4534" style="stop-color:#548FCC"/>
	<stop  offset="0.7634" style="stop-color:#40BAE6"/>
	<stop  offset="1" style="stop-color:#71C8BA"/>
</linearGradient>
<path id="XMLID_1_" class="st13" d="M141.3,53.1c-18.6,36-37.9,32.7-71.4,18.8c-38.5-16-55.6,12.3-56.1,13.1
	c0.1-0.2,0.6-1.7,2.6-4.8c0.2-0.3,0.4-0.6,0.6-0.9c0.1-0.2,0.3-0.4,0.4-0.6c0.2-0.3,0.5-0.7,0.7-1c0.4-0.5,0.8-1.1,1.2-1.6
	c7.5-9.5,22.7-21.1,49.4-10.6c0.6,0.2,1.1,0.5,1.7,0.7c1,0.4,2,0.8,3,1.2c0.1,0,0.2,0.1,0.3,0.1c0.4,0.1,0.5,0.2,0.5,0.2
	c38.3,15.2,54.1,4.6,62.9-7.7c0.1-0.2,0.3-0.4,0.4-0.6C138.9,57.3,140.2,55.1,141.3,53.1z"/>
<g id="XMLID_18_">
	<path id="XMLID_13_" class="st0" d="M140.7,14.4c0,0-0.3,0.7-1,2c-0.7,1.2-1.6,3-2.9,5.1c-0.6,1-1.4,2.1-2.2,3.2
		c-0.8,1.1-1.7,2.3-2.6,3.5c-1.9,2.4-4.1,4.7-6.5,6.9c-1.2,1.1-2.5,2.1-3.8,3c-0.6,0.5-1.3,0.9-2,1.3c-0.7,0.4-1.3,0.8-2,1.2
		c-2.7,1.4-5.4,2.3-7.8,2.8c-0.6,0.1-1.2,0.2-1.7,0.3c-0.6,0-1.1,0.1-1.6,0.1c-1,0.1-1.8,0-2.5,0c-1.4-0.1-2.2-0.2-2.2-0.2
		s0.8,0,2.2,0.1c0.7,0,1.6,0,2.5-0.1c0.5-0.1,1-0.1,1.5-0.2c0.5-0.1,1.1-0.2,1.7-0.3c1.2-0.3,2.4-0.6,3.7-1.1
		c1.3-0.5,2.6-1.1,3.9-1.8c0.7-0.4,1.3-0.8,2-1.1c0.6-0.4,1.3-0.9,1.9-1.3c1.3-0.9,2.5-1.9,3.7-3c2.4-2.1,4.6-4.5,6.5-6.8
		c1.9-2.3,3.6-4.6,4.9-6.6C139.2,17.3,140.7,14.4,140.7,14.4z"/>
</g>
<g id="XMLID_38_">
	<path id="XMLID_73_" class="st0" d="M13.8,84.7c0,0,0.5-0.8,1.5-2.1c1-1.3,2.5-3.1,4.6-5c2.1-1.9,4.7-3.9,7.8-5.6
		c1.5-0.9,3.2-1.6,4.9-2.3c0.9-0.3,1.7-0.7,2.6-0.9c0.9-0.3,1.8-0.5,2.7-0.8c0.9-0.2,1.8-0.4,2.8-0.5c0.9-0.1,1.9-0.2,2.8-0.4
		c0.9-0.1,1.8-0.1,2.7-0.2c0.9,0,1.8,0,2.7,0c0.9,0,1.7,0.1,2.6,0.1c0.8,0.1,1.7,0.2,2.5,0.3c0.8,0.1,1.6,0.3,2.3,0.4
		c0.7,0.1,1.5,0.3,2.1,0.4c1.4,0.3,2.6,0.6,3.7,1c1.1,0.3,2,0.6,2.8,0.9c1.5,0.6,2.4,0.9,2.4,0.9s-0.9-0.3-2.4-0.8
		c-0.8-0.3-1.7-0.5-2.8-0.8c-1.1-0.3-2.3-0.6-3.7-0.9c-0.7-0.2-1.4-0.3-2.1-0.4c-0.7-0.1-1.5-0.3-2.3-0.3c-0.8-0.1-1.6-0.2-2.4-0.2
		c-0.8,0-1.7-0.1-2.6-0.1c-0.9,0-1.8,0-2.7,0c-0.9,0-1.8,0.1-2.7,0.2c-0.9,0.1-1.8,0.2-2.7,0.4c-0.9,0.2-1.8,0.3-2.7,0.6
		c-0.9,0.2-1.8,0.4-2.7,0.7c-0.9,0.3-1.8,0.6-2.6,0.9c-1.7,0.7-3.3,1.4-4.9,2.3c-3.1,1.7-5.7,3.6-7.8,5.5c-1,0.9-2,1.8-2.7,2.7
		c-0.8,0.8-1.4,1.6-1.9,2.2C14.3,83.9,13.8,84.7,13.8,84.7z"/>
</g>
<linearGradient id="XMLID_102_" gradientUnits="userSpaceOnUse" x1="75.0375" y1="78.2398" x2="121.0282" y2="78.2398">
	<stop  offset="0.2527" style="stop-color:#447EBB"/>
	<stop  offset="0.4624" style="stop-color:#3B76B3"/>
	<stop  offset="1" style="stop-color:#225590"/>
</linearGradient>
<path id="XMLID_46_" class="st14" d="M121,75.7c0,19.3-13.8,28.4-34,28.4H75V87.2h10.6c9.4,0,15.2-2.7,15.2-12.1
	c0-9.6-5.6-12.3-15.5-12.3h-5.3c0,0-4.6-10.8-3.5-10.5c5.9,1.7,15,4.7,33.6,4.8c0.7,0,1.7,0,2.3-0.1c4.6,3.6,8.5,8.3,8.5,17.6
	C121,75.1,121,75.4,121,75.7z"/>
<linearGradient id="XMLID_105_" gradientUnits="userSpaceOnUse" x1="20.6419" y1="114.4472" x2="20.6419" y2="27.8915">
	<stop  offset="0" style="stop-color:#4D85C1"/>
	<stop  offset="1" style="stop-color:#225590"/>
</linearGradient>
<path id="XMLID_113_" class="st15" d="M29.3,27.9v86.6H12l0.1-68.8c0.1-0.1-0.2,0.3,0.3-0.7c-0.4,0.1-0.3,0.7-0.3,0.7
	c0.1-0.3,2-4.3,6.3-8.7c0,0,0,0,0,0C21.2,33.7,24.7,30.4,29.3,27.9z"/>
<linearGradient id="XMLID_106_" gradientUnits="userSpaceOnUse" x1="12.0281" y1="42.0877" x2="31.8037" y2="42.0877">
	<stop  offset="0" style="stop-color:#2967AB"/>
	<stop  offset="0.3226" style="stop-color:#3175B6"/>
</linearGradient>
<path id="XMLID_139_" class="st16" d="M31.8,26.5l-0.1,1.9l-0.1,3.1l-0.4,8.9l0,0.2c-0.7,0.1-1.3,0.3-1.9,0.5
	c-2.3,0.6-4.2,1.3-6,2.1c-6.9,3.1-11.1,7.3-11.2,10.9c0,1.6,0,2.6-0.1,3.5c0.1-1.6,0.1-4.6,0.4-10c0.1-1.2-0.4-2.3,0-3.5
	c0.3-0.8,0.6-1.6,1.1-2.3c0,0,0-0.1,0-0.1c1.8-3.2,4.6-6,7.5-8.4c0,0,0.1,0,0.1-0.1c1.5-1.2,3-2.3,4.3-3.2c0,0,0.1-0.1,0.1-0.1
	c0.2-0.1,0.3-0.2,0.4-0.3c0,0,0.1-0.1,0.1-0.1c1.2-0.7,2.2-1.4,3.1-1.9c1.1-0.6,2-1.1,2.3-1.3C31.7,26.6,31.7,26.6,31.8,26.5
	C31.8,26.5,31.8,26.5,31.8,26.5z"/>
<linearGradient id="XMLID_107_" gradientUnits="userSpaceOnUse" x1="22.3288" y1="44.1666" x2="22.3288" y2="26.4111">
	<stop  offset="7.168785e-003" style="stop-color:#2967AB"/>
	<stop  offset="0.4534" style="stop-color:#548FCC"/>
	<stop  offset="0.7634" style="stop-color:#40BAE6"/>
</linearGradient>
<path id="XMLID_119_" class="st17" d="M32.2,28.3c-0.1,1,0.4,2.3-0.4,3.1c-0.4,0.4-1.9,0.6-2.3,0.9c-0.1,0-0.1,0.1-0.2,0.1v0
	c-0.1,0.1-0.3,0.1-0.4,0.2c-0.2,0.1-0.5,0.2-0.7,0.3c-3.7,0.9-9.8,6-13.5,9.3c-0.5,0.4-0.9,0.8-1.3,1.2c-0.3,0.2-0.5,0.5-0.7,0.7
	c0,0-0.1,0.1-0.1,0.1c0.3-0.8,0.6-1.6,1.1-2.3c0,0,0-0.1,0-0.1c1.6-2.2,3.3-4.2,5-5.9c0.1-0.1,0.2-0.2,0.3-0.3
	c0.8-0.8,1.6-1.6,2.3-2.2c0,0,0.1,0,0.1-0.1c1.9-1.7,3.3-2.8,4.6-3.6c0.1-0.1,0.8-0.6,0.9-0.6c0.5-0.3,1-0.6,1.5-0.9
	c1.1-0.6,2.7-1.3,3.9-1.8l0.2,0.1C32.2,27.1,32.3,27.7,32.2,28.3z"/>
<path id="XMLID_44_" class="st0" d="M44.7,77c0,0-11.4-0.4-24.1,5.2c0,0,20-4.5,24.1-2V77z"/>
<path id="XMLID_11_" class="st0" d="M33.2,40c0,0-9.1,1.7-14.5,5.7c0,0,12.5-3.7,15.5-4.1C37.1,41.3,33.2,40,33.2,40z"/>
</svg>
