<?xml version="1.0" encoding="utf-8"?>
<!-- Generator: Adobe Illustrator 19.0.0, SVG Export Plug-In . SVG Version: 6.00 Build 0)  -->
<svg version="1.1" id="Layer_1" xmlns="http://www.w3.org/2000/svg" xmlns:xlink="http://www.w3.org/1999/xlink" x="0px" y="0px"
	 viewBox="890 -789.7 1795.5 1594.7" style="enable-background:new 890 -789.7 1795.5 1594.7;" xml:space="preserve">
<style type="text/css">
	.st0{fill:url(#SVGID_1_);}
	.st1{fill:#FFFFFF;}
	.st2{fill:url(#XMLID_5_);}
	.st3{fill:url(#XMLID_6_);}
	.st4{opacity:0.49;}
	.st5{opacity:0.5;}
</style>
<g id="XMLID_23_">
	
		<linearGradient id="SVGID_1_" gradientUnits="userSpaceOnUse" x1="702.2349" y1="244.1822" x2="3160.5037" y2="244.1822" gradientTransform="matrix(0.9858 -0.1679 -0.1679 -0.9858 -33.8738 467.871)">
		<stop  offset="1.076729e-007" style="stop-color:#2967AB"/>
		<stop  offset="0.4534" style="stop-color:#548FCC"/>
		<stop  offset="0.7634" style="stop-color:#40BAE6"/>
		<stop  offset="1" style="stop-color:#71C8BA"/>
	</linearGradient>
	<path class="st0" d="M2438.5,418.4c-487.7,57.2-675.8-159-985.8-124.4c-124.4,13.9-336.9,21.5-422,138.6
		c-208.5,148-324.2,678-346.5-120.8c1.1-3.9,145.3-487.8,172.2-544.5c2.6-5.2,5.1-10.6,7.9-16c1.8-3.3,3.6-6.9,5.4-10.4
		c3.1-5.9,6.4-12.1,10.1-18.4c5.3-9.5,11-19.4,17.1-29.3c106.9-173.9,340.3-396.8,805.1-269.5c10,2.6,20,5.5,30,8.5
		c17.7,5.2,35.2,10.2,52.5,15.1c679.7,190.2,926.2-18.5,1050.7-242.5c1.8-3.3,3.6-6.7,5.4-10c7.7-14.3,15-28.7,21.9-43.1
		c2.9-5.9,5.6-11.8,8.2-17.6c10.2-22.4,19.6-44.5,28.4-66c2.5-6.1-1.2-6.4,0,0c12.3,63.6,183.4,552.4,103.3,725.2
		C2928.4-47.1,2844.9,223.8,2438.5,418.4z"/>
	<path class="st1" d="M2438.5,418.4c-60.3,7.2-121.2,10.7-182,9.8c-7.6,0-15.2-0.3-22.8-0.5c-3.8-0.1-7.6-0.3-11.4-0.4l-11.4-0.5
		c-15.2-0.9-30.3-1.9-45.5-3.3c-15.1-1.3-30.2-3.1-45.3-5c-7.5-1-15.1-2-22.6-3.1c-7.5-1.1-15-2.3-22.5-3.5c-15-2.5-30-5.2-44.8-8.3
		c-14.9-3-29.8-6.2-44.6-9.7c-14.8-3.5-29.6-7.1-44.3-11c-14.7-3.8-29.4-7.9-44-12c-29.3-8.3-58.4-17-87.5-25.6
		c-29.1-8.6-58.3-17.1-87.7-24.7c-29.4-7.5-59-14.3-89-19.3c-29.9-5-60.1-8.3-90.5-9.4c-15.2-0.5-30.3-0.6-45.5,0.1
		c-15.2,0.6-30.3,1.8-45.4,3.4c-30.2,3.3-60.5,6-90.7,9.4c-30.2,3.3-60.3,7.2-90.2,12.5c-29.9,5.3-59.5,11.9-88.5,20.9
		c-28.9,9-57.2,20.5-83.2,35.9c-6.5,3.9-12.8,8-19,12.4c-6.1,4.4-12.1,9.1-17.8,14c-11.4,9.9-21.7,21-30.6,33.2l-0.2,0.2l-0.2,0.2
		c-14.6,10.4-28.2,22.3-41.1,34.9c-12.8,12.6-24.9,26-36.5,39.8c-23.1,27.7-44.3,57-64.9,86.6c-10.3,14.8-20.4,29.8-30.7,44.7
		c-10.2,14.9-20.5,29.8-31.3,44.3c-5.4,7.3-10.9,14.5-16.7,21.4c-5.8,7-11.9,13.8-18.5,20.1c-3.3,3.1-6.8,6.1-10.6,8.9
		c-3.7,2.7-7.7,5.2-12.2,7c-2.2,0.9-4.5,1.5-6.9,2c-2.4,0.4-4.9,0.5-7.3,0.2c-2.4-0.3-4.9-1-7.1-2c-0.6-0.3-1.1-0.6-1.6-0.8
		l-0.8-0.4c-0.3-0.2-0.5-0.3-0.8-0.5l-1.5-1l-1.4-1.1c-3.8-3-6.8-6.7-9.3-10.6c-2.6-3.9-4.7-8-6.6-12.2c-1.9-4.2-3.6-8.4-5.1-12.7
		c-1.6-4.3-2.9-8.7-4.2-13c-5-17.5-8.5-35.3-11.5-53.2c-1.5-8.9-2.8-17.9-4-26.9c-1.2-9-2.3-18-3.3-27c-2-18-3.7-36-5.2-54
		c-2.9-36.1-5-72.2-6.7-108.3c-1.7-36.1-3-72.3-4-108.4l0-0.4l0.1-0.3c27.4-92,55.2-183.8,83.4-275.6
		c14.1-45.8,28.4-91.7,43.1-137.4c7.3-22.8,14.7-45.7,22.4-68.4c1.9-5.7,3.8-11.4,5.8-17c1.9-5.7,4-11.3,6-17c1-2.8,2.1-5.7,3.1-8.5
		c1-2.8,2.1-5.6,3.2-8.5c1.1-2.8,2.1-5.6,3.4-8.4l1.9-4.3l2-4c5.2-10.7,10.7-21.6,16.6-32c5.7-10.5,11.6-21,17.8-31.3
		c12.4-20.6,25.8-40.7,40.1-60c14.3-19.4,29.7-37.9,45.9-55.7c8.2-8.9,16.5-17.5,25.1-25.9c8.6-8.4,17.5-16.6,26.5-24.5
		c9.1-7.9,18.4-15.5,27.9-22.9c9.5-7.4,19.3-14.4,29.2-21.2c10-6.7,20.1-13.2,30.5-19.4c10.4-6.1,20.9-12,31.6-17.5
		c5.3-2.8,10.8-5.4,16.2-8l8.2-3.8l4.1-1.9c1.4-0.6,2.8-1.2,4.1-1.8l8.3-3.6c2.8-1.2,5.6-2.3,8.4-3.4c5.6-2.3,11.2-4.4,16.9-6.5
		c22.6-8.3,45.7-15.2,69.2-20.8c46.9-11.1,95-16.8,143.1-17.9c48.1-1.1,96.3,2.4,143.9,9.4c23.8,3.5,47.5,7.8,71,12.9
		c23.5,5.1,46.8,11,69.9,17.5c23.1,6.5,46.2,13.2,69.2,19.8l4.3,1.2c1.4,0.4,2.9,0.8,4.3,1.2l8.7,2.4l17.4,4.7
		c11.6,3.1,23.2,6.1,34.8,9.1c46.5,11.7,93.3,22.1,140.4,30.9c23.6,4.3,47.2,8.3,70.9,11.6c11.8,1.8,23.7,3.2,35.6,4.8
		c5.9,0.7,11.9,1.3,17.8,2l8.9,1l8.9,0.9c23.8,2.4,47.7,4,71.7,5.1l9,0.4c3,0.1,6,0.3,9,0.3l18,0.4l18,0.1l4.5,0l4.5-0.1l9-0.2
		c47.8-1,95.7-5.1,142.7-13.9c47-8.6,93.3-21.9,137.2-40.7c11-4.6,21.8-9.8,32.5-15l7.9-4.1c2.6-1.4,5.3-2.7,7.9-4.2
		c5.2-2.9,10.5-5.8,15.6-8.9c2.6-1.5,5.2-3,7.7-4.6l7.6-4.8l3.8-2.4l3.7-2.5l7.5-5c9.8-6.8,19.5-13.8,28.8-21.3
		c4.7-3.6,9.3-7.5,13.9-11.3c2.3-1.9,4.5-3.9,6.8-5.9l3.4-2.9c1.1-1,2.2-2,3.3-3l6.6-6l6.5-6.2l3.2-3.1l3.2-3.2l6.3-6.4
		c8.3-8.6,16.4-17.4,24.1-26.5c7.7-9.1,15.3-18.4,22.5-27.9c7.2-9.5,14.2-19.2,20.9-29.2c3.4-4.9,6.6-10,9.9-15
		c3.2-5.1,6.4-10.1,9.5-15.2c6.2-10.2,12.2-20.6,17.9-31.1c5.7-10.5,11.3-21.1,16.7-31.8c2.7-5.4,5.3-10.7,7.9-16.1l7.6-16.3
		c5-10.8,9.8-21.8,14.6-32.8c4.7-11,9.4-22.1,13.9-33.1c0.6-1.4,1.1-2.7,1.2-3.8c0-0.3,0-0.5,0-0.6c-1.4,0,2.8,1.5,2.6,0.3
		c0.1-0.1,0,0.1-0.1,0.4c0,0.2-0.1,0.5,0,0.8c0,0.6,0.1,1.3,0.2,1.9l0.5,2.2c0.3,1.5,0.7,2.9,1,4.3c1.4,5.8,3,11.6,4.6,17.3
		c6.4,23.1,13.3,46.1,19.9,69.1c6.7,23,13.3,46.1,19.7,69.2c12.8,46.3,25,92.7,35.9,139.5c5.5,23.4,10.6,46.8,15.4,70.4
		c4.8,23.5,9.1,47.1,12.9,70.9c3.8,23.7,7.1,47.5,9.6,71.4c2.5,23.9,4.2,47.9,4.7,71.9c0.2,12,0.2,24-0.4,36.1c-0.6,12-1.5,24-3,36
		c-1.6,11.9-3.7,23.8-6.7,35.5c-0.8,2.9-1.5,5.8-2.4,8.7l-1.3,4.3l-0.7,2.2l-0.8,2.1l-1.6,4.3l-0.8,2.1c-0.3,0.7-0.6,1.4-0.9,2.1
		c-1.2,2.8-2.4,5.6-3.6,8.3c-10.1,21.8-19.6,43.8-29.3,65.7c-9.7,21.9-19.6,43.8-30,65.5c-10.4,21.6-21.3,43-32.9,64.1
		c-11.6,21-24,41.6-36.9,61.8c-6.7,10-13.2,20.1-20.2,29.8l-5.2,7.4l-2.6,3.7l-2.7,3.6l-10.8,14.4c-14.7,19-29.8,37.7-46,55.4
		c-15.9,18-32.9,35-50.1,51.7c-4.3,4.1-8.8,8.1-13.2,12.2l-6.6,6.1c-2.2,2-4.4,4.1-6.7,6l-13.6,11.7l-6.8,5.9c-2.3,2-4.7,3.8-7,5.7
		c-37.1,30.4-76.4,58.2-117.2,83.4C2524.1,374.9,2481.8,397.7,2438.5,418.4z M2438.5,418.4c43.2-20.9,85.4-43.8,126.1-69.2
		c40.7-25.4,79.9-53.2,116.9-83.7c2.3-1.9,4.7-3.7,7-5.7l6.8-5.9l13.6-11.8c2.3-1.9,4.5-4,6.7-6l6.6-6.1c4.4-4.1,8.8-8.1,13.2-12.2
		c17.1-16.8,34.1-33.8,49.9-51.8c16.1-17.8,31.1-36.5,45.7-55.5l10.7-14.4l2.7-3.6l2.6-3.7l5.2-7.4c7-9.7,13.5-19.8,20.1-29.8
		c12.9-20.2,25.2-40.8,36.7-61.8c11.5-21,22.3-42.4,32.7-64.1c10.4-21.6,20.1-43.5,29.8-65.5c9.7-21.9,19.1-44,29.1-65.8
		c10.1-21.7,15.4-45.2,18.5-68.9c1.5-11.9,2.4-23.8,2.9-35.7c0.5-12,0.5-23.9,0.3-35.9c-0.6-23.9-2.2-47.8-4.8-71.7
		c-2.5-23.8-5.8-47.6-9.7-71.2c-3.8-23.7-8.2-47.2-13-70.7c-4.8-23.5-9.9-46.9-15.4-70.2c-11-46.7-23.2-93.1-36-139.3
		c-6.4-23.1-13.1-46.1-19.8-69.2c-6.7-23-13.6-46-20-69.1c-1.6-5.8-3.2-11.6-4.6-17.5c-0.3-1.5-0.7-3-1-4.4l-0.5-2.2
		c-0.2-0.8-0.3-1.6-0.3-2.5c0-0.4,0-0.9,0.1-1.4c0.1-0.5,0.1-1,0.6-1.8c0.3-2.1,5.5,0.1,4,0.9c0.1,0.7,0.1,1.2,0,1.7
		c-0.2,1.9-0.9,3.4-1.5,4.8c-4.5,11.1-9.2,22.2-13.9,33.2c-4.7,11-9.6,22-14.6,33l-7.6,16.3c-2.6,5.4-5.2,10.8-7.9,16.2
		c-5.4,10.7-10.9,21.4-16.7,32c-5.7,10.6-11.7,21-17.9,31.3c-3.1,5.2-6.3,10.2-9.5,15.3c-3.3,5-6.5,10.1-9.9,15.1
		c-6.7,10-13.7,19.8-20.9,29.4c-7.2,9.6-14.8,19-22.6,28.2c-7.8,9.2-15.9,18.1-24.2,26.8l-6.3,6.4l-3.2,3.2l-3.3,3.1l-6.5,6.3
		l-6.7,6.1c-1.1,1-2.2,2-3.3,3l-3.4,3c-2.3,2-4.5,4-6.8,5.9c-4.7,3.8-9.2,7.8-14,11.4c-9.4,7.5-19.2,14.6-29,21.5l-7.5,5l-3.8,2.5
		l-3.8,2.4l-7.6,4.8c-2.6,1.6-5.2,3.1-7.8,4.6c-5.1,3.1-10.4,6-15.7,8.9c-2.6,1.5-5.3,2.8-8,4.3l-8,4.2
		c-10.8,5.3-21.7,10.5-32.8,15.2c-44.3,18.9-90.8,32.3-138.1,41.1c-47.3,8.8-95.4,13-143.5,14.1l-9,0.2l-4.5,0.1l-4.5,0l-18,0
		l-18-0.4c-3,0-6-0.2-9-0.3l-9-0.4c-24-1-48-2.6-71.9-5l-9-0.8l-9-1c-6-0.7-11.9-1.3-17.9-2c-11.9-1.5-23.8-3-35.7-4.7
		c-23.8-3.3-47.5-7.4-71.1-11.6c-47.2-8.8-94.1-19.2-140.7-30.9c-11.6-3-23.3-6-34.9-9.1l-17.4-4.7l-8.7-2.4
		c-1.5-0.4-2.9-0.8-4.4-1.2l-4.3-1.2c-23.1-6.6-46.1-13.3-69.2-19.8c-23.1-6.4-46.3-12.4-69.7-17.4c-23.4-5-47-9.4-70.6-12.8
		c-47.3-6.9-95.2-10.4-143-9.3c-47.8,1.1-95.5,6.7-142,17.8c-23.2,5.6-46.2,12.4-68.6,20.6c-5.6,2.1-11.2,4.1-16.7,6.4
		c-2.8,1.1-5.5,2.2-8.3,3.4l-8.2,3.6c-1.4,0.6-2.7,1.2-4.1,1.8l-4.1,1.9l-8.1,3.8c-5.4,2.6-10.8,5.2-16,8
		c-10.7,5.4-21.1,11.3-31.4,17.3c-10.3,6.1-20.3,12.6-30.2,19.2c-9.8,6.8-19.5,13.7-29,21.1c-9.4,7.3-18.7,14.9-27.7,22.7
		c-9,7.9-17.8,15.9-26.3,24.3c-8.5,8.4-16.8,16.9-24.9,25.7c-16.1,17.7-31.4,36.1-45.6,55.3c-14.2,19.2-27.5,39.1-39.8,59.6
		c-6.1,10.3-12,20.7-17.8,31.2c-5.9,10.5-11.2,21-16.5,31.9l-2,4l-1.7,4c-1.2,2.7-2.2,5.5-3.4,8.2c-1.1,2.8-2.1,5.6-3.2,8.4
		c-1,2.8-2.1,5.6-3.1,8.4c-2,5.6-4,11.3-5.9,16.9c-2,5.7-3.9,11.3-5.8,17c-7.6,22.7-15.1,45.5-22.4,68.4
		C798.4-54.6,784.1-8.8,769.9,37c-28.3,91.7-56.2,183.5-83.6,275.4l0.1-0.7c1,36.1,2.3,72.2,3.9,108.3c1.7,36.1,3.8,72.1,6.7,108.1
		c1.5,18,3.1,36,5.1,53.9c1,9,2.1,17.9,3.3,26.9c1.2,8.9,2.5,17.9,3.9,26.8c2.9,17.8,6.4,35.5,11.3,52.7c1.3,4.3,2.6,8.6,4.1,12.8
		c1.5,4.2,3.1,8.4,5,12.4c1.8,4,3.9,8,6.3,11.6c2.4,3.6,5.2,7,8.5,9.7l1.2,1l1.3,0.9c0.2,0.1,0.4,0.3,0.7,0.4l0.7,0.4
		c0.5,0.2,0.9,0.5,1.4,0.7c1.9,0.8,3.9,1.4,5.9,1.7c2,0.2,4.1,0.1,6.2-0.2c2.1-0.4,4.1-0.9,6.1-1.8c4-1.6,7.7-3.9,11.3-6.5
		c3.6-2.6,6.9-5.5,10.2-8.5c6.5-6.1,12.5-12.8,18.2-19.7c5.8-6.9,11.2-14,16.6-21.3c10.8-14.5,21-29.3,31.3-44.2
		c10.2-14.9,20.4-29.8,30.7-44.7c20.7-29.7,41.9-59,65.2-86.8c11.7-13.9,23.8-27.3,36.8-40c13-12.7,26.7-24.6,41.5-35.2l-0.4,0.4
		c9.1-12.4,19.5-23.7,31.1-33.7c5.8-5,11.8-9.7,18-14.2c6.2-4.4,12.7-8.6,19.2-12.5c26.3-15.6,54.8-27,83.9-36.1
		c29.1-9,58.9-15.6,88.9-20.8c30-5.2,60.2-9.1,90.4-12.3c30.2-3.3,60.5-5.9,90.7-9.2c15.1-1.6,30.3-2.8,45.5-3.4
		c15.2-0.6,30.5-0.5,45.7,0c30.4,1,60.8,4.5,90.8,9.6c30,5.1,59.7,11.9,89.1,19.5c29.4,7.7,58.6,16.2,87.7,24.9
		c29.1,8.7,58.2,17.5,87.4,25.8c14.6,4.2,29.2,8.2,43.9,12.1c14.7,3.9,29.4,7.6,44.2,11.1c14.8,3.5,29.6,6.8,44.5,9.8
		c14.9,3.1,29.8,5.8,44.8,8.4c7.5,1.2,15,2.5,22.5,3.6c7.5,1.2,15,2.2,22.6,3.2c15.1,1.9,30.2,3.7,45.3,5.1
		c15.1,1.5,30.3,2.5,45.4,3.4c7.6,0.3,15.2,0.8,22.8,1c7.6,0.2,15.2,0.5,22.8,0.6C2317.3,428.7,2378.1,425.4,2438.5,418.4z"/>
</g>
<linearGradient id="XMLID_5_" gradientUnits="userSpaceOnUse" x1="2685.062" y1="1310.4847" x2="1393.129" y2="18.5518" gradientTransform="matrix(0.9858 -0.1679 -0.1679 -0.9858 -33.8738 467.871)">
	<stop  offset="1.076729e-007" style="stop-color:#2967AB"/>
	<stop  offset="0.4534" style="stop-color:#548FCC"/>
	<stop  offset="0.7634" style="stop-color:#40BAE6"/>
	<stop  offset="1" style="stop-color:#71C8BA"/>
</linearGradient>
<path id="XMLID_1_" class="st2" d="M2894.1-919.6C2651-283.9,2321.6-301.8,1735.7-471.8c-673-195.4-906.4,309.7-913.6,322.9
	c1.1-3.9,7.3-28.9,34.2-85.6c2.6-5.2,5.1-10.6,7.9-16c1.8-3.3,3.6-6.9,5.4-10.4c3.3-6,6.6-12.1,10.1-18.4c5.3-9.5,11-19.4,17.1-29.3
	c107.2-173,340.5-394.6,805.3-269.4c10,2.6,20,5.5,30,8.5c17.7,5.2,35.2,10.2,52.5,15.1c1.6,0.6,3.4,0.9,5,1.5
	c6.1,1.6,9.5,2.5,9.5,2.5c668.5,183.1,912.3-24.2,1035.9-246.5c1.8-3.3,3.6-6.7,5.4-10C2861.9-844.7,2879.6-882.8,2894.1-919.6z"/>
<linearGradient id="XMLID_6_" gradientUnits="userSpaceOnUse" x1="2538.9878" y1="452.832" x2="1247.0548" y2="-839.101" gradientTransform="matrix(0.9858 -0.1679 -0.1679 -0.9858 -33.8738 467.871)">
	<stop  offset="1.076729e-007" style="stop-color:#2967AB"/>
	<stop  offset="0.4534" style="stop-color:#548FCC"/>
	<stop  offset="0.7634" style="stop-color:#40BAE6"/>
	<stop  offset="1" style="stop-color:#71C8BA"/>
</linearGradient>
<path id="XMLID_2_" class="st3" d="M2894.1-49.6C2651,586.1,2321.6,568.2,1735.7,398.2c-673-195.4-906.4,309.7-913.6,322.9
	c1.1-3.9,7.3-28.9,34.2-85.6c2.6-5.2,5.1-10.6,7.9-16c1.8-3.3,3.6-6.9,5.4-10.4c3.3-6,6.6-12.1,10.1-18.4c5.3-9.5,11-19.4,17.1-29.3
	c107.2-173,340.5-394.6,805.3-269.4c10,2.6,20,5.5,30,8.5c17.7,5.2,35.2,10.2,52.5,15.1c1.6,0.6,3.4,0.9,5,1.5
	c6.1,1.6,9.5,2.5,9.5,2.5c668.5,183.1,912.3-24.2,1035.9-246.5c1.8-3.3,3.6-6.7,5.4-10C2861.9,25.3,2879.6-12.8,2894.1-49.6z"/>
<g id="XMLID_9_" class="st4">
	<path id="XMLID_35_" class="st1" d="M848.1-195.1c0,0,1.9-3.3,5.7-9.4c3.8-6.1,9.6-14.8,17.4-25.7c7.9-10.8,17.7-23.7,29.7-38
		c6-7.1,12.5-14.6,19.6-22.3c3.5-3.9,7.2-7.8,11-11.7c3.8-4,7.8-7.9,11.8-12c2-2,4.1-4,6.2-6.1s4.2-4.1,6.4-6.1
		c2.2-2,4.4-4.1,6.6-6.2c2.2-2,4.5-4.1,6.8-6.2c1.1-1,2.3-2.1,3.4-3.1c1.2-1,2.3-2.1,3.5-3.1c2.4-2.1,4.7-4.2,7.2-6.3
		c4.9-4.1,9.8-8.4,14.9-12.5c10.1-8.4,20.9-16.5,32-24.7c5.6-4,11.3-8.1,17.1-12c2.9-2,5.8-4,8.8-5.9s6-3.9,9-5.8
		c3-2,6.1-3.8,9.2-5.7c3.1-1.9,6.1-3.9,9.3-5.7c6.3-3.7,12.6-7.4,19.1-11c12.9-7.3,26.3-14,39.8-20.5c27.3-12.8,55.8-24.1,85-33.4
		c29.2-9.2,59-16.5,88.7-21.8s59.2-8.5,87.9-10s56.4-1.2,82.7,0.2c3.3,0.2,6.5,0.4,9.8,0.6c1.6,0.1,3.2,0.2,4.8,0.3
		c1.6,0.1,3.2,0.3,4.8,0.4c6.4,0.6,12.6,1.1,18.8,1.6c6.1,0.7,12.2,1.4,18.1,2.1c3,0.4,5.9,0.6,8.8,1.1c2.9,0.4,5.8,0.8,8.6,1.2
		c5.7,0.8,11.2,1.6,16.7,2.5c5.4,0.9,10.7,1.9,15.8,2.8c2.6,0.5,5.1,0.9,7.6,1.4s5,1,7.4,1.5c4.8,1,9.6,2,14.1,2.9
		c2.3,0.5,4.5,0.9,6.7,1.4c2.2,0.5,4.3,1,6.5,1.5c4.2,1,8.3,2,12.2,2.9c7.9,1.8,15,3.8,21.5,5.5c13,3.3,23,6.4,29.8,8.4
		c6.9,2,10.5,3.1,10.5,3.1s-3.7-1-10.6-2.8c-3.5-0.9-7.7-2.1-12.7-3.4c-1.3-0.3-2.6-0.7-3.9-1c-1.3-0.4-2.8-0.7-4.2-1
		c-2.9-0.7-6-1.5-9.2-2.2c-6.5-1.5-13.6-3.4-21.5-5.1c-3.9-0.8-8-1.7-12.3-2.6c-2.1-0.5-4.3-0.9-6.5-1.4c-2.2-0.5-4.5-0.8-6.7-1.3
		c-4.6-0.9-9.3-1.7-14.1-2.6c-2.4-0.4-4.9-0.9-7.4-1.4c-2.5-0.4-5-0.8-7.6-1.2c-5.1-0.8-10.4-1.7-15.8-2.6c-5.4-0.8-11-1.5-16.6-2.3
		c-2.8-0.4-5.7-0.8-8.6-1.1c-2.9-0.4-5.8-0.6-8.8-1c-5.9-0.6-11.9-1.2-18.1-1.9c-6.1-0.5-12.4-0.9-18.7-1.4
		c-1.6-0.1-3.2-0.2-4.8-0.4c-1.6-0.1-3.2-0.2-4.8-0.2c-3.2-0.2-6.5-0.3-9.7-0.5c-26.1-1.1-53.8-1.1-82.3,0.6
		c-28.5,1.6-57.8,5.1-87.3,10.4s-59.1,12.6-88.1,21.8c-29,9.2-57.3,20.4-84.5,33c-27.1,12.8-53,27-77.1,42.2c-3,1.9-6,3.8-9,5.7
		c-3,1.9-5.9,3.9-8.8,5.8c-5.8,3.9-11.5,7.9-17.1,11.8c-11.2,8-22,16-32.1,24.2c-5.2,4-10.1,8.2-15,12.2c-2.4,2.1-4.8,4.1-7.2,6.2
		c-1.2,1-2.4,2-3.5,3c-1.2,1-2.3,2.1-3.5,3.1c-2.3,2-4.6,4.1-6.8,6.1c-2.2,2.1-4.4,4.1-6.6,6.1c-2.2,2-4.3,4-6.4,6
		c-2.1,2-4.2,4-6.3,6c-16.3,16-30.7,31.3-42.9,45.3c-12.2,14-22.3,26.7-30.4,37.3c-8,10.7-14,19.3-18,25.2
		C850.1-198.4,848.1-195.1,848.1-195.1z"/>
</g>
<g class="st5">
	<path class="st1" d="M2723.6,220.1c0,0-2.2,3.3-7.1,9c-4.9,5.7-12.3,13.7-22.7,23.1c-5.2,4.7-11.1,9.7-17.6,14.9
		c-6.6,5.2-13.9,10.7-21.9,16.2c-8,5.5-16.7,11.2-26.1,16.7c-9.4,5.5-19.5,11.1-30.2,16.4c-10.7,5.3-22,10.6-33.9,15.6
		c-3,1.3-6,2.4-9,3.7c-3,1.2-6.1,2.5-9.2,3.6c-3.1,1.2-6.3,2.4-9.4,3.5c-3.2,1.1-6.4,2.2-9.6,3.4c-3.2,1.2-6.5,2.2-9.8,3.3
		c-3.3,1.1-6.6,2.2-10,3.2c-3.4,1-6.8,2-10.2,3.1c-3.4,1.1-6.9,1.9-10.3,2.9c-6.9,2-14,3.7-21.1,5.5c-3.6,0.9-7.2,1.7-10.8,2.5
		c-3.6,0.8-7.2,1.7-10.9,2.4c-7.3,1.5-14.7,3.1-22.2,4.4c-3.7,0.7-7.5,1.4-11.3,2c-3.8,0.6-7.6,1.2-11.4,1.8
		c-1.9,0.3-3.8,0.6-5.7,0.9c-1.9,0.3-3.8,0.5-5.7,0.8c-3.8,0.5-7.7,1.1-11.5,1.6c-3.9,0.5-7.7,0.9-11.6,1.4c-3.9,0.4-7.8,1-11.7,1.3
		c-31.3,3.2-63.2,4.9-95.1,5.2c-31.9,0.3-63.8-0.7-95.1-2.8c-31.3-2-62.1-5.2-91.7-9c-29.6-3.9-58.2-8.5-85.1-13.4
		c-26.9-5-52.3-10.1-75.6-15.4c-5.8-1.3-11.5-2.6-17.1-3.8c-5.6-1.3-11-2.6-16.3-3.9c-5.3-1.3-10.4-2.6-15.4-3.8
		c-5-1.2-9.8-2.5-14.5-3.7c-4.7-1.2-9.2-2.4-13.6-3.6c-4.4-1.1-8.6-2.2-12.7-3.4c-8.1-2.2-15.5-4.3-22.2-6.1
		c-6.7-1.8-12.7-3.6-17.9-5.1c-5.2-1.5-9.6-2.8-13.2-3.9c-7.2-2.1-11-3.2-11-3.2s3.8,1,11,3c3.6,1,8,2.2,13.3,3.6
		c5.2,1.4,11.2,3.1,18,4.8c6.7,1.7,14.2,3.7,22.3,5.7c4.1,1.1,8.3,2.1,12.7,3.1c4.4,1.1,9,2.2,13.7,3.3c4.7,1.1,9.6,2.4,14.6,3.5
		c5,1.1,10.2,2.3,15.5,3.5c5.3,1.2,10.7,2.5,16.3,3.7c5.6,1.2,11.3,2.4,17.1,3.7c23.3,5,48.7,9.8,75.7,14.6c27,4.6,55.5,8.8,85,12.6
		c29.6,3.6,60.3,6.5,91.5,8.5c31.2,2,63,2.9,94.8,2.6c31.8-0.3,63.5-1.9,94.6-5c31.1-3.1,61.6-7.7,90.7-13.7
		c3.7-0.7,7.3-1.6,10.9-2.3c3.6-0.8,7.2-1.5,10.7-2.4c7.1-1.8,14.1-3.4,21.1-5.3c3.5-0.9,6.9-1.8,10.3-2.8c3.4-1,6.8-2,10.1-2.9
		c3.4-1,6.7-2.1,10-3.1c3.3-1,6.6-2,9.8-3.2c3.2-1.1,6.4-2.2,9.6-3.3c3.2-1.1,6.3-2.3,9.4-3.4c3.1-1.1,6.2-2.3,9.2-3.5
		c3-1.2,6.1-2.3,9-3.6c11.9-4.8,23.2-10,33.9-15.1c21.4-10.5,40.3-21.4,56.5-32.1c8.1-5.3,15.4-10.6,22.1-15.7
		c6.6-5.1,12.6-10,17.8-14.6c5.2-4.6,9.8-8.8,13.6-12.6c3.8-3.8,7-7.2,9.5-9.9C2721.3,223.4,2723.6,220.1,2723.6,220.1z"/>
</g>
</svg>
