<?xml version="1.0" encoding="utf-8"?>
<!-- Generator: Adobe Illustrator 19.0.0, SVG Export Plug-In . SVG Version: 6.00 Build 0)  -->
<svg version="1.1" id="Layer_1" xmlns="http://www.w3.org/2000/svg" xmlns:xlink="http://www.w3.org/1999/xlink" x="0px" y="0px"
	 viewBox="0 0 240 54" style="enable-background:new 0 0 240 54;" xml:space="preserve">
<style type="text/css">
	.st0{fill:url(#XMLID_64_);}
	.st1{fill:#2968AB;}
	.st2{fill:#538FCC;}
	.st3{fill:#43BAE6;}
	.st4{fill:#71C8BA;}
	.st5{fill:none;stroke:#FFFFFF;stroke-width:2;stroke-miterlimit:10;}
	.st6{fill:#FFFFFF;}
	.st7{fill:url(#XMLID_65_);}
	.st8{fill:url(#XMLID_67_);}
	.st9{fill:url(#XMLID_72_);}
	.st10{fill:url(#XMLID_73_);}
	.st11{fill:url(#XMLID_74_);}
	.st12{fill:url(#XMLID_75_);}
	.st13{fill:url(#XMLID_83_);}
	.st14{fill:url(#XMLID_117_);}
	.st15{fill:url(#XMLID_118_);}
	.st16{fill:url(#XMLID_120_);}
	.st17{fill:url(#XMLID_121_);}
</style>
<linearGradient id="XMLID_64_" gradientUnits="userSpaceOnUse" x1="-615.2021" y1="-6.7365" x2="-586.8688" y2="-6.7365">
	<stop  offset="1.076729e-007" style="stop-color:#2967AB"/>
	<stop  offset="0.4534" style="stop-color:#548FCC"/>
	<stop  offset="0.7634" style="stop-color:#40BAE6"/>
	<stop  offset="1" style="stop-color:#71C8BA"/>
</linearGradient>
<rect id="XMLID_10_" x="-615.2" y="-22.4" class="st0" width="28.3" height="31.3"/>
<rect id="XMLID_12_" x="-577.4" y="-18.5" class="st1" width="22.5" height="35.8"/>
<rect id="XMLID_61_" x="-547.9" y="-20.5" class="st2" width="22.5" height="35.8"/>
<rect id="XMLID_62_" x="-515.7" y="-21.5" class="st3" width="22.5" height="35.8"/>
<rect id="XMLID_63_" x="-478.4" y="-24.6" class="st4" width="22.5" height="35.8"/>
<rect id="XMLID_66_" x="-592.3" y="50.8" class="st1" width="17.3" height="21.8"/>
<path id="XMLID_15_" class="st5" d="M58.8,1"/>
<g id="XMLID_2_">
	<path id="XMLID_7_" class="st6" d="M45,40c-14.7-0.9-19.2-7-26-6.3c-1.5,0.2-2.9,0.3-4.1,0.5c-1.5,0.2-2.7,0.4-3.7,0.6
		c-1.2,0.2-2.1,0.4-2.6,0.5c-0.1,0-0.1,0-0.2,0c0,0,0,0,0,0c-0.1,0-0.2,0.1-0.2,0.1c0-0.1,0.8-1.7,2.5-3.4c0,0,0,0,0,0c0,0,0,0,0,0
		c0,0,0,0,0,0c1-1,2.4-2.1,4.2-2.8c3.5-1.5,8.5-2,15.5,1c10.6,4.5,17.1,4.2,21.3,2c3.6-1.9,5.5-5.1,6.9-7.8c0,0,0,0,0,0
		C58.7,24.3,61,41,45,40z"/>
	<g id="XMLID_9_">
		<linearGradient id="XMLID_65_" gradientUnits="userSpaceOnUse" x1="20.4393" y1="25.3267" x2="50.3367" y2="25.3267">
			<stop  offset="0.2437" style="stop-color:#538FCC"/>
			<stop  offset="0.9211" style="stop-color:#225590"/>
			<stop  offset="1" style="stop-color:#235791"/>
		</linearGradient>
		<path id="XMLID_13_" class="st7" d="M50.3,32.1c-0.1-3.2-1.1-5.2-2.9-6.6c-0.5-0.4-1.1-0.8-1.7-1.1c-0.4-0.2-0.4-0.8-0.1-1
			c0.6-0.4,1.1-0.8,1.6-1.3c1.2-1.4,1.8-3.2,1.8-5.7c0-0.5,0-0.9-0.1-1.3c0-0.2-0.1-0.5-0.1-0.7c0,0,0-0.1,0-0.1
			c-0.8-4.4-4.2-6.5-9.2-7c-0.7-0.1-1.3-0.1-2.1-0.1H21c-0.3,0-0.6,0.3-0.6,0.6V43c0,0.3,0.3,0.6,0.6,0.6h16
			c7.9,0,13.3-3.5,13.3-11.1C50.3,32.3,50.3,32.2,50.3,32.1z M27.8,13.1c0-0.3,0.3-0.6,0.6-0.6h8c0.8,0,1.5,0,2.2,0.1
			c2.1,0.3,3.5,1.3,3.8,3.4c0.1,0.4,0.1,0.8,0.1,1.2c0,3-1.5,4.3-4.1,4.6c-0.6,0.1-1.2,0.1-1.8,0.1h-8.1c-0.3,0-0.6-0.3-0.6-0.6
			V13.1z M36.5,37h-8.1c-0.3,0-0.6-0.3-0.6-0.6V28c0-0.3,0.3-0.6,0.6-0.6h8c3.9,0,6.1,1.1,6.1,4.8C42.4,35.9,40.2,37,36.5,37z"/>
	</g>
	<path id="XMLID_110_" class="st6" d="M44.4,25.1c-14.7-0.9-19.2-7-26-6.3c-1.5,0.2-2.9,0.3-4.1,0.5c-1.5,0.2-2.7,0.4-3.7,0.6
		c-1.2,0.2-2.1,0.4-2.6,0.5c-0.1,0-0.1,0-0.2,0c0,0,0,0,0,0c-0.1,0-0.2,0.1-0.2,0.1c0-0.1,0.8-1.7,2.5-3.4c0,0,0,0,0,0c0,0,0,0,0,0
		c0,0,0,0,0,0c1-1,2.4-2.1,4.2-2.8c3.5-1.5,8.5-2,15.5,1c10.6,4.5,17.1,4.2,21.3,2c3.6-1.9,5.5-5.1,6.9-7.8c0,0,0,0,0,0
		C58.1,9.4,60.4,26.2,44.4,25.1z"/>
	<linearGradient id="XMLID_67_" gradientUnits="userSpaceOnUse" x1="7.6612" y1="16.0072" x2="58.1089" y2="16.0072">
		<stop  offset="1.076729e-007" style="stop-color:#2967AB"/>
		<stop  offset="0.4534" style="stop-color:#548FCC"/>
		<stop  offset="0.7634" style="stop-color:#40BAE6"/>
		<stop  offset="1" style="stop-color:#71C8BA"/>
	</linearGradient>
	<path id="XMLID_127_" class="st8" d="M44.3,23.7c-14.7-0.9-19.3-6.2-26.1-5.5c-1.4,0.1-2.7,0.4-3.8,0.7c-1.5,0.3-2.7,0.8-3.7,1.2
		c-1.3,0.5-2.3,1-2.8,1.3c-0.1,0.1-0.2,0-0.2-0.1c0,0,0,0,0,0c0.1-0.2,0.2-0.3,0.3-0.6c0.1-0.2,0.2-0.4,0.3-0.6
		c0-0.1,0.1-0.1,0.1-0.2c0.1-0.1,0.2-0.3,0.3-0.4c0.1-0.1,0.1-0.2,0.2-0.3c0-0.1,0.1-0.1,0.1-0.2c0.1-0.1,0.2-0.3,0.3-0.4
		c0.1-0.1,0.1-0.2,0.2-0.3c0-0.1,0.1-0.1,0.1-0.2c0-0.1,0.1-0.1,0.1-0.2c0.1-0.2,0.3-0.3,0.4-0.5c0,0,0,0,0,0
		c1.1-1.3,2.4-2.5,4.2-3.5c3.4-1.9,8.2-2.7,14.7-0.1c0.1,0,0.2,0.1,0.3,0.1c0.1,0,0.2,0.1,0.3,0.1c0.4,0.2,0.8,0.3,1.2,0.5
		c0,0,0,0,0,0c0.1,0,0.1,0,0.2,0.1c0.1,0,0.1,0,0.1,0c0,0,0,0,0,0c0.2,0.1,0.5,0.2,0.7,0.3c0.3,0.1,0.7,0.3,1,0.4
		c0.3,0.1,0.6,0.2,0.9,0.3c0,0,0,0,0,0c0.3,0.1,0.6,0.2,0.9,0.3c0.6,0.2,1.2,0.4,1.8,0.5c0.2,0.1,0.4,0.1,0.6,0.2
		c0.4,0.1,0.8,0.2,1.2,0.3c0.2,0,0.4,0.1,0.6,0.1c0.3,0.1,0.5,0.1,0.8,0.1c2.7,0.5,5,0.5,6.9,0.2c0.6-0.1,1.2-0.2,1.8-0.4
		c0.2,0,0.4-0.1,0.6-0.2c0.1,0,0.3-0.1,0.4-0.1c0.3-0.1,0.5-0.2,0.8-0.3c0.1-0.1,0.3-0.1,0.4-0.2c0.4-0.2,0.7-0.4,1.1-0.6
		c0.3-0.2,0.7-0.4,1-0.7c0.1-0.1,0.2-0.2,0.3-0.2c0.2-0.2,0.4-0.3,0.6-0.5c0.8-0.8,1.6-1.6,2.2-2.5v0c0-0.1,0.1-0.1,0.1-0.2
		c0.2-0.3,0.4-0.6,0.6-0.9c0.1-0.1,0.2-0.3,0.2-0.4c0.3-0.5,0.6-1,0.8-1.5C57.8,8.3,58,8.3,58,8.5c0,0.3,0,0.6,0.1,1
		C58.2,13.5,57.3,24.5,44.3,23.7z"/>
	<linearGradient id="XMLID_72_" gradientUnits="userSpaceOnUse" x1="48.4305" y1="-0.4843" x2="17.1922" y2="30.754">
		<stop  offset="1.076729e-007" style="stop-color:#2967AB"/>
		<stop  offset="0.4534" style="stop-color:#548FCC"/>
		<stop  offset="0.7634" style="stop-color:#40BAE6"/>
		<stop  offset="1" style="stop-color:#71C8BA"/>
	</linearGradient>
	<path id="XMLID_104_" class="st9" d="M57.6,8.7c-2.1,4-4.2,6.8-6.5,8.6C45.5,21.7,39,20,29.6,16.1c-6.3-2.6-11.2-2.2-14.7-0.8
		c-0.2,0.1-0.4,0.1-0.5,0.2C11,17,9,19.3,8.1,20.5c-0.2,0.3-0.4,0.6-0.5,0.7c0,0,0,0,0,0c0,0,0.1-0.3,0.3-0.6
		c0.1-0.2,0.2-0.4,0.3-0.6c0,0,0,0,0-0.1c0,0,0.1-0.1,0.1-0.1c0.1-0.1,0.2-0.3,0.3-0.4c0.1-0.1,0.1-0.2,0.2-0.3
		c0-0.1,0.1-0.1,0.1-0.2c0.1-0.1,0.2-0.3,0.3-0.4c0.1-0.1,0.1-0.2,0.2-0.3c0-0.1,0.1-0.1,0.1-0.2c0-0.1,0.1-0.1,0.1-0.2
		c0.1-0.2,0.3-0.3,0.4-0.5c0,0,0,0,0,0c0.1-0.2,0.3-0.3,0.4-0.5c0,0,0.1-0.1,0.1-0.1c0.8-0.9,1.8-1.7,3-2.5c0,0,0.1,0,0.1-0.1
		c0.2-0.1,0.4-0.2,0.6-0.4c0.4-0.2,0.9-0.5,1.4-0.7c3.3-1.4,7.6-1.7,13.3,0.5c0.1,0,0.2,0.1,0.3,0.1c0.1,0,0.2,0.1,0.3,0.1
		c0.4,0.2,0.8,0.3,1.2,0.5c0,0,0,0,0,0c0,0,0,0,0.1,0c0,0,0.1,0,0.1,0c0.1,0,0.1,0,0.1,0c0,0,0,0,0,0c0.2,0.1,0.5,0.2,0.7,0.3
		c0.3,0.1,0.7,0.3,1,0.4c0.3,0.1,0.6,0.2,0.9,0.3c0,0,0,0,0,0c0.3,0.1,0.6,0.2,0.9,0.3c0.6,0.2,1.2,0.4,1.8,0.5
		c0.2,0.1,0.4,0.1,0.6,0.2c0.4,0.1,0.8,0.2,1.2,0.3c0.2,0,0.4,0.1,0.6,0.1c0.3,0.1,0.5,0.1,0.8,0.1c2.7,0.5,5,0.5,6.9,0.2
		c0.6-0.1,1.2-0.2,1.8-0.4c0.2,0,0.4-0.1,0.6-0.2c0.1,0,0.3-0.1,0.4-0.1c0.3-0.1,0.5-0.2,0.8-0.3c0.1-0.1,0.3-0.1,0.4-0.2
		c0.4-0.2,0.7-0.4,1.1-0.6c0.3-0.2,0.7-0.4,1-0.7c0.1-0.1,0.2-0.2,0.3-0.2c0.2-0.2,0.4-0.3,0.6-0.5c0.8-0.8,1.6-1.6,2.2-2.5v0
		c0-0.1,0.1-0.1,0.2-0.2C56.7,10.4,57.2,9.5,57.6,8.7z"/>
	<linearGradient id="XMLID_73_" gradientUnits="userSpaceOnUse" x1="24.1168" y1="43.5755" x2="24.1168" y2="20.7105">
		<stop  offset="0" style="stop-color:#548FCC"/>
		<stop  offset="0.4695" style="stop-color:#225590"/>
		<stop  offset="1" style="stop-color:#4D85C1"/>
	</linearGradient>
	<polygon id="XMLID_37_" class="st10" points="20.4,20.7 20.4,30.1 20.4,43.6 27.8,43.6 27.8,30.1 27.8,20.7 	"/>
	
		<linearGradient id="XMLID_74_" gradientUnits="userSpaceOnUse" x1="24.1168" y1="98.0121" x2="24.1168" y2="84.3795" gradientTransform="matrix(1 0 0 -1 0 105.09)">
		<stop  offset="0" style="stop-color:#548FCC"/>
		<stop  offset="1" style="stop-color:#4D85C1"/>
	</linearGradient>
	<polygon id="XMLID_11_" class="st11" points="20.4,20.7 20.4,15.1 20.4,7.1 27.8,7.1 27.8,15.1 27.8,20.7 	"/>
	
		<linearGradient id="XMLID_75_" gradientUnits="userSpaceOnUse" x1="9.0282" y1="39.1483" x2="60.0681" y2="39.1483" gradientTransform="matrix(0.9983 -5.747977e-002 5.747977e-002 0.9983 -3.0979 -5.1121)">
		<stop  offset="1.076729e-007" style="stop-color:#2967AB"/>
		<stop  offset="0.4534" style="stop-color:#548FCC"/>
		<stop  offset="0.7634" style="stop-color:#40BAE6"/>
		<stop  offset="1" style="stop-color:#71C8BA"/>
	</linearGradient>
	<path id="XMLID_23_" class="st12" d="M44.9,38.5c-14.7-0.9-19.3-6.2-26.1-5.5c-5.5,0.6-9.2,2.5-10.3,3.2c-0.1,0.1-0.3-0.1-0.2-0.2
		c0.2-0.4,0.5-1,1-1.8c0.1-0.1,0.1-0.2,0.2-0.4c0.1-0.1,0.1-0.2,0.2-0.2c0.1-0.1,0.2-0.3,0.3-0.4c0.1-0.2,0.3-0.4,0.5-0.6
		c2.9-3.8,8.9-8.3,19.3-4.2c0.2,0.1,0.4,0.2,0.7,0.3c0.4,0.2,0.8,0.3,1.2,0.5c15.2,6.2,21.5,2,25-2.9c0.1-0.1,0.1-0.1,0.2-0.2
		c0.2-0.3,0.4-0.6,0.6-0.9c0.1-0.1,0.2-0.3,0.2-0.4c0.3-0.5,0.6-1,0.8-1.5c0.1-0.1,0.3-0.1,0.3,0.1C58.9,26.1,59.3,39.4,44.9,38.5z"
		/>
	
		<linearGradient id="XMLID_83_" gradientUnits="userSpaceOnUse" x1="49.4953" y1="22.0515" x2="19.3888" y2="52.158" gradientTransform="matrix(0.9983 -5.747977e-002 5.747977e-002 0.9983 -3.0979 -5.1121)">
		<stop  offset="1.076729e-007" style="stop-color:#2967AB"/>
		<stop  offset="0.4534" style="stop-color:#548FCC"/>
		<stop  offset="0.7634" style="stop-color:#40BAE6"/>
		<stop  offset="1" style="stop-color:#71C8BA"/>
	</linearGradient>
	<path id="XMLID_18_" class="st13" d="M58.3,23.6C51,37.7,43.4,36.4,30.3,31c-15.1-6.3-21.8,4.8-22,5.1c0-0.1,0.2-0.7,1-1.9
		c0.1-0.1,0.1-0.2,0.2-0.4c0.1-0.1,0.1-0.2,0.2-0.2c0.1-0.1,0.2-0.3,0.3-0.4c0.1-0.2,0.3-0.4,0.5-0.6c2.9-3.7,8.9-8.3,19.3-4.2
		c0.2,0.1,0.4,0.2,0.7,0.3c0.4,0.2,0.8,0.3,1.2,0.5c0,0,0.1,0,0.1,0c0.1,0.1,0.2,0.1,0.2,0.1c15,6,21.2,1.8,24.6-3
		c0.1-0.1,0.1-0.1,0.2-0.2C57.3,25.2,57.8,24.4,58.3,23.6z"/>
	<g id="XMLID_38_">
		<path id="XMLID_107_" class="st6" d="M58,8.4c0,0-0.5,1.2-1.5,2.8c-0.2,0.4-0.5,0.8-0.8,1.3c-0.3,0.4-0.6,0.9-1,1.4
			c-0.7,0.9-1.6,1.9-2.6,2.7c-0.5,0.4-1,0.8-1.5,1.2c-0.5,0.3-1.1,0.7-1.6,1c-0.6,0.2-1.1,0.5-1.6,0.7c-0.5,0.1-1,0.3-1.5,0.4
			c-0.5,0-0.9,0.1-1.3,0.1c-0.4,0-0.7,0-1,0c-0.6,0-0.9-0.1-0.9-0.1s0.3,0,0.9,0c0.3,0,0.6,0,1,0c0.4-0.1,0.8-0.1,1.3-0.2
			c0.5-0.1,0.9-0.3,1.4-0.5c0.5-0.2,1-0.5,1.5-0.7c0.5-0.3,1-0.6,1.5-1c0.5-0.4,1-0.7,1.4-1.2c0.9-0.8,1.8-1.7,2.6-2.6
			c0.8-0.9,1.4-1.8,2-2.5C57.4,9.6,58,8.4,58,8.4z"/>
	</g>
	<g id="XMLID_43_">
		<path id="XMLID_109_" class="st6" d="M8.3,36c0,0,0.2-0.3,0.5-0.8c0.2-0.3,0.4-0.6,0.7-0.9c0.3-0.3,0.6-0.7,1-1.1
			c0.4-0.4,0.9-0.8,1.4-1.2c0.5-0.4,1.1-0.8,1.7-1.1c0.3-0.2,0.6-0.3,0.9-0.5c0.3-0.1,0.7-0.3,1-0.4c0.7-0.3,1.4-0.5,2.1-0.7
			c0.7-0.2,1.5-0.2,2.2-0.4c0.7,0,1.4,0,2.1-0.1c0.7,0.1,1.4,0.1,2,0.2c0.6,0.1,1.2,0.3,1.7,0.4c0.5,0.1,1,0.2,1.4,0.4
			c0.4,0.2,0.8,0.3,1.1,0.4c0.6,0.2,0.9,0.3,0.9,0.3s-0.4-0.1-1-0.3c-0.3-0.1-0.7-0.2-1.1-0.3c-0.4-0.1-0.9-0.2-1.5-0.3
			c-0.5-0.1-1.1-0.2-1.7-0.3c-0.6,0-1.3-0.1-2-0.1c-0.7,0-1.4,0.1-2.1,0.1c-0.7,0.1-1.4,0.2-2.1,0.4c-0.7,0.2-1.4,0.3-2.1,0.6
			c-0.3,0.1-0.7,0.3-1,0.4c-0.3,0.2-0.6,0.3-0.9,0.5c-0.6,0.3-1.1,0.7-1.7,1c-0.5,0.4-1,0.7-1.4,1.1C10,34,9.4,34.7,9,35.2
			C8.5,35.7,8.3,36,8.3,36z"/>
	</g>
	<linearGradient id="XMLID_117_" gradientUnits="userSpaceOnUse" x1="32.3187" y1="33.4466" x2="50.3367" y2="33.4466">
		<stop  offset="0.2527" style="stop-color:#447EBB"/>
		<stop  offset="0.4624" style="stop-color:#3B76B3"/>
		<stop  offset="1" style="stop-color:#225590"/>
	</linearGradient>
	<path id="XMLID_46_" class="st14" d="M50.3,32.5c0,7.6-5.4,11.1-13.3,11.1h-4.7V37h4.2c3.7,0,6-1.1,6-4.7c0-3.8-2.2-4.8-6.1-4.8
		h-2.1c0,0-1.8-4.2-1.4-4.1c2.3,0.7,5.9,1.8,13.2,1.9c0.3,0,0.7,0,0.9,0c1.8,1.4,3.3,3.2,3.3,6.9C50.3,32.2,50.3,32.3,50.3,32.5z"/>
	<linearGradient id="XMLID_118_" gradientUnits="userSpaceOnUse" x1="11.008" y1="47.6316" x2="11.008" y2="13.7215">
		<stop  offset="0" style="stop-color:#4D85C1"/>
		<stop  offset="1" style="stop-color:#225590"/>
	</linearGradient>
	<path id="XMLID_113_" class="st15" d="M14.4,13.7v33.9H7.6l0-27c0,0-0.1,0.1,0.1-0.3c-0.1,0-0.1,0.3-0.1,0.3c0-0.1,0.8-1.7,2.5-3.4
		c0,0,0,0,0,0C11.2,16,12.6,14.7,14.4,13.7z"/>
	<linearGradient id="XMLID_120_" gradientUnits="userSpaceOnUse" x1="7.6334" y1="19.2831" x2="15.3809" y2="19.2831">
		<stop  offset="0" style="stop-color:#2967AB"/>
		<stop  offset="0.3226" style="stop-color:#3175B6"/>
	</linearGradient>
	<path id="XMLID_139_" class="st16" d="M15.4,13.2l0,0.7l-0.1,1.2l-0.2,3.5l0,0.1c-0.3,0.1-0.5,0.1-0.7,0.2
		c-0.9,0.2-1.7,0.5-2.3,0.8c-2.7,1.2-4.3,2.8-4.4,4.3c0,0.6,0,1,0,1.4c0-0.6,0.1-1.8,0.2-3.9c0-0.5-0.2-0.9,0-1.4
		c0.1-0.3,0.2-0.6,0.4-0.9c0,0,0,0,0,0c0.7-1.2,1.8-2.4,3-3.3c0,0,0,0,0,0c0.6-0.5,1.2-0.9,1.7-1.2c0,0,0,0,0,0
		c0.1,0,0.1-0.1,0.2-0.1c0,0,0,0,0,0c0.5-0.3,0.9-0.5,1.2-0.7C14.8,13.5,15.2,13.3,15.4,13.2C15.3,13.2,15.3,13.2,15.4,13.2
		C15.4,13.2,15.4,13.2,15.4,13.2z"/>
	<linearGradient id="XMLID_121_" gradientUnits="userSpaceOnUse" x1="11.6689" y1="20.0976" x2="11.6689" y2="13.1415">
		<stop  offset="7.168785e-003" style="stop-color:#2967AB"/>
		<stop  offset="0.4534" style="stop-color:#548FCC"/>
		<stop  offset="0.7634" style="stop-color:#40BAE6"/>
	</linearGradient>
	<path id="XMLID_119_" class="st17" d="M15.5,13.9c0,0.4,0.1,0.9-0.1,1.2c-0.2,0.2-0.7,0.2-0.9,0.4c0,0-0.1,0-0.1,0v0
		c-0.1,0-0.1,0.1-0.2,0.1c-0.1,0-0.2,0.1-0.3,0.1c-1.4,0.4-3.8,2.3-5.3,3.6c-0.2,0.2-0.4,0.3-0.5,0.5C8,19.9,7.9,20,7.8,20.1
		c0,0,0,0,0,0c0.1-0.3,0.2-0.6,0.4-0.9c0,0,0,0,0,0c0.6-0.9,1.3-1.6,1.9-2.3c0,0,0.1-0.1,0.1-0.1c0.3-0.3,0.6-0.6,0.9-0.9
		c0,0,0,0,0,0c0.7-0.7,1.3-1.1,1.8-1.4c0,0,0.3-0.2,0.3-0.2c0.2-0.1,0.4-0.2,0.6-0.4c0.4-0.2,1.1-0.5,1.5-0.7l0.1,0
		C15.5,13.4,15.6,13.7,15.5,13.9z"/>
	<path id="XMLID_44_" class="st6" d="M20.4,33c0,0-4.5-0.2-9.4,2c0,0,7.8-1.8,9.4-0.8V33z"/>
	<path id="XMLID_45_" class="st6" d="M15.9,18.5c0,0-3.6,0.7-5.7,2.2c0,0,4.9-1.9,6.1-1.6C17.4,19,15.9,18.5,15.9,18.5z"/>
</g>
<g id="XMLID_3_">
	<path id="XMLID_4_" class="st1" d="M76.5,38.1H66.1V17.7c0-1.3,1-2.4,2.3-2.4h8.4c4.3,0,7.1,1.7,7.1,5.8c0,2.4-1,3.9-2.7,4.7
		c2.2,0.9,3.6,2.3,3.6,5.4C84.8,35.9,81.4,38.1,76.5,38.1z M75.9,19.2h-5.2v4.9h5.2c1.8,0,3.4-0.6,3.4-2.5
		C79.3,19.7,78,19.2,75.9,19.2z M76.1,28h-5.4v6h5.4c2.3,0,3.7-0.7,3.7-3C79.9,28.7,78.5,28,76.1,28z"/>
	<path id="XMLID_16_" class="st1" d="M91.5,25h-4.5c0.5-3.3,2.9-4.9,6.9-4.9c4.9,0,7.4,1.6,7.5,4.9v6c0,4.9-3,7.1-7.7,7.4
		c-4.3,0.3-7.2-1.6-7.2-5.6c0.1-4.3,3.2-5.4,7.7-5.8c1.9-0.2,2.9-0.8,2.9-1.8c-0.1-1-1-1.5-2.9-1.5C92.6,23.7,91.8,24.1,91.5,25z
		 M97.2,30.8v-1.6c-1,0.4-2.2,0.8-3.6,1.1c-1.8,0.3-2.7,1.2-2.7,2.5c0.1,1.4,0.8,2.1,2.2,2.1C95.7,34.8,97.2,33.3,97.2,30.8z"/>
	<path id="XMLID_20_" class="st1" d="M103.6,28.9c0.1-5.7,3.2-8.6,9.1-8.6h0.6V25h-1.5c-2.5,0-3.7,1.3-3.7,3.9v9.2h-4.5V28.9z"/>
	<path id="XMLID_22_" class="st1" d="M123.4,38.5c-5.4-0.2-8-3.3-8-9.3c0-6,2.7-9.1,8.1-9.1c5.6,0,8.3,3.5,7.9,10.4h-11.5
		c0.2,2.7,1.3,4.1,3.5,4.1c1,0,2-0.4,2.9-1.3c0.4-0.4,0.9-0.6,1.5-0.6h3.3C130.2,36.4,127.7,38.5,123.4,38.5z M120,27.3h6.7
		c-0.3-2.3-1.4-3.6-3.3-3.6S120.3,24.9,120,27.3z"/>
	<path id="XMLID_26_" class="st3" d="M138.5,24.7h-0.6v13.3h-4.5V19.9c-0.2-3.4,1.8-4.7,5.1-4.7c0.8,0,1.5,0,2.1,0.1V19h-1.2
		c-1,0-1.6,0.4-1.7,1.3v1.2h2.9v1C140.8,23.7,139.8,24.7,138.5,24.7z"/>
	<path id="XMLID_28_" class="st3" d="M145.3,15.3c1.5,0,2.2,0.7,2.1,2.2v1.3H143v-3.5H145.3z M145.3,20.4c1.4,0,2.1,0.7,2.1,2.1
		v15.6H143V20.4H145.3z"/>
	<path id="XMLID_31_" class="st3" d="M155.1,17.5v20.6h-4.5V15.3h2.3C154.1,15.3,155.1,16.3,155.1,17.5z"/>
	<path id="XMLID_33_" class="st3" d="M162.5,23.5h-0.5v9.8c0,0.7,0.4,1.1,1.3,1.1h1.4v3.4c-1.4,0.1-3,0.1-4.7,0
		c-1.7-0.2-2.5-1.2-2.4-3.2V15.3h2.3c1.2,0,2.1,1.1,2.1,2.2v2.8h2.7v1C164.7,22.6,163.8,23.5,162.5,23.5z"/>
	<path id="XMLID_35_" class="st3" d="M174.5,38.5c-5.4-0.2-8-3.3-8-9.3c0-6,2.7-9.1,8.1-9.1c5.6,0,8.3,3.5,7.9,10.4h-11.5
		c0.2,2.7,1.3,4.1,3.5,4.1c1,0,2-0.4,2.9-1.3c0.4-0.4,0.9-0.6,1.5-0.6h3.3C181.3,36.4,178.9,38.5,174.5,38.5z M171.1,27.3h6.7
		c-0.3-2.3-1.4-3.6-3.3-3.6C172.6,23.7,171.5,24.9,171.1,27.3z"/>
	<path id="XMLID_40_" class="st3" d="M184.6,28.9c0.1-5.7,3.2-8.6,9.1-8.6h0.6V25h-1.5c-2.5,0-3.7,1.3-3.7,3.9v9.2h-4.5V28.9z"/>
	<path id="XMLID_47_" class="st3" d="M199.3,34.6v3.5h-3.8v-2.2c0-0.9,0.5-1.3,1.4-1.3H199.3z"/>
	<path id="XMLID_49_" class="st3" d="M214.5,38.1c-1.5-0.1-2.2-0.8-2.2-2.2v-9.1c-0.1-1.8-1.1-2.7-3.1-2.7c-2,0-3,0.9-3,2.7v11.3
		h-4.5V27.7c0-5.1,2.5-7.6,7.6-7.6s7.5,2.5,7.5,7.6v10.4H214.5z"/>
	<path id="XMLID_51_" class="st3" d="M234.8,29.3c0,6.1-2.7,9.2-8.1,9.2c-5.4,0-8-3.1-8-9.2c0-6.2,2.7-9.2,8-9.2
		C232,20.1,234.8,23.1,234.8,29.3z M223.1,29.3c0,3.5,1.2,5.2,3.5,5.2c2.3,0,3.4-1.8,3.5-5.3c0-3.5-1.1-5.2-3.4-5.2
		C224.3,24,223.1,25.8,223.1,29.3z"/>
</g>
</svg>
