<?xml version="1.0" encoding="utf-8"?>
<!-- Generator: Adobe Illustrator 19.0.0, SVG Export Plug-In . SVG Version: 6.00 Build 0)  -->
<svg version="1.1" id="Capa_1" xmlns="http://www.w3.org/2000/svg" xmlns:xlink="http://www.w3.org/1999/xlink" x="0px" y="0px"
	 viewBox="377.9 -9.9 70 70" style="enable-background:new 377.9 -9.9 70 70;" xml:space="preserve">
<style type="text/css">
	.st0{fill:#2668AD;}
</style>
<g>
	<path class="st0" d="M440.6,34.9c1.2-1.6,1.8-3.3,1.7-5c-0.1-1.9-0.9-3.4-1.6-4.3c0.8-2,1.1-5.2-1.6-7.7c-2-1.8-5.4-2.6-10.1-2.4
		c-3.3,0.2-6.1,0.8-6.2,0.8h0c-0.6,0.1-1.3,0.3-2,0.4c-0.1-0.8,0.1-2.8,1.6-7.3c1.8-5.4,1.7-9.4-0.3-12.2c-2.1-2.9-5.4-3.1-6.4-3.1
		c-0.9,0-1.8,0.4-2.4,1.1c-1.4,1.6-1.2,4.6-1.1,6c-1.7,4.4-6.3,15.4-10.2,18.4c-0.1,0.1-0.1,0.1-0.2,0.2c-1.2,1.2-1.9,2.5-2.5,3.7
		c-0.7-0.4-1.6-0.6-2.5-0.6h-7.7c-2.9,0-5.2,2.3-5.2,5.2v20.4c0,2.9,2.3,5.2,5.2,5.2h7.7c1.1,0,2.2-0.4,3-1l3,0.4
		c0.5,0.1,8.5,1.1,16.7,0.9c1.5,0.1,2.9,0.2,4.2,0.2c2.2,0,4.2-0.2,5.8-0.5c3.8-0.8,6.5-2.4,7.8-4.8c1-1.8,1-3.7,0.9-4.8
		c2.5-2.3,2.9-4.8,2.9-6.5C441.1,36.4,440.9,35.6,440.6,34.9z M389.2,50.3c-1,0-1.8-0.8-1.8-1.8V28c0-1,0.8-1.8,1.8-1.8h7.7
		c1,0,1.8,0.8,1.8,1.8v20.4c0,1-0.8,1.8-1.8,1.8L389.2,50.3L389.2,50.3z M437.4,33.5c-0.5,0.6-0.6,1.4-0.2,2c0,0,0.5,0.9,0.6,2.1
		c0.1,1.6-0.7,3.1-2.4,4.3c-0.6,0.5-0.8,1.2-0.6,1.9c0,0,0.5,1.7-0.3,3.2c-0.8,1.5-2.7,2.6-5.6,3.2c-2.3,0.5-5.4,0.6-9.2,0.3
		c-0.1,0-0.1,0-0.2,0c-8.1,0.2-16.2-0.9-16.3-0.9h0l-1.3-0.2c0.1-0.4,0.1-0.7,0.1-1.1V28c0-0.5-0.1-1.1-0.2-1.6
		c0.2-0.8,0.9-2.7,2.3-4.3c5.6-4.5,11.2-19.6,11.4-20.2c0.1-0.3,0.1-0.6,0.1-0.8c-0.2-1.4-0.1-3.1,0.2-3.6c0.7,0,2.5,0.2,3.5,1.7
		c1.3,1.8,1.2,4.9-0.2,9.1c-2.1,6.4-2.3,9.8-0.6,11.2c0.8,0.7,1.9,0.8,2.7,0.5c0.8-0.2,1.5-0.3,2.2-0.4c0.1,0,0.1,0,0.2,0
		c3.9-0.8,10.8-1.4,13.2,0.8c2,1.9,0.6,4.3,0.4,4.6c-0.5,0.7-0.3,1.6,0.3,2.2c0,0,1.3,1.3,1.4,2.9C439,31.2,438.5,32.3,437.4,33.5z"
		/>
</g>
</svg>
