<?xml version="1.0" encoding="utf-8"?>
<!-- Generator: Adobe Illustrator 19.0.0, SVG Export Plug-In . SVG Version: 6.00 Build 0)  -->
<svg version="1.1" id="Layer_1" xmlns="http://www.w3.org/2000/svg" xmlns:xlink="http://www.w3.org/1999/xlink" x="0px" y="0px"
	 viewBox="434 336 516 237.7" style="enable-background:new 434 336 516 237.7;" xml:space="preserve">
<style type="text/css">
	.st0{fill:#40BDE9;}
	.st1{fill:#FFFFFF;}
	.st2{fill:#42BCE8;}
</style>
<g>
	<g>
		<path class="st0" d="M520.3,368.2l21.1,5.6l5.3-21.1l-4.1-1.1l-3.5,13.3c-8.8-14.3-24.7-23.9-42.7-23.9
			c-27.7,0-50.2,22.5-50.2,50.2s22.5,50.2,50.2,50.2c18.5,0,34.7-10,43.4-24.9l-4-1.9c-8,13.4-22.6,22.4-39.4,22.4
			c-25.3,0-45.8-20.5-45.8-45.9s20.5-45.9,45.8-45.9c16.9,0,31.6,9.1,39.6,22.7l-14.7-3.9L520.3,368.2z"/>
		<polygon class="st0" points="489.7,357.1 489.7,395.1 514.3,407.1 516.2,403.3 494,392.6 494,357.1 		"/>
	</g>
</g>
<g>
	<path class="st0" d="M641.2,430.5l-13.3-32.1c-0.3-0.8-1.3-1.2-2.1-0.9s-1.2,1.3-0.9,2.1l12,29l-11-3.2c-0.7-0.2-1.5,0.1-1.9,0.8
		l-5.5,10L605.8,405c14.9-2.9,26.2-16,26.2-31.7c0-17.8-14.5-32.3-32.3-32.3s-32.3,14.5-32.3,32.3c0,7.2,2.4,13.9,6.4,19.3
		L558,430.5c-0.2,0.6-0.1,1.2,0.3,1.7c0.4,0.5,1,0.6,1.6,0.5l12.9-3.8l6.5,11.8c0.3,0.5,0.8,0.8,1.4,0.8c0,0,0.1,0,0.1,0
		c0.6,0,1.2-0.4,1.4-1l12.4-30c0.3-0.8,0-1.8-0.9-2.1c-0.8-0.3-1.8,0-2.1,0.9l-11.2,26.9l-5.5-10c-0.4-0.7-1.1-1-1.9-0.8l-11,3.2
		l13.8-33.2c5.9,6.3,14.3,10.3,23.6,10.3c1,0,1.9,0,2.8-0.1l14.5,35c0.2,0.6,0.8,1,1.4,1c0,0,0.1,0,0.1,0c0.6,0,1.1-0.3,1.4-0.8
		l6.5-11.8l12.9,3.8c0.6,0.2,1.2,0,1.6-0.5S641.5,431,641.2,430.5L641.2,430.5z M570.5,373.3c0-16,13.1-29.1,29.1-29.1
		s29.1,13.1,29.1,29.1s-13.1,29.1-29.1,29.1S570.5,389.4,570.5,373.3L570.5,373.3z"/>
	<path class="st0" d="M618.2,367.3c-0.2-0.6-0.7-1-1.3-1.1l-10.8-1.8l-5.1-9.7c-0.3-0.5-0.8-0.9-1.4-0.9c-0.6,0-1.1,0.3-1.4,0.9
		l-5.1,9.7l-10.8,1.8c-0.6,0.1-1.1,0.5-1.3,1.1c-0.2,0.6,0,1.2,0.4,1.6l7.7,7.8l-1.6,10.8c-0.1,0.6,0.2,1.2,0.6,1.5
		c0.5,0.4,1.1,0.4,1.7,0.1l9.8-4.9l9.8,4.9c0.2,0.1,0.5,0.2,0.7,0.2c0.3,0,0.7-0.1,0.9-0.3c0.5-0.4,0.7-0.9,0.6-1.5l-1.6-10.8
		l7.7-7.8C618.2,368.5,618.3,367.9,618.2,367.3z M607.3,375c-0.4,0.4-0.5,0.9-0.4,1.4l1.3,8.6l-7.8-3.9c-0.2-0.1-0.5-0.2-0.7-0.2
		c-0.2,0-0.5,0.1-0.7,0.2l-7.8,3.9l1.3-8.6c0.1-0.5-0.1-1-0.4-1.4l-6.1-6.2l8.5-1.4c0.5-0.1,0.9-0.4,1.2-0.8l4-7.7l4,7.7
		c0.2,0.4,0.7,0.8,1.2,0.8l8.5,1.4L607.3,375L607.3,375z"/>
	<path class="st0" d="M623.9,374.9c-0.9-0.1-1.7,0.5-1.8,1.4c-1.5,11.2-11.2,19.7-22.5,19.7c-12.5,0-22.7-10.2-22.7-22.7
		s10.2-22.7,22.7-22.7c11.3,0,21,8.5,22.5,19.7c0.1,0.9,0.9,1.5,1.8,1.4c0.9-0.1,1.5-0.9,1.4-1.8c-1.7-12.8-12.7-22.5-25.7-22.5
		c-14.3,0-25.9,11.6-25.9,25.9c0,14.3,11.6,25.9,25.9,25.9c12.9,0,24-9.7,25.7-22.5C625.4,375.9,624.8,375,623.9,374.9L623.9,374.9z
		"/>
</g>
<path class="st0" d="M719.5,372.7C719.5,372.6,719.5,372.6,719.5,372.7c0-0.1,0.1-0.1,0.1-0.1c0,0,0,0,0-0.1c0,0,0-0.1,0-0.1
	c0,0,0,0,0-0.1c0,0,0-0.1,0-0.1c0,0,0,0,0-0.1c0,0,0-0.1,0-0.1c0,0,0,0,0,0c0-15.8-12.9-28.7-28.7-28.7s-28.7,12.9-28.7,28.7
	c0,0,0,0,0,0c0,0,0,0.1,0,0.1c0,0,0,0,0,0.1c0,0,0,0.1,0,0.1c0,0,0,0,0,0.1c0,0,0,0.1,0,0.1c0,0,0,0.1,0,0.1c0,0,0,0,0,0.1
	c0,0,0,0.1,0,0.1c0,0,0,0,0,0.1c0,0,0,0.1,0,0.1c0,0,0,0,0,0l18.9,31.5h-5.7c-1.8,0-3.3,1.5-3.3,3.3v30.5c0,1.8,1.5,3.3,3.3,3.3
	h30.5c1.8,0,3.3-1.5,3.3-3.3v-30.5c0-1.8-1.5-3.3-3.3-3.3h-5.7l18.9-31.5c0,0,0,0,0,0C719.4,372.8,719.5,372.8,719.5,372.7
	C719.5,372.7,719.5,372.7,719.5,372.7L719.5,372.7z M690.9,346.5c12.7,0,23.3,9.3,25.2,21.5c-1.4-0.6-3-0.9-4.9-0.9
	c-2.9,0-5.3,0.8-6.8,2c-1.5-1.2-3.9-2-6.8-2s-5.3,0.8-6.8,2c-1.5-1.2-3.9-2-6.8-2s-5.3,0.8-6.8,2c-1.5-1.2-3.9-2-6.8-2
	c-1.8,0-3.5,0.3-4.9,0.9C667.6,355.8,678.2,346.5,690.9,346.5z M675.5,409.8l3.6,3.6v19l-3.6,3.6V409.8z M699.5,424.7h-17.2v-3.6
	h17.2V424.7z M682.3,431.5v-3.6h17.2v3.6H682.3z M699.5,414.3v3.6h-17.2v-3.6H699.5z M681.4,434.7h19l3.6,3.6h-26.3L681.4,434.7z
	 M702.7,432.5v-19l3.6-3.6v26.3L702.7,432.5z M700.4,411.2h-19l-3.6-3.6H704L700.4,411.2z M689.3,404.4h-0.6l-9.7-32.5
	c0.2-0.5,2-1.7,5.2-1.7c3.4,0,5.2,1.3,5.2,1.8V404.4L689.3,404.4z M692.5,404.4V372c0-0.5,1.8-1.8,5.2-1.8c3.2,0,4.9,1.1,5.2,1.7
	l-9.7,32.5H692.5L692.5,404.4z M665.5,371.8c0.4-0.6,2.2-1.6,5.1-1.6c3.4,0,5.2,1.3,5.2,1.8c0,0,0,0,0,0c0,0,0,0.1,0,0.1
	c0,0,0,0.1,0,0.1c0,0,0,0.1,0,0.1c0,0,0,0.1,0,0.1c0,0,0,0,0,0l0,0c0,0,0,0,0,0l9.6,31.9H685C685,404.4,665.5,371.8,665.5,371.8z
	 M696.4,404.4l9.6-31.9c0,0,0,0,0,0l0,0c0,0,0,0,0,0c0,0,0-0.1,0-0.1c0,0,0-0.1,0-0.1c0,0,0-0.1,0-0.1c0,0,0-0.1,0-0.1c0,0,0,0,0,0
	c0-0.5,1.8-1.8,5.2-1.8c2.9,0,4.6,1,5.1,1.6l-19.6,32.6H696.4L696.4,404.4z"/>
<g>
	<path class="st0" d="M808.3,349.8h-11.8c-0.6-1.9-2.4-3.3-4.6-3.3h-5c-1.5-2-3.9-3.3-6.5-3.3s-5,1.2-6.5,3.3h-5
		c-2.1,0-3.9,1.4-4.6,3.3h-11.8c-3.6,0-6.5,2.9-6.5,6.5v75.4c0,3.6,2.9,6.5,6.5,6.5h55.7c3.6,0,6.5-2.9,6.5-6.5v-75.4
		C814.8,352.7,811.9,349.8,808.3,349.8L808.3,349.8z M764.4,359.5c0.6,1.9,2.4,3.3,4.6,3.3h23c2.1,0,3.9-1.4,4.6-3.3h8.7v69.1h-49.4
		v-69.1H764.4L764.4,359.5z M768.9,349.6h5.8c0.5,0,1.1-0.3,1.3-0.8c0.9-1.6,2.5-2.5,4.3-2.5s3.4,0.9,4.3,2.5
		c0.3,0.5,0.8,0.8,1.3,0.8h5.8c1,0,1.7,0.8,1.7,1.7v6.6c0,0,0,0,0,0c0,0,0,0,0,0c0,1-0.8,1.7-1.7,1.7h-23c-1,0-1.7-0.8-1.7-1.7
		c0,0,0,0,0,0c0,0,0,0,0,0v-6.6C767.2,350.4,768,349.6,768.9,349.6L768.9,349.6z M811.7,431.7c0,1.9-1.5,3.4-3.4,3.4h-55.7
		c-1.9,0-3.4-1.5-3.4-3.4v-75.4c0-1.9,1.5-3.4,3.4-3.4h11.6v3.5h-9.9c-0.8,0-1.5,0.7-1.5,1.5v72.1c0,0.8,0.7,1.5,1.5,1.5h52.5
		c0.8,0,1.5-0.7,1.5-1.5v-72.1c0-0.8-0.7-1.5-1.5-1.5h-9.9v-3.5h11.6c1.9,0,3.4,1.5,3.4,3.4V431.7z"/>
	<path class="st0" d="M780.4,356.2c0.8,0,1.5-0.7,1.5-1.5v-3.3c0-0.8-0.7-1.5-1.5-1.5s-1.5,0.7-1.5,1.5v3.3
		C778.9,355.5,779.6,356.2,780.4,356.2z"/>
	<path class="st0" d="M782.1,377.5h9.8c0.8,0,1.5-0.7,1.5-1.5c0-0.8-0.7-1.5-1.5-1.5h-9.8c-0.8,0-1.5,0.7-1.5,1.5
		C780.5,376.8,781.2,377.5,782.1,377.5z"/>
	<path class="st0" d="M782.1,384.1h16.4c0.8,0,1.5-0.7,1.5-1.5c0-0.8-0.7-1.5-1.5-1.5h-16.4c-0.8,0-1.5,0.7-1.5,1.5
		C780.5,383.4,781.2,384.1,782.1,384.1z"/>
	<path class="st0" d="M766.2,383.6c0.3,0.3,0.7,0.5,1.1,0.5c0.4,0,0.8-0.2,1.1-0.5l8.2-8.2c0.6-0.6,0.6-1.6,0-2.2
		c-0.6-0.6-1.6-0.6-2.2,0l-7.1,7.1l-3.8-3.8c-0.6-0.6-1.6-0.6-2.2,0c-0.6,0.6-0.6,1.6,0,2.2L766.2,383.6L766.2,383.6z"/>
	<path class="st0" d="M782.1,393.9h9.8c0.8,0,1.5-0.7,1.5-1.5c0-0.8-0.7-1.5-1.5-1.5h-9.8c-0.8,0-1.5,0.7-1.5,1.5
		C780.5,393.2,781.2,393.9,782.1,393.9z"/>
	<path class="st0" d="M782.1,400.5h16.4c0.8,0,1.5-0.7,1.5-1.5c0-0.8-0.7-1.5-1.5-1.5h-16.4c-0.8,0-1.5,0.7-1.5,1.5
		C780.5,399.8,781.2,400.5,782.1,400.5z"/>
	<path class="st0" d="M766.2,400c0.3,0.3,0.7,0.5,1.1,0.5c0.4,0,0.8-0.2,1.1-0.5l8.2-8.2c0.6-0.6,0.6-1.6,0-2.2
		c-0.6-0.6-1.6-0.6-2.2,0l-7.1,7.1l-3.8-3.8c-0.6-0.6-1.6-0.6-2.2,0c-0.6,0.6-0.6,1.6,0,2.2L766.2,400L766.2,400z"/>
	<path class="st0" d="M782.1,410.3h9.8c0.8,0,1.5-0.7,1.5-1.5c0-0.8-0.7-1.5-1.5-1.5h-9.8c-0.8,0-1.5,0.7-1.5,1.5
		C780.5,409.6,781.2,410.3,782.1,410.3z"/>
	<path class="st0" d="M782.1,416.9h16.4c0.8,0,1.5-0.7,1.5-1.5c0-0.8-0.7-1.5-1.5-1.5h-16.4c-0.8,0-1.5,0.7-1.5,1.5
		C780.5,416.2,781.2,416.9,782.1,416.9z"/>
	<path class="st0" d="M766.2,416.4c0.3,0.3,0.7,0.5,1.1,0.5c0.4,0,0.8-0.2,1.1-0.5l8.2-8.2c0.6-0.6,0.6-1.6,0-2.2
		c-0.6-0.6-1.6-0.6-2.2,0l-7.1,7.1l-3.8-3.8c-0.6-0.6-1.6-0.6-2.2,0c-0.6,0.6-0.6,1.6,0,2.2L766.2,416.4L766.2,416.4z"/>
</g>
<g>
	<g>
		<path class="st1" d="M520.3,488.2l21.1,5.6l5.3-21.1l-4.1-1.1l-3.5,13.3c-8.8-14.3-24.7-23.9-42.7-23.9
			c-27.7,0-50.2,22.5-50.2,50.2s22.5,50.2,50.2,50.2c18.5,0,34.7-10,43.4-24.9l-4-1.9c-8,13.4-22.6,22.4-39.4,22.4
			c-25.3,0-45.8-20.5-45.8-45.9c0-25.3,20.5-45.9,45.8-45.9c16.9,0,31.6,9.1,39.6,22.7l-14.7-3.9L520.3,488.2z"/>
		<polygon class="st1" points="489.7,477.1 489.7,515.1 514.3,527.1 516.2,523.3 494,512.6 494,477.1 		"/>
	</g>
</g>
<g>
	<path class="st1" d="M641.2,550.5l-13.3-32.1c-0.3-0.8-1.3-1.2-2.1-0.9s-1.2,1.3-0.9,2.1l12,29l-11-3.2c-0.7-0.2-1.5,0.1-1.9,0.8
		l-5.5,10L605.8,525c14.9-2.9,26.2-16,26.2-31.7c0-17.8-14.5-32.3-32.3-32.3s-32.3,14.5-32.3,32.3c0,7.2,2.4,13.9,6.4,19.3
		L558,550.5c-0.2,0.6-0.1,1.2,0.3,1.7c0.4,0.5,1,0.6,1.6,0.5l12.9-3.8l6.5,11.8c0.3,0.5,0.8,0.8,1.4,0.8c0,0,0.1,0,0.1,0
		c0.6,0,1.2-0.4,1.4-1l12.4-30c0.3-0.8,0-1.8-0.9-2.1c-0.8-0.3-1.8,0-2.1,0.9l-11.2,26.9l-5.5-10c-0.4-0.7-1.1-1-1.9-0.8l-11,3.2
		l13.8-33.2c5.9,6.3,14.3,10.3,23.6,10.3c1,0,1.9,0,2.8-0.1l14.5,35c0.2,0.6,0.8,1,1.4,1c0,0,0.1,0,0.1,0c0.6,0,1.1-0.3,1.4-0.8
		l6.5-11.8l12.9,3.8c0.6,0.2,1.2,0,1.6-0.5C641.4,551.7,641.5,551,641.2,550.5L641.2,550.5z M570.5,493.3c0-16,13.1-29.1,29.1-29.1
		s29.1,13.1,29.1,29.1s-13.1,29.1-29.1,29.1S570.5,509.4,570.5,493.3L570.5,493.3z"/>
	<path class="st1" d="M618.2,487.3c-0.2-0.6-0.7-1-1.3-1.1l-10.8-1.8l-5.1-9.7c-0.3-0.5-0.8-0.9-1.4-0.9c-0.6,0-1.1,0.3-1.4,0.9
		l-5.1,9.7l-10.8,1.8c-0.6,0.1-1.1,0.5-1.3,1.1c-0.2,0.6,0,1.2,0.4,1.6l7.7,7.8l-1.6,10.8c-0.1,0.6,0.2,1.2,0.6,1.5
		c0.5,0.4,1.1,0.4,1.7,0.1l9.8-4.9l9.8,4.9c0.2,0.1,0.5,0.2,0.7,0.2c0.3,0,0.7-0.1,0.9-0.3c0.5-0.4,0.7-0.9,0.6-1.5l-1.6-10.8
		l7.7-7.8C618.2,488.5,618.3,487.9,618.2,487.3z M607.3,495c-0.4,0.4-0.5,0.9-0.4,1.4l1.3,8.6l-7.8-3.9c-0.2-0.1-0.5-0.2-0.7-0.2
		c-0.2,0-0.5,0.1-0.7,0.2l-7.8,3.9l1.3-8.6c0.1-0.5-0.1-1-0.4-1.4l-6.1-6.2l8.5-1.4c0.5-0.1,0.9-0.4,1.2-0.8l4-7.7l4,7.7
		c0.2,0.4,0.7,0.8,1.2,0.8l8.5,1.4L607.3,495L607.3,495z"/>
	<path class="st1" d="M623.9,494.9c-0.9-0.1-1.7,0.5-1.8,1.4c-1.5,11.2-11.2,19.7-22.5,19.7c-12.5,0-22.7-10.2-22.7-22.7
		s10.2-22.7,22.7-22.7c11.3,0,21,8.5,22.5,19.7c0.1,0.9,0.9,1.5,1.8,1.4c0.9-0.1,1.5-0.9,1.4-1.8c-1.7-12.8-12.7-22.5-25.7-22.5
		c-14.3,0-25.9,11.6-25.9,25.9c0,14.3,11.6,25.9,25.9,25.9c12.9,0,24-9.7,25.7-22.5C625.4,495.9,624.8,495,623.9,494.9L623.9,494.9z
		"/>
</g>
<path class="st1" d="M719.5,492.7C719.5,492.6,719.5,492.6,719.5,492.7c0-0.1,0.1-0.1,0.1-0.1c0,0,0,0,0-0.1c0,0,0-0.1,0-0.1
	c0,0,0,0,0-0.1c0,0,0-0.1,0-0.1c0,0,0,0,0-0.1c0,0,0-0.1,0-0.1c0,0,0,0,0,0c0-15.8-12.9-28.7-28.7-28.7s-28.7,12.9-28.7,28.7
	c0,0,0,0,0,0c0,0,0,0.1,0,0.1c0,0,0,0,0,0.1c0,0,0,0.1,0,0.1c0,0,0,0,0,0.1c0,0,0,0.1,0,0.1c0,0,0,0.1,0,0.1c0,0,0,0,0,0.1
	c0,0,0,0.1,0,0.1c0,0,0,0,0,0.1c0,0,0,0.1,0,0.1c0,0,0,0,0,0l18.9,31.5h-5.7c-1.8,0-3.3,1.5-3.3,3.3v30.5c0,1.8,1.5,3.3,3.3,3.3
	h30.5c1.8,0,3.3-1.5,3.3-3.3v-30.5c0-1.8-1.5-3.3-3.3-3.3h-5.7l18.9-31.5c0,0,0,0,0,0C719.4,492.8,719.5,492.8,719.5,492.7
	C719.5,492.7,719.5,492.7,719.5,492.7L719.5,492.7z M690.9,466.5c12.7,0,23.3,9.3,25.2,21.5c-1.4-0.6-3-0.9-4.9-0.9
	c-2.9,0-5.3,0.8-6.8,2c-1.5-1.2-3.9-2-6.8-2s-5.3,0.8-6.8,2c-1.5-1.2-3.9-2-6.8-2s-5.3,0.8-6.8,2c-1.5-1.2-3.9-2-6.8-2
	c-1.8,0-3.5,0.3-4.9,0.9C667.6,475.8,678.2,466.5,690.9,466.5z M675.5,529.8l3.6,3.6v19l-3.6,3.6V529.8z M699.5,544.7h-17.2v-3.6
	h17.2V544.7z M682.3,551.5v-3.6h17.2v3.6H682.3z M699.5,534.3v3.6h-17.2v-3.6H699.5z M681.4,554.7h19l3.6,3.6h-26.3L681.4,554.7z
	 M702.7,552.5v-19l3.6-3.6v26.3L702.7,552.5z M700.4,531.2h-19l-3.6-3.6H704L700.4,531.2z M689.3,524.4h-0.6l-9.7-32.5
	c0.2-0.5,2-1.7,5.2-1.7c3.4,0,5.2,1.3,5.2,1.8V524.4L689.3,524.4z M692.5,524.4V492c0-0.5,1.8-1.8,5.2-1.8c3.2,0,4.9,1.1,5.2,1.7
	l-9.7,32.5H692.5L692.5,524.4z M665.5,491.8c0.4-0.6,2.2-1.6,5.1-1.6c3.4,0,5.2,1.3,5.2,1.8c0,0,0,0,0,0c0,0,0,0.1,0,0.1
	c0,0,0,0.1,0,0.1c0,0,0,0.1,0,0.1c0,0,0,0.1,0,0.1c0,0,0,0,0,0l0,0c0,0,0,0,0,0l9.6,31.9H685C685,524.4,665.5,491.8,665.5,491.8z
	 M696.4,524.4l9.6-31.9c0,0,0,0,0,0l0,0c0,0,0,0,0,0c0,0,0-0.1,0-0.1c0,0,0-0.1,0-0.1c0,0,0-0.1,0-0.1c0,0,0-0.1,0-0.1c0,0,0,0,0,0
	c0-0.5,1.8-1.8,5.2-1.8c2.9,0,4.6,1,5.1,1.6l-19.6,32.6H696.4L696.4,524.4z"/>
<g>
	<path class="st1" d="M808.3,469.8h-11.8c-0.6-1.9-2.4-3.3-4.6-3.3h-5c-1.5-2-3.9-3.3-6.5-3.3s-5,1.2-6.5,3.3h-5
		c-2.1,0-3.9,1.4-4.6,3.3h-11.8c-3.6,0-6.5,2.9-6.5,6.5v75.4c0,3.6,2.9,6.5,6.5,6.5h55.7c3.6,0,6.5-2.9,6.5-6.5v-75.4
		C814.8,472.7,811.9,469.8,808.3,469.8L808.3,469.8z M764.4,479.5c0.6,1.9,2.4,3.3,4.6,3.3h23c2.1,0,3.9-1.4,4.6-3.3h8.7v69.1h-49.4
		v-69.1H764.4L764.4,479.5z M768.9,469.6h5.8c0.5,0,1.1-0.3,1.3-0.8c0.9-1.6,2.5-2.5,4.3-2.5s3.4,0.9,4.3,2.5
		c0.3,0.5,0.8,0.8,1.3,0.8h5.8c1,0,1.7,0.8,1.7,1.7v6.6c0,0,0,0,0,0c0,0,0,0,0,0c0,1-0.8,1.7-1.7,1.7h-23c-1,0-1.7-0.8-1.7-1.7
		c0,0,0,0,0,0c0,0,0,0,0,0v-6.6C767.2,470.4,768,469.6,768.9,469.6L768.9,469.6z M811.7,551.7c0,1.9-1.5,3.4-3.4,3.4h-55.7
		c-1.9,0-3.4-1.5-3.4-3.4v-75.4c0-1.9,1.5-3.4,3.4-3.4h11.6v3.5h-9.9c-0.8,0-1.5,0.7-1.5,1.5v72.1c0,0.8,0.7,1.5,1.5,1.5h52.5
		c0.8,0,1.5-0.7,1.5-1.5v-72.1c0-0.8-0.7-1.5-1.5-1.5h-9.9v-3.5h11.6c1.9,0,3.4,1.5,3.4,3.4V551.7z"/>
	<path class="st1" d="M780.4,476.2c0.8,0,1.5-0.7,1.5-1.5v-3.3c0-0.8-0.7-1.5-1.5-1.5s-1.5,0.7-1.5,1.5v3.3
		C778.9,475.5,779.6,476.2,780.4,476.2z"/>
	<path class="st1" d="M782.1,497.5h9.8c0.8,0,1.5-0.7,1.5-1.5c0-0.8-0.7-1.5-1.5-1.5h-9.8c-0.8,0-1.5,0.7-1.5,1.5
		C780.5,496.8,781.2,497.5,782.1,497.5z"/>
	<path class="st1" d="M782.1,504.1h16.4c0.8,0,1.5-0.7,1.5-1.5c0-0.8-0.7-1.5-1.5-1.5h-16.4c-0.8,0-1.5,0.7-1.5,1.5
		C780.5,503.4,781.2,504.1,782.1,504.1z"/>
	<path class="st1" d="M766.2,503.6c0.3,0.3,0.7,0.5,1.1,0.5c0.4,0,0.8-0.2,1.1-0.5l8.2-8.2c0.6-0.6,0.6-1.6,0-2.2
		c-0.6-0.6-1.6-0.6-2.2,0l-7.1,7.1l-3.8-3.8c-0.6-0.6-1.6-0.6-2.2,0c-0.6,0.6-0.6,1.6,0,2.2L766.2,503.6L766.2,503.6z"/>
	<path class="st1" d="M782.1,513.9h9.8c0.8,0,1.5-0.7,1.5-1.5c0-0.8-0.7-1.5-1.5-1.5h-9.8c-0.8,0-1.5,0.7-1.5,1.5
		C780.5,513.2,781.2,513.9,782.1,513.9z"/>
	<path class="st1" d="M782.1,520.5h16.4c0.8,0,1.5-0.7,1.5-1.5s-0.7-1.5-1.5-1.5h-16.4c-0.8,0-1.5,0.7-1.5,1.5
		S781.2,520.5,782.1,520.5z"/>
	<path class="st1" d="M766.2,520c0.3,0.3,0.7,0.5,1.1,0.5c0.4,0,0.8-0.2,1.1-0.5l8.2-8.2c0.6-0.6,0.6-1.6,0-2.2
		c-0.6-0.6-1.6-0.6-2.2,0l-7.1,7.1l-3.8-3.8c-0.6-0.6-1.6-0.6-2.2,0c-0.6,0.6-0.6,1.6,0,2.2L766.2,520L766.2,520z"/>
	<path class="st1" d="M782.1,530.3h9.8c0.8,0,1.5-0.7,1.5-1.5s-0.7-1.5-1.5-1.5h-9.8c-0.8,0-1.5,0.7-1.5,1.5
		S781.2,530.3,782.1,530.3z"/>
	<path class="st1" d="M782.1,536.9h16.4c0.8,0,1.5-0.7,1.5-1.5c0-0.8-0.7-1.5-1.5-1.5h-16.4c-0.8,0-1.5,0.7-1.5,1.5
		C780.5,536.2,781.2,536.9,782.1,536.9z"/>
	<path class="st1" d="M766.2,536.4c0.3,0.3,0.7,0.5,1.1,0.5c0.4,0,0.8-0.2,1.1-0.5l8.2-8.2c0.6-0.6,0.6-1.6,0-2.2
		c-0.6-0.6-1.6-0.6-2.2,0l-7.1,7.1l-3.8-3.8c-0.6-0.6-1.6-0.6-2.2,0c-0.6,0.6-0.6,1.6,0,2.2L766.2,536.4L766.2,536.4z"/>
</g>
<g id="XMLID_38_">
	<path id="XMLID_45_" class="st2" d="M922.5,415.2l-2.3-0.4c-1.1-0.2-1.9-0.9-2.3-1.9c-0.4-1-0.3-2.1,0.4-2.9l1.4-1.9
		c0.5-0.6,0.4-1.5-0.2-2l-3.1-3.1c-0.5-0.5-1.4-0.6-2-0.2l-1.9,1.3c-0.9,0.6-2,0.7-3,0.3c-1-0.4-1.6-1.3-1.8-2.4l-0.4-2.4
		c-0.1-0.8-0.8-1.3-1.5-1.3h-4.3c-0.7,0-1.4,0.5-1.5,1.3l-0.6,2.9c-0.2,1-0.9,1.9-1.8,2.3c-1,0.4-2,0.3-2.9-0.3l-2.5-1.7
		c-0.6-0.4-1.4-0.3-2,0.2l-3.1,3.1c-0.5,0.5-0.6,1.4-0.2,2l1.4,1.9c0.6,0.9,0.8,1.9,0.4,2.9c-0.4,1-1.2,1.7-2.3,1.9l-2.3,0.4
		c-0.7,0.1-1.3,0.8-1.3,1.5v4.3c0,0.8,0.6,1.4,1.3,1.5l2.4,0.4c1.1,0.2,1.9,0.8,2.4,1.8c0.4,1,0.3,2.1-0.3,3l-1.3,1.9
		c-0.4,0.6-0.3,1.5,0.2,2l3.1,3.1c0.5,0.5,1.4,0.6,2,0.2l1.9-1.4c0.9-0.6,1.9-0.8,2.9-0.4c1,0.4,1.7,1.2,1.9,2.3l0.4,2.3
		c0.1,0.7,0.8,1.3,1.5,1.3h4.3c0.8,0,1.4-0.6,1.5-1.3l0.3-1.7c0.2-1.1,0.9-2,1.9-2.4c1-0.4,2.1-0.3,3,0.4l1.4,1
		c0.6,0.5,1.5,0.4,2-0.2l3.1-3.1c0.5-0.5,0.6-1.4,0.2-2l-1.3-1.9c-0.6-0.9-0.7-2-0.3-3c0.4-1,1.3-1.6,2.4-1.8l2.4-0.4
		c0.8-0.1,1.3-0.8,1.3-1.5v-4.3C923.8,415.9,923.2,415.3,922.5,415.2z M920.6,419.7l-1,0.2c-2.1,0.3-3.9,1.7-4.7,3.6
		c-0.9,2-0.6,4.2,0.5,6l0.6,0.8l-1.2,1.2l-0.3-0.2c-1.8-1.3-4-1.6-6-0.7c-2,0.8-3.4,2.6-3.8,4.8l-0.1,0.3H903l-0.2-1
		c-0.4-2.1-1.8-3.8-3.8-4.6c-2-0.8-4.2-0.5-5.9,0.8l-0.8,0.6l-1.2-1.2l0.6-0.8c1.2-1.8,1.4-4,0.5-6c-0.9-2-2.6-3.3-4.7-3.6l-1-0.2
		V418l1-0.2c2.1-0.4,3.8-1.8,4.6-3.8c0.8-2,0.5-4.2-0.8-5.9l-0.6-0.8l1.2-1.2l1.4,0.9c1.7,1.2,3.9,1.4,5.8,0.6
		c1.9-0.8,3.3-2.5,3.7-4.6l0.3-1.6h1.7l0.2,1c0.3,2.1,1.7,3.9,3.6,4.7c2,0.9,4.2,0.6,6-0.5l0.8-0.6l1.2,1.2l-0.6,0.8
		c-1.3,1.7-1.6,3.9-0.8,5.9c0.8,2,2.5,3.4,4.6,3.8l1,0.2L920.6,419.7L920.6,419.7z"/>
	<path id="XMLID_41_" class="st2" d="M903.5,410.7c-4.3,0-7.8,3.5-7.8,7.8s3.5,7.8,7.8,7.8s7.8-3.5,7.8-7.8S907.8,410.7,903.5,410.7
		z M903.5,423.2c-2.6,0-4.7-2.1-4.7-4.7c0-2.6,2.1-4.7,4.7-4.7s4.7,2.1,4.7,4.7C908.2,421.1,906,423.2,903.5,423.2z"/>
	<path id="XMLID_39_" class="st2" d="M877.7,431c-1,0-2,0-3-0.1c-0.2,0-0.3,0-0.5,0c-1-0.1-2-0.2-3-0.4c0,0-0.1,0-0.1,0
		c-2.1-0.3-4.1-0.9-6.1-1.5c-0.1,0-0.1,0-0.2-0.1c-1-0.3-2-0.7-2.9-1.1c0,0,0,0,0,0c-0.9-0.4-1.8-0.8-2.7-1.3
		c-0.1-0.1-0.2-0.1-0.3-0.2c-0.8-0.4-1.6-0.9-2.3-1.4c-0.2-0.1-0.5-0.3-0.7-0.4c-0.7-0.5-1.4-0.9-2.1-1.5c-0.1-0.1-0.1-0.1-0.2-0.2
		c0,0,0.1-0.1,0.1-0.1l12.3-6.7c2.1-1.2,3.4-3.4,3.4-5.8l0-5.6l-0.4-0.4c0,0-3.4-4.1-4.7-9.7l-0.1-0.6l-0.5-0.3
		c-0.8-0.5-1.2-1.3-1.2-2.2v-5.5c0-0.7,0.3-1.4,0.9-1.9l0.5-0.5v-8.7l0-0.2c0,0-0.5-3.8,2.2-6.8c2.3-2.6,6.1-3.9,11.5-3.9
		c5.3,0,9.2,1.3,11.5,3.8c2.6,3,2.2,6.8,2.2,6.8l0,8.9l0.5,0.5c0.6,0.5,0.9,1.2,0.9,1.9v5.5c0,1.1-0.8,2.1-1.8,2.5
		c-0.8,0.3-1.3,1.1-1,2c0.3,0.8,1.1,1.3,2,1c2.4-0.7,4-2.9,4-5.4v-5.5c0-1.4-0.5-2.7-1.4-3.7v-7.3c0.1-0.8,0.4-5.4-2.9-9.2
		c-2.9-3.3-7.5-4.9-13.8-4.9c-6.3,0-11,1.7-13.8,4.9c-3.3,3.8-3,8.3-2.9,9.2v7.3c-0.9,1-1.4,2.3-1.4,3.7v5.5c0,1.7,0.8,3.3,2.1,4.4
		c1.3,5,3.9,8.7,4.8,10v4.5c0,1.3-0.7,2.4-1.8,3.1l-12.3,6.7c-0.4,0.2-0.8,0.5-1.2,0.7c-8.1-7.3-13.2-17.9-13.2-29.6
		c0-22,17.9-39.8,39.8-39.8s39.8,17.9,39.8,39.8c0,0.9,0.7,1.6,1.6,1.6s1.6-0.7,1.6-1.6c0-23.7-19.3-42.9-42.9-42.9
		c-23.7,0-42.9,19.3-42.9,42.9c0,12.5,5.4,23.8,13.9,31.6l0,0l1.4,1.2c0.1,0.1,0.2,0.1,0.3,0.2c0.7,0.6,1.5,1.2,2.3,1.8
		c0.3,0.2,0.5,0.4,0.8,0.5c0.8,0.6,1.7,1.1,2.6,1.6c0.2,0.1,0.4,0.2,0.6,0.3c1,0.5,1.9,1.1,2.9,1.5c0.1,0,0.1,0.1,0.2,0.1
		c3.3,1.5,6.7,2.6,10.4,3.3c0.1,0,0.2,0,0.3,0.1c1.1,0.2,2.3,0.4,3.4,0.5c0.1,0,0.3,0,0.4,0c1.2,0.1,2.3,0.2,3.5,0.2
		c0.9,0,1.6-0.7,1.6-1.6S878.6,431,877.7,431z"/>
</g>
<g id="XMLID_1_">
	<path id="XMLID_6_" class="st1" d="M922.5,533.2l-2.3-0.4c-1.1-0.2-1.9-0.9-2.3-1.9c-0.4-1-0.3-2.1,0.4-2.9l1.4-1.9
		c0.5-0.6,0.4-1.5-0.2-2l-3.1-3.1c-0.5-0.5-1.4-0.6-2-0.2l-1.9,1.3c-0.9,0.6-2,0.7-3,0.3c-1-0.4-1.6-1.3-1.8-2.4l-0.4-2.4
		c-0.1-0.8-0.8-1.3-1.5-1.3h-4.3c-0.7,0-1.4,0.5-1.5,1.3l-0.6,2.9c-0.2,1-0.9,1.9-1.8,2.3c-1,0.4-2,0.3-2.9-0.3l-2.5-1.7
		c-0.6-0.4-1.4-0.3-2,0.2l-3.1,3.1c-0.5,0.5-0.6,1.4-0.2,2l1.4,1.9c0.6,0.9,0.8,1.9,0.4,2.9c-0.4,1-1.2,1.7-2.3,1.9l-2.3,0.4
		c-0.7,0.1-1.3,0.8-1.3,1.5v4.3c0,0.8,0.6,1.4,1.3,1.5l2.4,0.4c1.1,0.2,1.9,0.8,2.4,1.8c0.4,1,0.3,2.1-0.3,3l-1.3,1.9
		c-0.4,0.6-0.3,1.5,0.2,2l3.1,3.1c0.5,0.5,1.4,0.6,2,0.2l1.9-1.4c0.9-0.6,1.9-0.8,2.9-0.4c1,0.4,1.7,1.2,1.9,2.3l0.4,2.3
		c0.1,0.7,0.8,1.3,1.5,1.3h4.3c0.8,0,1.4-0.6,1.5-1.3l0.3-1.7c0.2-1.1,0.9-2,1.9-2.4c1-0.4,2.1-0.3,3,0.4l1.4,1
		c0.6,0.5,1.5,0.4,2-0.2l3.1-3.1c0.5-0.5,0.6-1.4,0.2-2l-1.3-1.9c-0.6-0.9-0.7-2-0.3-3c0.4-1,1.3-1.6,2.4-1.8l2.4-0.4
		c0.8-0.1,1.3-0.8,1.3-1.5v-4.3C923.8,533.9,923.2,533.3,922.5,533.2z M920.6,537.7l-1,0.2c-2.1,0.3-3.9,1.7-4.7,3.6
		c-0.9,2-0.6,4.2,0.5,6l0.6,0.8l-1.2,1.2l-0.3-0.2c-1.8-1.3-4-1.6-6-0.7c-2,0.8-3.4,2.6-3.8,4.8l-0.1,0.3H903l-0.2-1
		c-0.4-2.1-1.8-3.8-3.8-4.6c-2-0.8-4.2-0.5-5.9,0.8l-0.8,0.6l-1.2-1.2l0.6-0.8c1.2-1.8,1.4-4,0.5-6c-0.9-2-2.6-3.3-4.7-3.6l-1-0.2
		V536l1-0.2c2.1-0.4,3.8-1.8,4.6-3.8c0.8-2,0.5-4.2-0.8-5.9l-0.6-0.8l1.2-1.2l1.4,0.9c1.7,1.2,3.9,1.4,5.8,0.6
		c1.9-0.8,3.3-2.5,3.7-4.6l0.3-1.6h1.7l0.2,1c0.3,2.1,1.7,3.9,3.6,4.7c2,0.9,4.2,0.6,6-0.5l0.8-0.6l1.2,1.2l-0.6,0.8
		c-1.3,1.7-1.6,3.9-0.8,5.9c0.8,2,2.5,3.4,4.6,3.8l1,0.2L920.6,537.7L920.6,537.7z"/>
	<path id="XMLID_3_" class="st1" d="M903.5,528.7c-4.3,0-7.8,3.5-7.8,7.8s3.5,7.8,7.8,7.8s7.8-3.5,7.8-7.8S907.8,528.7,903.5,528.7z
		 M903.5,541.2c-2.6,0-4.7-2.1-4.7-4.7s2.1-4.7,4.7-4.7s4.7,2.1,4.7,4.7S906,541.2,903.5,541.2z"/>
	<path id="XMLID_2_" class="st1" d="M877.7,549c-1,0-2,0-3-0.1c-0.2,0-0.3,0-0.5,0c-1-0.1-2-0.2-3-0.4c0,0-0.1,0-0.1,0
		c-2.1-0.3-4.1-0.9-6.1-1.5c-0.1,0-0.1,0-0.2-0.1c-1-0.3-2-0.7-2.9-1.1c0,0,0,0,0,0c-0.9-0.4-1.8-0.8-2.7-1.3
		c-0.1-0.1-0.2-0.1-0.3-0.2c-0.8-0.4-1.6-0.9-2.3-1.4c-0.2-0.1-0.5-0.3-0.7-0.4c-0.7-0.5-1.4-0.9-2.1-1.5c-0.1-0.1-0.1-0.1-0.2-0.2
		c0,0,0.1-0.1,0.1-0.1l12.3-6.7c2.1-1.2,3.4-3.4,3.4-5.8l0-5.6l-0.4-0.4c0,0-3.4-4.1-4.7-9.7l-0.1-0.6l-0.5-0.3
		c-0.8-0.5-1.2-1.3-1.2-2.2v-5.5c0-0.7,0.3-1.4,0.9-1.9l0.5-0.5v-8.7l0-0.2c0,0-0.5-3.8,2.2-6.8c2.3-2.6,6.1-3.9,11.5-3.9
		c5.3,0,9.2,1.3,11.5,3.8c2.6,3,2.2,6.8,2.2,6.8l0,8.9l0.5,0.5c0.6,0.5,0.9,1.2,0.9,1.9v5.5c0,1.1-0.8,2.1-1.8,2.5
		c-0.8,0.3-1.3,1.1-1,2c0.3,0.8,1.1,1.3,2,1c2.4-0.7,4-2.9,4-5.4v-5.5c0-1.4-0.5-2.7-1.4-3.7v-7.3c0.1-0.8,0.4-5.4-2.9-9.2
		c-2.9-3.3-7.5-4.9-13.8-4.9c-6.3,0-11,1.7-13.8,4.9c-3.3,3.8-3,8.3-2.9,9.2v7.3c-0.9,1-1.4,2.3-1.4,3.7v5.5c0,1.7,0.8,3.3,2.1,4.4
		c1.3,5,3.9,8.7,4.8,10v4.5c0,1.3-0.7,2.4-1.8,3.1l-12.3,6.7c-0.4,0.2-0.8,0.5-1.2,0.7c-8.1-7.3-13.2-17.9-13.2-29.6
		c0-22,17.9-39.8,39.8-39.8s39.8,17.9,39.8,39.8c0,0.9,0.7,1.6,1.6,1.6s1.6-0.7,1.6-1.6c0-23.7-19.3-42.9-42.9-42.9
		c-23.7,0-42.9,19.3-42.9,42.9c0,12.5,5.4,23.8,13.9,31.6l0,0l1.4,1.2c0.1,0.1,0.2,0.1,0.3,0.2c0.7,0.6,1.5,1.2,2.3,1.8
		c0.3,0.2,0.5,0.4,0.8,0.5c0.8,0.6,1.7,1.1,2.6,1.6c0.2,0.1,0.4,0.2,0.6,0.3c1,0.5,1.9,1.1,2.9,1.5c0.1,0,0.1,0.1,0.2,0.1
		c3.3,1.5,6.7,2.6,10.4,3.3c0.1,0,0.2,0,0.3,0.1c1.1,0.2,2.3,0.4,3.4,0.5c0.1,0,0.3,0,0.4,0c1.2,0.1,2.3,0.2,3.5,0.2
		c0.9,0,1.6-0.7,1.6-1.6C879.3,549.7,878.6,549,877.7,549z"/>
</g>
</svg>
