<?xml version="1.0" encoding="utf-8"?>
<!-- Generator: Adobe Illustrator 19.0.0, SVG Export Plug-In . SVG Version: 6.00 Build 0)  -->
<svg version="1.1" id="Layer_1" xmlns="http://www.w3.org/2000/svg" xmlns:xlink="http://www.w3.org/1999/xlink" x="0px" y="0px"
	 viewBox="37.8 -26.9 135.6 85.9" style="enable-background:new 37.8 -26.9 135.6 85.9;" xml:space="preserve">
<style type="text/css">
	.st0{fill:#010101;stroke:#010101;stroke-width:0.5;stroke-miterlimit:10;}
	.st1{fill:#010101;}
	.st2{fill:#2669AD;stroke:#266AAD;stroke-width:0.5;stroke-miterlimit:10;}
	.st3{fill:#2669AD;}
</style>
<g id="XMLID_21_">
	<path id="XMLID_25_" class="st0" d="M113.1-8.5v-7.6c0-4.3-3.7-7.7-8.3-7.7c-4.6,0-8.3,3.5-8.3,7.7v7.6h-6V8.8v5.3h29.3V8.8V-8.5
		H113.1z M97.8-16.1c0-3.5,3.1-6.4,7-6.4c3.9,0,7,2.9,7,6.4v7.6h-14C97.8-8.5,97.8-16.1,97.8-16.1z M118.4,12.8H91.8v-2.7h26.6V12.8
		z M91.8,8.8v-16h4.7h16.6h5.3v16H91.8z"/>
	<path id="XMLID_22_" class="st0" d="M105.1-3.2c-1.5,0-2.7,1.2-2.7,2.7v4c0,1.5,1.2,2.7,2.7,2.7s2.7-1.2,2.7-2.7v-4
		C107.8-2,106.6-3.2,105.1-3.2z M106.5,3.5c0,0.7-0.6,1.3-1.3,1.3c-0.7,0-1.3-0.6-1.3-1.3v-4c0-0.7,0.6-1.3,1.3-1.3
		c0.7,0,1.3,0.6,1.3,1.3V3.5z"/>
</g>
<g id="XMLID_56_">
	<g id="XMLID_57_">
		<path id="XMLID_58_" class="st1" d="M166.8-20.6h-33c-1.8,0-3.2,1.4-3.2,3.2V1.9c0,1.8,1.4,3.2,3.2,3.2h1.9v8
			c0,0.4,0.2,0.7,0.6,0.8c0.1,0,0.2,0.1,0.4,0.1c0.2,0,0.5-0.1,0.6-0.3l8.6-8.6h21c1.8,0,3.2-1.4,3.2-3.2v-19.3
			C170-19.2,168.6-20.6,166.8-20.6z M166.8,3.3h-21.4c-0.2,0-0.5,0.1-0.6,0.2l0,0l0,0l-7.3,7.3V4.2V4.1c0-0.5-0.4-0.8-0.9-0.8h-2.8
			c-0.8,0-1.4-0.6-1.4-1.4v-19.3c0-0.8,0.6-1.4,1.4-1.4h33c0.8,0,1.4,0.6,1.4,1.4V1.9l0,0C168.2,2.7,167.5,3.3,166.8,3.3z"/>
	</g>
</g>
<g id="XMLID_53_">
	<g id="XMLID_54_">
		<path id="XMLID_34_" class="st1" d="M143.9-13.9h-5.4c-0.5,0-0.9,0.4-0.9,0.9s0.4,0.9,0.9,0.9h5.4c0.5,0,0.9-0.4,0.9-0.9
			C144.9-13.5,144.4-13.9,143.9-13.9z"/>
	</g>
</g>
<g id="XMLID_50_">
	<g id="XMLID_51_">
		<path id="XMLID_33_" class="st1" d="M153.5-8.6h-14.9c-0.5,0-0.9,0.4-0.9,0.9s0.4,0.9,0.9,0.9h14.9c0.5,0,0.9-0.4,0.9-0.9
			C154.4-8.2,154-8.6,153.5-8.6z"/>
	</g>
</g>
<g id="XMLID_47_">
	<g id="XMLID_48_">
		<path id="XMLID_32_" class="st1" d="M161.9-13.9h-12.6c-0.5,0-0.9,0.4-0.9,0.9s0.4,0.9,0.9,0.9h12.6c0.5,0,0.9-0.4,0.9-0.9
			C162.9-13.5,162.4-13.9,161.9-13.9z"/>
	</g>
</g>
<g id="XMLID_44_">
	<g id="XMLID_45_">
		<path id="XMLID_31_" class="st1" d="M161.9-8.6h-3.3c-0.5,0-0.9,0.4-0.9,0.9s0.4,0.9,0.9,0.9h3.3c0.5,0,0.9-0.4,0.9-0.9
			S162.4-8.6,161.9-8.6z"/>
	</g>
</g>
<g id="XMLID_41_">
	<g id="XMLID_42_">
		<path id="XMLID_30_" class="st1" d="M146.9-3.4h-8.3c-0.5,0-0.9,0.4-0.9,0.9s0.4,0.9,0.9,0.9h8.3c0.5,0,0.9-0.4,0.9-0.9
			S147.4-3.4,146.9-3.4z"/>
	</g>
</g>
<g id="XMLID_38_">
	<g id="XMLID_39_">
		<path id="XMLID_20_" class="st1" d="M161.9-3.4h-10.2c-0.5,0-0.9,0.4-0.9,0.9s0.4,0.9,0.9,0.9h10.2c0.5,0,0.9-0.4,0.9-0.9
			C162.9-3,162.4-3.4,161.9-3.4z"/>
	</g>
</g>
<g id="XMLID_88_">
	<path id="XMLID_92_" class="st2" d="M113.1,33.5v-7.6c0-4.3-3.7-7.7-8.3-7.7c-4.6,0-8.3,3.5-8.3,7.7v7.6h-6v17.3v5.3h29.3v-5.3
		V33.5H113.1z M97.8,25.9c0-3.5,3.1-6.4,7-6.4c3.9,0,7,2.9,7,6.4v7.6h-14C97.8,33.5,97.8,25.9,97.8,25.9z M118.4,54.8H91.8v-2.7
		h26.6V54.8z M91.8,50.8v-16h4.7h16.6h5.3v16H91.8z"/>
	<path id="XMLID_89_" class="st2" d="M105.1,38.8c-1.5,0-2.7,1.2-2.7,2.7v4c0,1.5,1.2,2.7,2.7,2.7s2.7-1.2,2.7-2.7v-4
		C107.8,40,106.6,38.8,105.1,38.8z M106.5,45.5c0,0.7-0.6,1.3-1.3,1.3c-0.7,0-1.3-0.6-1.3-1.3v-4c0-0.7,0.6-1.3,1.3-1.3
		c0.7,0,1.3,0.6,1.3,1.3V45.5z"/>
</g>
<g id="XMLID_83_">
	<g id="XMLID_84_">
		<path id="XMLID_85_" class="st3" d="M166.8,21.4h-33c-1.8,0-3.2,1.4-3.2,3.2v19.3c0,1.8,1.4,3.2,3.2,3.2h1.9v8
			c0,0.4,0.2,0.7,0.6,0.8c0.1,0,0.2,0.1,0.4,0.1c0.2,0,0.5-0.1,0.6-0.3l8.6-8.6h21c1.8,0,3.2-1.4,3.2-3.2V24.6
			C170,22.8,168.6,21.4,166.8,21.4z M166.8,45.3h-21.4c-0.2,0-0.5,0.1-0.6,0.2l0,0l0,0l-7.3,7.3v-6.6v-0.1c0-0.5-0.4-0.8-0.9-0.8
			h-2.8c-0.8,0-1.4-0.6-1.4-1.4V24.6c0-0.8,0.6-1.4,1.4-1.4h33c0.8,0,1.4,0.6,1.4,1.4v19.3l0,0C168.2,44.7,167.5,45.3,166.8,45.3z"
			/>
	</g>
</g>
<g id="XMLID_80_">
	<g id="XMLID_81_">
		<path id="XMLID_82_" class="st3" d="M143.9,28.1h-5.4c-0.5,0-0.9,0.4-0.9,0.9s0.4,0.9,0.9,0.9h5.4c0.5,0,0.9-0.4,0.9-0.9
			C144.9,28.5,144.4,28.1,143.9,28.1z"/>
	</g>
</g>
<g id="XMLID_77_">
	<g id="XMLID_78_">
		<path id="XMLID_79_" class="st3" d="M153.5,33.4h-14.9c-0.5,0-0.9,0.4-0.9,0.9s0.4,0.9,0.9,0.9h14.9c0.5,0,0.9-0.4,0.9-0.9
			S154,33.4,153.5,33.4z"/>
	</g>
</g>
<g id="XMLID_74_">
	<g id="XMLID_75_">
		<path id="XMLID_76_" class="st3" d="M161.9,28.1h-12.6c-0.5,0-0.9,0.4-0.9,0.9s0.4,0.9,0.9,0.9h12.6c0.5,0,0.9-0.4,0.9-0.9
			C162.9,28.5,162.4,28.1,161.9,28.1z"/>
	</g>
</g>
<g id="XMLID_71_">
	<g id="XMLID_72_">
		<path id="XMLID_73_" class="st3" d="M161.9,33.4h-3.3c-0.5,0-0.9,0.4-0.9,0.9s0.4,0.9,0.9,0.9h3.3c0.5,0,0.9-0.4,0.9-0.9
			S162.4,33.4,161.9,33.4z"/>
	</g>
</g>
<g id="XMLID_68_">
	<g id="XMLID_69_">
		<path id="XMLID_70_" class="st3" d="M146.9,38.6h-8.3c-0.5,0-0.9,0.4-0.9,0.9s0.4,0.9,0.9,0.9h8.3c0.5,0,0.9-0.4,0.9-0.9
			S147.4,38.6,146.9,38.6z"/>
	</g>
</g>
<g id="XMLID_65_">
	<g id="XMLID_66_">
		<path id="XMLID_67_" class="st3" d="M161.9,38.6h-10.2c-0.5,0-0.9,0.4-0.9,0.9s0.4,0.9,0.9,0.9h10.2c0.5,0,0.9-0.4,0.9-0.9
			C162.9,39,162.4,38.6,161.9,38.6z"/>
	</g>
</g>
<g id="XMLID_43_">
	<g id="XMLID_46_">
		<path id="XMLID_49_" class="st1" d="M56.4,7.9c-1.9,0-3.5,1.5-3.5,3.5s1.5,3.5,3.5,3.5c1.9,0,3.5-1.5,3.5-3.5
			C59.8,9.5,58.2,7.9,56.4,7.9z M56.4,12.9c-0.9,0-1.5-0.7-1.5-1.5c0-0.9,0.7-1.5,1.5-1.5c0.9,0,1.5,0.7,1.5,1.5
			S57.2,12.9,56.4,12.9z"/>
	</g>
</g>
<g id="XMLID_36_">
	<g id="XMLID_37_">
		<path id="XMLID_40_" class="st1" d="M68.4,7.9c-1.9,0-3.5,1.5-3.5,3.5s1.5,3.5,3.5,3.5s3.5-1.5,3.5-3.5
			C71.8,9.5,70.3,7.9,68.4,7.9z M68.4,12.9c-0.9,0-1.5-0.7-1.5-1.5c0-0.9,0.7-1.5,1.5-1.5c0.9,0,1.5,0.7,1.5,1.5
			S69.2,12.9,68.4,12.9z"/>
	</g>
</g>
<g id="XMLID_15_">
	<g id="XMLID_16_">
		<path id="XMLID_17_" class="st1" d="M69.2-10.1H55.5c-0.5,0-1,0.4-1,1s0.4,1,1,1h13.7c0.5,0,1-0.4,1-1S69.7-10.1,69.2-10.1z"/>
	</g>
</g>
<g id="XMLID_13_">
	<g id="XMLID_14_">
		<path id="XMLID_55_" class="st1" d="M68.5-5.1H56.2c-0.5,0-1,0.4-1,1s0.4,1,1,1h12.2c0.5,0,1-0.4,1-1S69-5.1,68.5-5.1z"/>
	</g>
</g>
<g id="XMLID_62_">
	<g id="XMLID_63_">
		<path id="XMLID_64_" class="st1" d="M78.6-14.4c-0.4-0.4-0.9-0.7-1.5-0.7H47.3L46.7-18c-0.1-0.6-0.5-1.1-1.1-1.4l-4.3-1.8
			c-0.5-0.2-1.1,0-1.3,0.5c-0.2,0.5,0,1.1,0.5,1.3l4.2,1.8l4.6,22.5c0.2,0.9,1,1.5,1.9,1.5h23c0.5,0,1-0.4,1-1s-0.4-1-1-1H51.3
			l-0.5-2.8h23.7c0.9,0,1.7-0.6,1.9-1.5l2.7-13C79.1-13.4,78.9-14,78.6-14.4z M74.4-0.2H50.3l-2.7-13h29.4L74.4-0.2z"/>
	</g>
</g>
<g id="XMLID_11_">
	<g id="XMLID_12_">
		<path id="XMLID_35_" class="st3" d="M56.4,49.1c-1.9,0-3.5,1.5-3.5,3.5c0,1.9,1.5,3.5,3.5,3.5c1.9,0,3.5-1.5,3.5-3.5
			C59.8,50.6,58.2,49.1,56.4,49.1z M56.4,54c-0.9,0-1.5-0.7-1.5-1.5c0-0.9,0.7-1.5,1.5-1.5c0.9,0,1.5,0.7,1.5,1.5
			C57.8,53.3,57.2,54,56.4,54z"/>
	</g>
</g>
<g id="XMLID_8_">
	<g id="XMLID_9_">
		<path id="XMLID_10_" class="st3" d="M68.4,49.1c-1.9,0-3.5,1.5-3.5,3.5c0,1.9,1.5,3.5,3.5,3.5s3.5-1.5,3.5-3.5
			C71.8,50.6,70.3,49.1,68.4,49.1z M68.4,54c-0.9,0-1.5-0.7-1.5-1.5c0-0.9,0.7-1.5,1.5-1.5c0.9,0,1.5,0.7,1.5,1.5
			C69.9,53.3,69.2,54,68.4,54z"/>
	</g>
</g>
<g id="XMLID_27_">
	<g id="XMLID_28_">
		<path id="XMLID_29_" class="st3" d="M69.2,31H55.5c-0.5,0-1,0.4-1,1c0,0.5,0.4,1,1,1h13.7c0.5,0,1-0.4,1-1
			C70.2,31.4,69.7,31,69.2,31z"/>
	</g>
</g>
<g id="XMLID_23_">
	<g id="XMLID_24_">
		<path id="XMLID_26_" class="st3" d="M68.5,36H56.2c-0.5,0-1,0.4-1,1s0.4,1,1,1h12.2c0.5,0,1-0.4,1-1S69,36,68.5,36z"/>
	</g>
</g>
<g id="XMLID_18_">
	<g id="XMLID_19_">
		<path id="XMLID_1_" class="st2" d="M78.6,26.8c-0.4-0.4-0.9-0.7-1.5-0.7H47.3l-0.6-2.9c-0.1-0.6-0.5-1.1-1.1-1.4L41.3,20
			c-0.5-0.2-1.1,0-1.3,0.5c-0.2,0.5,0,1.1,0.5,1.3l4.2,1.8L49.3,46c0.2,0.9,1,1.5,1.9,1.5h23c0.5,0,1-0.4,1-1s-0.4-1-1-1H51.3
			l-0.5-2.8h23.7c0.9,0,1.7-0.6,1.9-1.5l2.7-13C79.1,27.8,78.9,27.2,78.6,26.8z M74.4,41H50.3l-2.7-13h29.4L74.4,41z"/>
	</g>
</g>
</svg>
