<?xml version="1.0" encoding="utf-8"?>
<!-- Generator: Adobe Illustrator 19.0.0, SVG Export Plug-In . SVG Version: 6.00 Build 0)  -->
<svg version="1.1" id="Capa_1" xmlns="http://www.w3.org/2000/svg" xmlns:xlink="http://www.w3.org/1999/xlink" x="0px" y="0px"
	 viewBox="377.9 -9.9 70 70" style="enable-background:new 377.9 -9.9 70 70;" xml:space="preserve">
<style type="text/css">
	.st0{fill:#2668AD;}
</style>
<g>
	<g>
		<path class="st0" d="M430.3,32.3c-1.2-1.3-2.7-2-4.3-2c-1.6,0-3.1,0.7-4.3,2l-4,4c-0.3-0.2-0.7-0.3-1-0.5
			c-0.5-0.2-0.9-0.4-1.3-0.7c-3.8-2.4-7.2-5.5-10.4-9.5c-1.6-2-2.6-3.7-3.4-5.4c1-1,2-1.9,2.9-2.9c0.4-0.4,0.7-0.7,1.1-1.1
			c2.7-2.7,2.7-6.1,0-8.8L402.1,4c-0.4-0.4-0.8-0.8-1.2-1.2c-0.8-0.8-1.6-1.6-2.4-2.4c-1.2-1.2-2.7-1.9-4.2-1.9s-3,0.6-4.3,1.9
			c0,0,0,0,0,0l-4.3,4.3c-1.6,1.6-2.5,3.6-2.8,5.9c-0.3,3.7,0.8,7.1,1.6,9.4c2.1,5.5,5.1,10.7,9.7,16.2c5.6,6.6,12.2,11.9,19.9,15.6
			c2.9,1.4,6.8,3,11.2,3.3c0.3,0,0.5,0,0.8,0c2.9,0,5.4-1.1,7.3-3.1c0,0,0,0,0.1-0.1c0.7-0.8,1.4-1.5,2.2-2.3
			c0.5-0.5,1.1-1.1,1.6-1.6c1.3-1.3,1.9-2.8,1.9-4.4c0-1.6-0.7-3.1-2-4.3L430.3,32.3z M434.8,45.7C434.8,45.7,434.8,45.7,434.8,45.7
			c-0.5,0.5-1,1-1.5,1.5c-0.8,0.8-1.7,1.6-2.4,2.5c-1.3,1.4-2.8,2-4.8,2c-0.2,0-0.4,0-0.6,0c-3.8-0.2-7.3-1.7-9.9-3
			c-7.2-3.5-13.5-8.4-18.7-14.7c-4.3-5.2-7.2-10-9.1-15.2c-1.2-3.2-1.6-5.6-1.4-7.9c0.1-1.5,0.7-2.7,1.7-3.8l4.3-4.3
			c0.6-0.6,1.3-0.9,1.9-0.9c0.8,0,1.4,0.5,1.9,0.9c0,0,0,0,0,0c0.8,0.7,1.5,1.5,2.3,2.3c0.4,0.4,0.8,0.8,1.2,1.2l3.5,3.5
			c1.3,1.3,1.3,2.6,0,3.9c-0.4,0.4-0.7,0.7-1.1,1.1C401,16,400,17,398.9,18c0,0-0.1,0-0.1,0.1c-1.1,1.1-0.9,2.2-0.7,2.9
			c0,0,0,0.1,0,0.1c0.9,2.2,2.2,4.2,4.1,6.7l0,0c3.5,4.3,7.2,7.7,11.3,10.2c0.5,0.3,1.1,0.6,1.6,0.8c0.5,0.2,0.9,0.4,1.3,0.7
			c0.1,0,0.1,0.1,0.2,0.1c0.4,0.2,0.8,0.3,1.3,0.3c1.1,0,1.7-0.7,1.9-0.9l4.3-4.3c0.4-0.4,1.1-1,1.9-1c0.8,0,1.4,0.5,1.8,0.9
			c0,0,0,0,0,0l7,7C436.1,43,436.1,44.3,434.8,45.7z"/>
		<path class="st0" d="M415.3,9.4c3.3,0.6,6.3,2.1,8.7,4.5s4,5.4,4.5,8.7c0.1,0.8,0.9,1.4,1.7,1.4c0.1,0,0.2,0,0.3,0
			c0.9-0.2,1.6-1,1.4-2c-0.7-4-2.6-7.7-5.5-10.6s-6.6-4.8-10.6-5.5c-0.9-0.2-1.8,0.5-2,1.4C413.7,8.3,414.4,9.2,415.3,9.4z"/>
		<path class="st0" d="M442.8,21.6c-1.1-6.6-4.2-12.6-9-17.4c-4.8-4.8-10.8-7.9-17.4-9c-0.9-0.2-1.8,0.5-2,1.4
			c-0.2,0.9,0.5,1.8,1.4,2c5.9,1,11.3,3.8,15.6,8.1c4.3,4.3,7.1,9.7,8.1,15.6c0.1,0.8,0.9,1.4,1.7,1.4c0.1,0,0.2,0,0.3,0
			C442.4,23.4,443,22.5,442.8,21.6z"/>
	</g>
</g>
</svg>
