<?xml version="1.0" encoding="utf-8"?>
<!-- Generator: Adobe Illustrator 19.0.0, SVG Export Plug-In . SVG Version: 6.00 Build 0)  -->
<svg version="1.1" id="Capa_1" xmlns="http://www.w3.org/2000/svg" xmlns:xlink="http://www.w3.org/1999/xlink" x="0px" y="0px"
	 viewBox="377.9 -9.9 70 70" style="enable-background:new 377.9 -9.9 70 70;" xml:space="preserve">
<style type="text/css">
	.st0{fill:#2668AD;}
</style>
<g>
	<g>
		<path class="st0" d="M437.2,22.8v-3.6c0-6.5-2.5-12.6-7.1-17.2c-2.3-2.3-4.9-4-7.8-5.2v-1.1c0-0.7-0.5-1.2-1.2-1.2h-16.4
			c-0.7,0-1.2,0.5-1.2,1.2v1.1c-4.2,1.8-7.8,4.7-10.5,8.5c-2.9,4.1-4.4,8.9-4.4,13.9v3.6c-3.1,0.8-5.4,3.6-5.4,6.9v7.4
			c0,3.9,3.2,7.1,7.1,7.1h1c0.6,1,1.6,1.6,2.8,1.6c1.8,0,3.2-1.5,3.2-3.2V24.2c0-0.9-0.3-1.7-1-2.3c-0.6-0.6-1.4-0.9-2.3-0.9
			c-1.2,0-2.2,0.6-2.8,1.6H391v-3.4c0-4.5,1.4-8.9,4-12.6c2.3-3.2,5.4-5.8,8.9-7.4c0.6,1.1,1.7,1.8,3.1,1.8h11.9
			c1.3,0,2.5-0.7,3.1-1.8c2.4,1.1,4.6,2.6,6.5,4.5c4.1,4.1,6.4,9.6,6.4,15.5v3.4h-0.4c-0.6-1-1.6-1.6-2.8-1.6
			c-0.9,0-1.7,0.3-2.3,0.9c-0.6,0.6-0.9,1.4-0.9,2.3v18.4c0,1.2,0.6,2.2,1.5,2.8c-1.8,2.7-4.8,4.6-8,4.9c-0.2-0.7-0.6-1.3-1.1-1.8
			c-0.8-0.8-1.9-1.3-3-1.3h-2.2c-2.4,0-4.3,1.9-4.3,4.3c0,1.1,0.4,2.2,1.2,3c0.8,0.8,1.9,1.3,3,1.3h2.2c2,0,3.6-1.3,4.1-3.1
			c4.4-0.4,8.5-3,10.6-6.9c0.8-0.2,1.5-0.8,1.9-1.5h1c3.9,0,7.1-3.2,7.1-7.1v-7.4C442.6,26.4,440.3,23.5,437.2,22.8z M393.3,24.2
			L393.3,24.2c0-0.1,0-0.1,0-0.2c0.1-0.4,0.4-0.7,0.8-0.7c0.2,0,0.4,0.1,0.6,0.2c0.2,0.2,0.2,0.4,0.2,0.6v18.4
			c0,0.5-0.4,0.9-0.9,0.9c-0.4,0-0.8-0.3-0.8-0.7c0-0.1,0-0.1,0-0.2L393.3,24.2L393.3,24.2z M390.9,41.9h-0.6
			c-2.6,0-4.8-2.1-4.8-4.8v-7.4c0-2.6,2.1-4.8,4.8-4.8h0.6V41.9z M419.9-2.4c0,0.6-0.5,1.1-1.1,1.1h-11.9c-0.6,0-1.1-0.5-1.1-1.1
			v-0.7h14.1V-2.4z M415.5,53.4c-0.5,0-0.9-0.2-1.3-0.5c-0.4-0.4-0.5-0.8-0.5-1.3c0-1,0.8-1.8,1.8-1.9V53.4L415.5,53.4z M417.9,53.4
			v-3.7c0.4,0,0.9,0.2,1.2,0.5c0.4,0.4,0.5,0.8,0.5,1.3C419.7,52.5,418.9,53.3,417.9,53.4z M432.5,42.6L432.5,42.6
			c0,0.1,0,0.1,0,0.2c-0.1,0.4-0.4,0.7-0.8,0.7c-0.5,0-0.9-0.4-0.9-0.9V24.2c0-0.2,0.1-0.4,0.2-0.6c0.2-0.2,0.4-0.3,0.6-0.3
			c0.4,0,0.8,0.3,0.8,0.7c0,0.1,0,0.1,0,0.2L432.5,42.6L432.5,42.6z M440.2,37.1c0,2.6-2.1,4.8-4.8,4.8h-0.6V25h0.6
			c2.6,0,4.8,2.1,4.8,4.8V37.1z"/>
	</g>
</g>
</svg>
