<?xml version="1.0" encoding="utf-8"?>
<!-- Generator: Adobe Illustrator 22.0.1, SVG Export Plug-In . SVG Version: 6.00 Build 0)  -->
<svg version="1.1" id="Capa_1" xmlns="http://www.w3.org/2000/svg" xmlns:xlink="http://www.w3.org/1999/xlink" x="0px" y="0px"
	 viewBox="0 0 480 480" style="enable-background:new 0 0 480 480;" xml:space="preserve">
<style type="text/css">
	.st0{fill:#337AB7;}
</style>
<g>
	<g>
		<path class="st0" d="M472,146.6h-68.7v-24c0-9.1-7.4-16.6-16.6-16.6H148c-9.1,0-16.6,7.4-16.6,16.6v49.9H67c-2.9,0-5.5,1.5-7,4
			l-32.5,56.7H8c-4.4,0-8,3.6-8,8v89.6c0,4.4,3.6,8,8,8h23.4c4.5,23.4,27,38.8,50.4,34.3c17.4-3.3,31-16.9,34.3-34.3h23.4
			c1.2,0,2.4-0.3,3.4-0.9c1.6,0.6,3.3,0.9,5,0.9h104.6c4.5,23.4,27,38.8,50.4,34.3c17.4-3.3,31-16.9,34.3-34.3h49.4
			c9.1,0,16.6-7.4,16.6-16.6v-73H455c4.4,0,8-3.6,8-8s-3.6-8-8-8h-51.7v-27.4h9c4.4,0,8-3.6,8-8s-3.6-8-8-8h-9v-27.3H472
			c4.4,0,8-3.6,8-8S476.4,146.6,472,146.6z M71.6,188.9h59.8v44.4H46L71.6,188.9z M73.8,358C73.7,358,73.7,358,73.8,358L73.8,358
			c-15,0-27.2-12.2-27.2-27.2s12.2-27.2,27.2-27.2s27.2,12.2,27.2,27.2C101,345.8,88.8,358,73.8,358z M116.1,322.8
			c-4.5-23.4-27-38.8-50.4-34.3c-17.4,3.3-31,16.9-34.3,34.3H16v-73.5h115.4v73.5H116.1z M295,358C295,358,295,358,295,358L295,358
			c-15,0-27.2-12.2-27.2-27.2s12.2-27.2,27.2-27.2s27.2,12.2,27.2,27.2C322.2,345.8,310.1,358,295,358z M387.4,146.9h-38.2
			c-4.4,0-8,3.6-8,8s3.6,8,8,8h38.1v27h-97.8c-4.4,0-8,3.6-8,8s3.6,8,8,8H387v27.4h-55c-4.4,0-8,3.6-8,8c0,4.4,3.6,8,8,8h54.9v73.5
			h-49.5c-4.5-23.4-27-38.8-50.4-34.3c-17.4,3.3-31,16.9-34.3,34.3l-105.1-0.5l0.6-200l239.3,0.6V146.9z"/>
	</g>
</g>
</svg>
