<?xml version="1.0" encoding="utf-8"?>
<!-- Generator: Adobe Illustrator 19.0.0, SVG Export Plug-In . SVG Version: 6.00 Build 0)  -->
<svg version="1.1" id="Capa_1" xmlns="http://www.w3.org/2000/svg" xmlns:xlink="http://www.w3.org/1999/xlink" x="0px" y="0px"
	 viewBox="377.9 -9.9 70 70" style="enable-background:new 377.9 -9.9 70 70;" xml:space="preserve">
<style type="text/css">
	.st0{fill:#2668AD;}
</style>
<path class="st0" d="M444.4,3.9h-3.1V3.4c0-0.8-0.6-1.4-1.4-1.4h-7c-0.8,0-1.4,0.6-1.4,1.4v0.5h-11.1l-2.9-7.3l0.3-0.1
	c0.7-0.3,1-1.1,0.8-1.8c-0.3-0.7-1.1-1-1.8-0.8l-16,6.3c-0.7,0.3-1,1.1-0.8,1.8c0.2,0.5,0.7,0.9,1.3,0.9c0.2,0,0.3,0,0.5-0.1
	l0.3-0.1l0.6,1.4c-12.8,1.5-22.8,12.4-22.8,25.7c0,14.2,11.6,25.8,25.8,25.8c14.2,0,25.8-11.6,25.8-25.8c0-3.4-0.6-6.7-1.9-9.8h1.9
	v0.5c0,0.8,0.6,1.4,1.4,1.4h7c0.8,0,1.4-0.6,1.4-1.4v-0.5h3.1c0.8,0,1.4-0.6,1.4-1.4V5.2C445.8,4.5,445.1,3.9,444.4,3.9z M404.7,1.6
	l10.4-4.1l2.5,6.3h-11.9c0,0-0.1,0-0.1,0L404.7,1.6z M405.8,17.2L405.8,17.2C405.8,17.2,405.8,17.2,405.8,17.2
	c-6.9,0-12.5,5.6-12.5,12.5s5.6,12.5,12.5,12.5c6.9,0,12.5-5.6,12.5-12.5c0-4-1.8-7.5-4.7-9.8h13.2c1.4,3.1,2.2,6.3,2.2,9.8
	c0,12.7-10.4,23.1-23.1,23.1s-23.1-10.4-23.1-23.1S393,6.6,405.8,6.6h25.8v10.6L405.8,17.2z M408.7,29.7c0,1.6-1.3,2.9-2.9,2.9
	c-1.6,0-2.9-1.3-2.9-2.9c0-1.6,1.3-2.9,2.9-2.9C407.4,26.8,408.7,28.1,408.7,29.7z M407.1,24.2V20c0.8,0.1,1.6,0.3,2.3,0.6l-2.1,3.7
	C407.3,24.3,407.2,24.2,407.1,24.2z M404.4,24.2c-0.1,0-0.1,0-0.2,0.1l-2.1-3.7c0.7-0.3,1.5-0.5,2.3-0.6L404.4,24.2L404.4,24.2z
	 M399.8,22l2.1,3.7c0,0-0.1,0.1-0.1,0.1l-3.7-2.1C398.6,23,399.1,22.5,399.8,22z M396.7,26l3.7,2.1c0,0.1,0,0.1-0.1,0.2h-4.2
	C396.2,27.5,396.4,26.8,396.7,26z M400.3,31c0,0.1,0,0.1,0.1,0.2l-3.7,2.1c-0.3-0.7-0.5-1.5-0.6-2.3H400.3z M401.7,33.6
	c0,0,0.1,0.1,0.1,0.1l-2.1,3.7c-0.6-0.5-1.2-1.1-1.7-1.7L401.7,33.6z M404.2,35.1c0.1,0,0.1,0,0.2,0.1v4.2c-0.8-0.1-1.6-0.3-2.3-0.6
	L404.2,35.1z M407.1,35.1c0.1,0,0.1,0,0.2-0.1l2.1,3.7c-0.7,0.3-1.5,0.5-2.3,0.6V35.1L407.1,35.1z M411.8,37.4l-2.1-3.7
	c0,0,0.1-0.1,0.1-0.1l3.7,2.1C413,36.3,412.4,36.9,411.8,37.4z M414.8,33.3l-3.7-2.1c0-0.1,0-0.1,0.1-0.2h4.2
	C415.3,31.8,415.1,32.6,414.8,33.3z M411.2,28.3c0-0.1,0-0.1-0.1-0.2l3.7-2.1c0.3,0.7,0.5,1.5,0.6,2.3H411.2z M409.8,25.8
	c0,0-0.1-0.1-0.1-0.1l2.1-3.7c0.6,0.5,1.2,1.1,1.7,1.7L409.8,25.8z M438.6,19h-4.3V4.7h4.3V19z M443,17.2h-1.7V6.6h1.7V17.2z"/>
</svg>
