<?xml version="1.0" encoding="utf-8"?>
<!-- Generator: Adobe Illustrator 19.0.0, SVG Export Plug-In . SVG Version: 6.00 Build 0)  -->
<svg version="1.1" id="Capa_1" xmlns="http://www.w3.org/2000/svg" xmlns:xlink="http://www.w3.org/1999/xlink" x="0px" y="0px"
	 viewBox="424.6 12.4 25 25" style="enable-background:new 424.6 12.4 25 25;" xml:space="preserve">
<style type="text/css">
	.st0{fill:#808080;}
</style>
<g>
	<g>
		<path class="st0" d="M437.1,19.1l-8.6,7.1c0,0,0,0,0,0c0,0,0,0,0,0v7.2c0,0.3,0.1,0.5,0.3,0.7c0.2,0.2,0.4,0.3,0.7,0.3h5.7v-5.7
			h3.8v5.7h5.7c0.3,0,0.5-0.1,0.7-0.3c0.2-0.2,0.3-0.4,0.3-0.7v-7.2c0,0,0-0.1,0-0.1L437.1,19.1z"/>
		<path class="st0" d="M449,24.6l-3.3-2.7v-6.1c0-0.1,0-0.3-0.1-0.3c-0.1-0.1-0.2-0.1-0.3-0.1h-2.9c-0.1,0-0.3,0-0.3,0.1
			c-0.1,0.1-0.1,0.2-0.1,0.3v2.9l-3.7-3.1c-0.3-0.3-0.7-0.4-1.1-0.4c-0.4,0-0.8,0.1-1.1,0.4l-10.8,9c-0.1,0.1-0.2,0.2-0.2,0.3
			c0,0.1,0,0.3,0.1,0.4l0.9,1.1c0.1,0.1,0.2,0.1,0.3,0.2c0.1,0,0.2,0,0.4-0.1l10.4-8.6l10.4,8.6c0.1,0.1,0.2,0.1,0.3,0.1h0
			c0.1,0,0.2-0.1,0.3-0.2l0.9-1.1c0.1-0.1,0.1-0.2,0.1-0.4C449.2,24.8,449.1,24.7,449,24.6z"/>
	</g>
</g>
</svg>
