<?xml version="1.0" encoding="utf-8"?>
<!-- Generator: Adobe Illustrator 19.0.0, SVG Export Plug-In . SVG Version: 6.00 Build 0)  -->
<svg version="1.1" id="Capa_1" xmlns="http://www.w3.org/2000/svg" xmlns:xlink="http://www.w3.org/1999/xlink" x="0px" y="0px"
	 viewBox="377.9 -9.9 70 70" style="enable-background:new 377.9 -9.9 70 70;" xml:space="preserve">
<style type="text/css">
	.st0{fill:#2668AD;}
</style>
<g id="XMLID_56_">
	<g id="XMLID_57_">
		<path id="XMLID_58_" class="st0" d="M439.9-2.7h-53c-2.8,0-5.2,2.3-5.2,5.2v31c0,2.8,2.3,5.2,5.2,5.2h3v12.7
			c0,0.6,0.4,1.1,0.9,1.4c0.2,0.1,0.4,0.1,0.6,0.1c0.4,0,0.8-0.1,1-0.4l13.8-13.8h33.7c2.8,0,5.2-2.3,5.2-5.2v-31
			C445.1-0.4,442.7-2.7,439.9-2.7z M439.9,35.7h-34.3c-0.4,0-0.7,0.1-1,0.4c0,0,0,0,0,0c0,0,0,0-0.1,0l-11.7,11.7V37.1
			c0-0.1,0-0.1,0-0.1c-0.1-0.7-0.7-1.3-1.5-1.3h-4.5c-1.2,0-2.2-1-2.2-2.2v-31c0-1.2,1-2.2,2.2-2.2h53c1.2,0,2.2,1,2.2,2.2v31l0,0
			C442.1,34.7,441.1,35.7,439.9,35.7z"/>
	</g>
</g>
<g id="XMLID_53_">
	<g id="XMLID_54_">
		<path id="XMLID_34_" class="st0" d="M403.3,8.1h-8.6c-0.8,0-1.5,0.7-1.5,1.5c0,0.8,0.7,1.5,1.5,1.5h8.6c0.8,0,1.5-0.7,1.5-1.5
			C404.7,8.7,404.1,8.1,403.3,8.1z"/>
	</g>
</g>
<g id="XMLID_50_">
	<g id="XMLID_51_">
		<path id="XMLID_33_" class="st0" d="M418.6,16.5h-23.9c-0.8,0-1.5,0.7-1.5,1.5c0,0.8,0.7,1.5,1.5,1.5h23.9c0.8,0,1.5-0.7,1.5-1.5
			C420,17.1,419.4,16.5,418.6,16.5z"/>
	</g>
</g>
<g id="XMLID_47_">
	<g id="XMLID_48_">
		<path id="XMLID_32_" class="st0" d="M432.1,8.1h-20.3c-0.8,0-1.5,0.7-1.5,1.5c0,0.8,0.7,1.5,1.5,1.5h20.3c0.8,0,1.5-0.7,1.5-1.5
			C433.6,8.7,432.9,8.1,432.1,8.1z"/>
	</g>
</g>
<g id="XMLID_44_">
	<g id="XMLID_45_">
		<path id="XMLID_31_" class="st0" d="M432.1,16.5h-5.3c-0.8,0-1.5,0.7-1.5,1.5c0,0.8,0.7,1.5,1.5,1.5h5.3c0.8,0,1.5-0.7,1.5-1.5
			S432.9,16.5,432.1,16.5z"/>
	</g>
</g>
<g id="XMLID_41_">
	<g id="XMLID_42_">
		<path id="XMLID_30_" class="st0" d="M408,24.9h-13.3c-0.8,0-1.5,0.7-1.5,1.5c0,0.8,0.7,1.5,1.5,1.5H408c0.8,0,1.5-0.7,1.5-1.5
			C409.5,25.6,408.8,24.9,408,24.9z"/>
	</g>
</g>
<g id="XMLID_38_">
	<g id="XMLID_39_">
		<path id="XMLID_20_" class="st0" d="M432.1,24.9h-16.3c-0.8,0-1.5,0.7-1.5,1.5c0,0.8,0.7,1.5,1.5,1.5h16.3c0.8,0,1.5-0.7,1.5-1.5
			C433.6,25.6,432.9,24.9,432.1,24.9z"/>
	</g>
</g>
</svg>
