<?xml version="1.0" encoding="utf-8"?>
<!-- Generator: Adobe Illustrator 19.0.0, SVG Export Plug-In . SVG Version: 6.00 Build 0)  -->
<svg version="1.1" id="Layer_1" xmlns="http://www.w3.org/2000/svg" xmlns:xlink="http://www.w3.org/1999/xlink" x="0px" y="0px"
	 viewBox="-495 -118.7 426.7 426.7" style="enable-background:new -495 -118.7 426.7 426.7;" xml:space="preserve">
<style type="text/css">
	.st0{fill:#ED0F0F;}
</style>
<g>
	<g>
		<polygon class="st0" points="-191.9,35.1 -222.1,4.9 -281.7,64.6 -341.2,4.9 -371.5,35.1 -311.7,94.7 -371.5,154.2 -341.2,184.5 
			-281.7,124.7 -222.1,184.5 -191.9,154.2 -251.6,94.7 		"/>
	</g>
</g>
<g>
	<g>
		<path class="st0" d="M-281.7-118.7C-399.5-118.7-495-23.2-495,94.7S-399.5,308-281.7,308S-68.3,212.5-68.3,94.7
			S-163.8-118.7-281.7-118.7z M-281.7,269.4c-96.5,0-174.7-78.2-174.7-174.7s78.2-174.7,174.7-174.7
			c96.4,0.1,174.6,78.3,174.7,174.7C-106.9,191.2-185.2,269.4-281.7,269.4z"/>
	</g>
</g>
</svg>
