<?xml version="1.0" encoding="utf-8"?>
<!-- Generator: Adobe Illustrator 19.0.0, SVG Export Plug-In . SVG Version: 6.00 Build 0)  -->
<svg version="1.1" id="Capa_1" xmlns="http://www.w3.org/2000/svg" xmlns:xlink="http://www.w3.org/1999/xlink" x="0px" y="0px"
	 viewBox="377.9 -9.9 70 70" style="enable-background:new 377.9 -9.9 70 70;" xml:space="preserve">
<style type="text/css">
	.st0{fill:#2668AD;}
</style>
<path class="st0" d="M430,12.7C430,12.7,430,12.7,430,12.7C430,12.7,430,12.7,430,12.7c0-0.1,0-0.1,0-0.1c0,0,0,0,0,0c0,0,0,0,0,0
	c0,0,0,0,0-0.1c0,0,0,0,0,0c0,0,0,0,0-0.1c0,0,0,0,0,0c0-9.7-7.9-17.6-17.6-17.6s-17.6,7.9-17.6,17.6c0,0,0,0,0,0c0,0,0,0,0,0.1
	c0,0,0,0,0,0c0,0,0,0,0,0.1c0,0,0,0,0,0c0,0,0,0,0,0c0,0,0,0,0,0c0,0,0,0,0,0c0,0,0,0,0,0c0,0,0,0,0,0c0,0,0,0,0,0.1c0,0,0,0,0,0
	l11.6,19.3h-3.5c-1.1,0-2,0.9-2,2v18.7c0,1.1,0.9,2,2,2h18.7c1.1,0,2-0.9,2-2V34.1c0-1.1-0.9-2-2-2h-3.5l11.6-19.3
	C429.9,12.8,430,12.8,430,12.7C430,12.8,430,12.8,430,12.7C430,12.8,430,12.8,430,12.7L430,12.7z M412.5-3.3
	c7.8,0,14.2,5.7,15.4,13.1c-0.8-0.3-1.8-0.5-3-0.5c-1.7,0-3.2,0.5-4.2,1.2c-0.9-0.7-2.4-1.2-4.2-1.2c-1.7,0-3.2,0.5-4.2,1.2
	c-0.9-0.7-2.4-1.2-4.2-1.2s-3.2,0.5-4.2,1.2c-0.9-0.7-2.4-1.2-4.2-1.2c-1.1,0-2.1,0.2-3,0.5C398.3,2.4,404.7-3.3,412.5-3.3z
	 M403.1,35.4l2.2,2.2v11.6l-2.2,2.2V35.4z M417.8,44.6h-10.5v-2.2h10.5V44.6z M407.3,48.7v-2.2h10.5v2.2H407.3z M417.8,38.2v2.2
	h-10.5v-2.2H417.8z M406.7,50.7h11.6l2.2,2.2h-16.1L406.7,50.7z M419.7,49.3V37.7l2.2-2.2v16.1L419.7,49.3z M418.3,36.3h-11.6
	l-2.2-2.2h16.1L418.3,36.3z M411.5,32.1h-0.4l-6-19.9c0.2-0.3,1.2-1,3.2-1c2.1,0,3.2,0.8,3.2,1.1V32.1L411.5,32.1z M413.5,32.1V12.3
	c0-0.3,1.1-1.1,3.2-1.1c1.9,0,3,0.7,3.2,1l-6,19.9H413.5L413.5,32.1z M396.9,12.2c0.3-0.4,1.3-1,3.1-1c2.1,0,3.2,0.8,3.2,1.1
	c0,0,0,0,0,0c0,0,0,0.1,0,0.1c0,0,0,0,0,0c0,0,0,0,0,0c0,0,0,0.1,0,0.1c0,0,0,0,0,0l0,0c0,0,0,0,0,0l5.8,19.5h-0.2
	C408.9,32.1,396.9,12.2,396.9,12.2z M415.9,32.1l5.8-19.5c0,0,0,0,0,0l0,0c0,0,0,0,0,0c0,0,0,0,0-0.1c0,0,0,0,0,0c0,0,0,0,0,0
	c0,0,0-0.1,0-0.1c0,0,0,0,0,0c0-0.3,1.1-1.1,3.2-1.1c1.8,0,2.8,0.6,3.1,1l-12,19.9H415.9L415.9,32.1z"/>
</svg>
