<?xml version="1.0" encoding="utf-8"?>
<!-- Generator: Adobe Illustrator 22.0.1, SVG Export Plug-In . SVG Version: 6.00 Build 0)  -->
<svg version="1.1" id="Capa_1" xmlns="http://www.w3.org/2000/svg" xmlns:xlink="http://www.w3.org/1999/xlink" x="0px" y="0px"
	 viewBox="0 0 507.9 507.9" style="enable-background:new 0 0 507.9 507.9;" xml:space="preserve">
<style type="text/css">
	.st0{fill:#337AB7;}
</style>
<g>
	<g>
		<g>
			<rect x="158" y="6.6" transform="matrix(0.7433 -0.669 0.669 0.7433 29.5542 122.2226)" class="st0" width="32" height="32"/>
			
				<rect x="110.4" y="49.4" transform="matrix(0.7433 -0.669 0.669 0.7433 -11.3101 101.3807)" class="st0" width="32" height="32"/>
			<polygon class="st0" points="101.5,109.4 80.1,85.6 2,155.9 175.2,311.8 196.6,288 49.8,155.9 			"/>
			<path class="st0" d="M329.9,59.9h-64V8.7L97.6,155.9l168.3,147.2v-50.6c117.1,8.5,207.9,106,208,223.4v32h32v-272
				C505.8,138.7,427.1,60,329.9,59.9z M473.9,352.1c-45.1-81.5-130.9-132.1-224-132.2h-16v12.8l-87.7-76.8l87.7-76.8v12.8h96
				c79.5,0.1,143.9,64.5,144,144V352.1z"/>
		</g>
	</g>
</g>
</svg>
