<?xml version="1.0" encoding="utf-8"?>
<!-- Generator: Adobe Illustrator 19.0.0, SVG Export Plug-In . SVG Version: 6.00 Build 0)  -->
<svg xmlns="http://www.w3.org/2000/svg" xmlns:xlink="http://www.w3.org/1999/xlink" version="1.1" id="Capa_1" x="0px" y="0px" viewBox="-101 -272.9 407.5 1253.1" style="enable-background:new -101 -272.9 407.5 1253.1;" xml:space="preserve">
<style type="text/css">
	.st0{fill:#FFFFFF;}
	.st1{fill:#6EC7B9;}
</style>
<g>
	<g>
		<path d="M73.1,38.2c-18.4,0-33.4,15-33.4,33.4c0,18.4,15,33.4,33.4,33.4s33.4-15,33.4-33.4C106.6,53.2,91.6,38.2,73.1,38.2z     M73.1,86.4c-8.1,0-14.8-6.6-14.8-14.8c0-8.1,6.6-14.8,14.8-14.8s14.8,6.6,14.8,14.8C87.9,79.8,81.3,86.4,73.1,86.4z"/>
	</g>
</g>
<g>
	<g>
		<path d="M190.4,38.2c-18.4,0-33.4,15-33.4,33.4c0,18.4,15,33.4,33.4,33.4s33.4-15,33.4-33.4C223.9,53.2,208.9,38.2,190.4,38.2z     M190.4,86.4c-8.1,0-14.8-6.6-14.8-14.8c0-8.1,6.6-14.8,14.8-14.8c8.1,0,14.8,6.6,14.8,14.8C205.2,79.8,198.6,86.4,190.4,86.4z"/>
	</g>
</g>
<g>
	<g>
		<path d="M198.7-137.9H64.9c-5.2,0-9.3,4.2-9.3,9.3c0,5.2,4.2,9.3,9.3,9.3h133.8c5.2,0,9.3-4.2,9.3-9.3    C208-133.7,203.8-137.9,198.7-137.9z"/>
	</g>
</g>
<g>
	<g>
		<path d="M191.4-89.4H72.2c-5.2,0-9.3,4.2-9.3,9.3c0,5.2,4.2,9.3,9.3,9.3h119.2c5.2,0,9.3-4.2,9.3-9.3    C200.7-85.2,196.6-89.4,191.4-89.4z"/>
	</g>
</g>
<g>
	<g>
		<path d="M289.7-179.5c-3.6-4.4-8.8-6.9-14.5-6.9H-15.5l-5.9-28.5c-1.2-5.9-5.3-10.9-10.9-13.4l-41-17.8    c-4.7-2.1-10.2,0.1-12.3,4.8c-2.1,4.7,0.1,10.2,4.8,12.3l41,17.8L5.5,8.2c1.8,8.6,9.5,14.9,18.3,14.9h223.7c5.2,0,9.3-4.2,9.3-9.3    c0-5.2-4.2-9.3-9.3-9.3H23.8l-5.5-26.7h230.9c8.8,0,16.5-6.3,18.3-14.9l26.1-126.8C294.7-169.4,293.3-175.1,289.7-179.5z     M249.2-40.9H14.4l-26.1-126.8l287,0L249.2-40.9z"/>
	</g>
</g>
<g>
	<g>
		<path class="st0" d="M73.1,438.2c-18.4,0-33.4,15-33.4,33.4s15,33.4,33.4,33.4s33.4-15,33.4-33.4    C106.6,453.2,91.6,438.2,73.1,438.2z M73.1,486.4c-8.1,0-14.8-6.6-14.8-14.8c0-8.1,6.6-14.8,14.8-14.8s14.8,6.6,14.8,14.8    C87.9,479.8,81.3,486.4,73.1,486.4z"/>
	</g>
</g>
<g>
	<g>
		<path class="st0" d="M190.4,438.2c-18.4,0-33.4,15-33.4,33.4s15,33.4,33.4,33.4s33.4-15,33.4-33.4    C223.9,453.2,208.9,438.2,190.4,438.2z M190.4,486.4c-8.1,0-14.8-6.6-14.8-14.8c0-8.1,6.6-14.8,14.8-14.8    c8.1,0,14.8,6.6,14.8,14.8C205.2,479.8,198.6,486.4,190.4,486.4z"/>
	</g>
</g>
<g>
	<g>
		<path class="st0" d="M198.7,262.1H64.9c-5.2,0-9.3,4.2-9.3,9.3c0,5.2,4.2,9.3,9.3,9.3h133.8c5.2,0,9.3-4.2,9.3-9.3    C208,266.3,203.8,262.1,198.7,262.1z"/>
	</g>
</g>
<g>
	<g>
		<path class="st0" d="M191.4,310.6H72.2c-5.2,0-9.3,4.2-9.3,9.3c0,5.2,4.2,9.3,9.3,9.3h119.2c5.2,0,9.3-4.2,9.3-9.3    C200.7,314.8,196.6,310.6,191.4,310.6z"/>
	</g>
</g>
<g>
	<g>
		<path class="st0" d="M289.7,220.5c-3.6-4.4-8.8-6.9-14.5-6.9H-15.5l-5.9-28.5c-1.2-5.9-5.3-10.9-10.9-13.4l-41-17.8    c-4.7-2.1-10.2,0.1-12.3,4.8c-2.1,4.7,0.1,10.2,4.8,12.3l41,17.8L5.5,408.2c1.8,8.6,9.5,14.9,18.3,14.9h223.7    c5.2,0,9.3-4.2,9.3-9.3c0-5.2-4.2-9.3-9.3-9.3H23.8l-5.5-26.7h230.9c8.8,0,16.5-6.3,18.3-14.9l26.1-126.8    C294.7,230.6,293.3,224.9,289.7,220.5z M249.2,359.1H14.4l-26.1-126.8l287,0L249.2,359.1z"/>
	</g>
</g>
<g>
	<g>
		<path class="st1" d="M73.1,858.2c-18.4,0-33.4,15-33.4,33.4c0,18.4,15,33.4,33.4,33.4s33.4-15,33.4-33.4    C106.6,873.2,91.6,858.2,73.1,858.2z M73.1,906.4c-8.1,0-14.8-6.6-14.8-14.8c0-8.1,6.6-14.8,14.8-14.8s14.8,6.6,14.8,14.8    C87.9,899.8,81.3,906.4,73.1,906.4z"/>
	</g>
</g>
<g>
	<g>
		<path class="st1" d="M190.4,858.2c-18.4,0-33.4,15-33.4,33.4c0,18.4,15,33.4,33.4,33.4s33.4-15,33.4-33.4    C223.9,873.2,208.9,858.2,190.4,858.2z M190.4,906.4c-8.1,0-14.8-6.6-14.8-14.8c0-8.1,6.6-14.8,14.8-14.8    c8.1,0,14.8,6.6,14.8,14.8C205.2,899.8,198.6,906.4,190.4,906.4z"/>
	</g>
</g>
<g>
	<g>
		<path class="st1" d="M198.7,682.1H64.9c-5.2,0-9.3,4.2-9.3,9.3s4.2,9.3,9.3,9.3h133.8c5.2,0,9.3-4.2,9.3-9.3    C208,686.3,203.8,682.1,198.7,682.1z"/>
	</g>
</g>
<g>
	<g>
		<path class="st1" d="M191.4,730.6H72.2c-5.2,0-9.3,4.2-9.3,9.3c0,5.2,4.2,9.3,9.3,9.3h119.2c5.2,0,9.3-4.2,9.3-9.3    C200.7,734.8,196.6,730.6,191.4,730.6z"/>
	</g>
</g>
<g>
	<g>
		<path class="st1" d="M289.7,640.5c-3.6-4.4-8.8-6.9-14.5-6.9H-15.5l-5.9-28.5c-1.2-5.9-5.3-10.9-10.9-13.4l-41-17.8    c-4.7-2.1-10.2,0.1-12.3,4.8c-2.1,4.7,0.1,10.2,4.8,12.3l41,17.8L5.5,828.2c1.8,8.6,9.5,14.9,18.3,14.9h223.7    c5.2,0,9.3-4.2,9.3-9.3c0-5.2-4.2-9.3-9.3-9.3H23.8l-5.5-26.7h230.9c8.8,0,16.5-6.3,18.3-14.9l26.1-126.8    C294.7,650.6,293.3,644.9,289.7,640.5z M249.2,779.1H14.4l-26.1-126.8l287,0L249.2,779.1z"/>
	</g>
</g>
</svg>
