<?xml version="1.0" encoding="utf-8"?>
<!-- Generator: Adobe Illustrator 19.0.0, SVG Export Plug-In . SVG Version: 6.00 Build 0)  -->
<svg version="1.1" id="Layer_1" xmlns="http://www.w3.org/2000/svg" xmlns:xlink="http://www.w3.org/1999/xlink" x="0px" y="0px"
	 viewBox="0 0 204 85.9" style="enable-background:new 0 0 204 85.9;" xml:space="preserve">
<style type="text/css">
	.st0{fill:#43BDE9;}
	.st1{fill:#FFFFFF;}
</style>
<g id="XMLID_155_">
	<g id="XMLID_156_">
		<path id="XMLID_158_" class="st0" d="M337.2,7.1l10.9,2.9l2.8-10.9l-2.1-0.6L347,5.4C342.4-2,334.2-6.9,324.9-6.9
			c-14.4,0-26,11.6-26,26s11.6,26,26,26c9.6,0,17.9-5.2,22.5-12.9l-2-1c-4.1,7-11.7,11.6-20.4,11.6c-13.1,0-23.7-10.6-23.7-23.7
			s10.6-23.7,23.7-23.7c8.7,0,16.4,4.7,20.5,11.7l-7.6-2L337.2,7.1z"/>
		<polygon id="XMLID_157_" class="st0" points="321.4,1.4 321.4,21.1 334.1,27.3 335.1,25.3 323.6,19.8 323.6,1.4 		"/>
	</g>
</g>
<g id="XMLID_147_">
	<path id="XMLID_152_" class="st0" d="M399.8,39.4L393,22.7c-0.2-0.4-0.7-0.6-1.1-0.4c-0.4,0.2-0.6,0.7-0.4,1.1l6.2,15l-5.7-1.6
		c-0.4-0.1-0.8,0.1-1,0.4l-2.9,5.2l-6.7-16.1c7.7-1.5,13.6-8.3,13.6-16.4c0-9.2-7.5-16.7-16.7-16.7s-16.7,7.5-16.7,16.7
		c0,3.7,1.2,7.2,3.3,10l-8.1,19.6c-0.1,0.3-0.1,0.6,0.1,0.9c0.2,0.2,0.5,0.3,0.8,0.2l6.7-1.9l3.4,6.1c0.1,0.3,0.4,0.4,0.7,0.4
		c0,0,0,0,0,0c0.3,0,0.6-0.2,0.7-0.5l6.4-15.5c0.2-0.4,0-0.9-0.4-1.1c-0.4-0.2-0.9,0-1.1,0.4l-5.8,13.9l-2.9-5.2
		c-0.2-0.3-0.6-0.5-1-0.4l-5.7,1.6l7.1-17.2c3.1,3.3,7.4,5.3,12.2,5.3c0.5,0,1,0,1.5-0.1l7.5,18.1c0.1,0.3,0.4,0.5,0.7,0.5
		c0,0,0,0,0,0c0.3,0,0.6-0.2,0.7-0.4l3.4-6.1l6.7,1.9c0.3,0.1,0.6,0,0.8-0.2S400,39.7,399.8,39.4L399.8,39.4z M363.2,9.8
		c0-8.3,6.8-15.1,15.1-15.1s15.1,6.8,15.1,15.1s-6.8,15.1-15.1,15.1S363.2,18.1,363.2,9.8L363.2,9.8z"/>
	<path id="XMLID_149_" class="st0" d="M387.9,6.7c-0.1-0.3-0.3-0.5-0.7-0.6l-5.6-0.9l-2.6-5c-0.1-0.3-0.4-0.4-0.7-0.4
		c-0.3,0-0.6,0.2-0.7,0.4l-2.6,5l-5.6,0.9c-0.3,0.1-0.6,0.3-0.7,0.6c-0.1,0.3,0,0.6,0.2,0.8l4,4l-0.8,5.6c0,0.3,0.1,0.6,0.3,0.8
		c0.3,0.2,0.6,0.2,0.9,0.1l5.1-2.5l5.1,2.5c0.1,0.1,0.2,0.1,0.4,0.1c0.2,0,0.3-0.1,0.5-0.2c0.3-0.2,0.4-0.5,0.3-0.8l-0.8-5.6l4-4
		C387.9,7.3,388,7,387.9,6.7z M382.3,10.7c-0.2,0.2-0.3,0.4-0.2,0.7l0.7,4.4l-4-2c-0.1-0.1-0.2-0.1-0.4-0.1c-0.1,0-0.3,0-0.4,0.1
		l-4,2l0.7-4.4c0-0.3,0-0.5-0.2-0.7l-3.1-3.2l4.4-0.7c0.3,0,0.5-0.2,0.6-0.4l2.1-4l2.1,4c0.1,0.2,0.3,0.4,0.6,0.4l4.4,0.7
		L382.3,10.7L382.3,10.7z"/>
	<path id="XMLID_148_" class="st0" d="M390.9,10.6c-0.5-0.1-0.9,0.3-0.9,0.7c-0.8,5.8-5.8,10.2-11.6,10.2c-6.5,0-11.7-5.3-11.7-11.7
		S371.8-2,378.3-2c5.9,0,10.9,4.4,11.6,10.2c0.1,0.5,0.5,0.8,0.9,0.7c0.5-0.1,0.8-0.5,0.7-0.9c-0.9-6.6-6.6-11.6-13.3-11.6
		c-7.4,0-13.4,6-13.4,13.4s6,13.4,13.4,13.4c6.7,0,12.4-5,13.3-11.6C391.7,11.1,391.3,10.7,390.9,10.6L390.9,10.6z"/>
</g>
<path id="XMLID_133_" class="st0" d="M440.4,9.4C440.4,9.4,440.4,9.4,440.4,9.4C440.4,9.4,440.4,9.4,440.4,9.4c0-0.1,0-0.1,0-0.1
	c0,0,0,0,0,0c0,0,0,0,0,0c0,0,0,0,0,0c0,0,0,0,0,0c0,0,0,0,0-0.1c0,0,0,0,0,0c0-8.2-6.7-14.9-14.9-14.9c-8.2,0-14.9,6.7-14.9,14.9
	c0,0,0,0,0,0c0,0,0,0,0,0.1c0,0,0,0,0,0c0,0,0,0,0,0c0,0,0,0,0,0c0,0,0,0,0,0c0,0,0,0,0,0c0,0,0,0,0,0c0,0,0,0,0,0c0,0,0,0,0,0
	c0,0,0,0,0,0c0,0,0,0,0,0l9.8,16.3h-2.9c-0.9,0-1.7,0.8-1.7,1.7v15.8c0,0.9,0.8,1.7,1.7,1.7h15.8c0.9,0,1.7-0.8,1.7-1.7V27.6
	c0-0.9-0.8-1.7-1.7-1.7h-2.9L440.4,9.4C440.3,9.5,440.3,9.5,440.4,9.4C440.3,9.5,440.3,9.5,440.4,9.4C440.3,9.5,440.4,9.5,440.4,9.4
	L440.4,9.4z M425.5-4.1c6.6,0,12,4.8,13.1,11.1c-0.7-0.3-1.6-0.5-2.5-0.5c-1.5,0-2.7,0.4-3.5,1c-0.8-0.6-2-1-3.5-1
	c-1.5,0-2.7,0.4-3.5,1c-0.8-0.6-2-1-3.5-1c-1.5,0-2.7,0.4-3.5,1c-0.8-0.6-2-1-3.5-1c-1,0-1.8,0.2-2.5,0.5
	C413.5,0.7,419-4.1,425.5-4.1z M417.6,28.7l1.9,1.9v9.9l-1.9,1.9V28.7z M430,36.4h-8.9v-1.9h8.9V36.4z M421.1,39.9V38h8.9v1.9H421.1
	z M430,31v1.9h-8.9V31H430z M420.6,41.6h9.9l1.9,1.9h-13.6L420.6,41.6z M431.6,40.4v-9.9l1.9-1.9v13.6L431.6,40.4z M430.5,29.4h-9.9
	l-1.9-1.9h13.6L430.5,29.4z M424.7,25.9h-0.3l-5-16.8c0.1-0.3,1-0.9,2.7-0.9c1.8,0,2.7,0.7,2.7,0.9V25.9L424.7,25.9z M426.4,25.9
	V9.1c0-0.2,0.9-0.9,2.7-0.9c1.6,0,2.5,0.6,2.7,0.9l-5,16.8H426.4L426.4,25.9z M412.4,9c0.2-0.3,1.1-0.8,2.6-0.8
	c1.8,0,2.7,0.7,2.7,0.9c0,0,0,0,0,0c0,0,0,0,0,0.1c0,0,0,0,0,0c0,0,0,0,0,0c0,0,0,0,0,0.1c0,0,0,0,0,0l0,0c0,0,0,0,0,0l4.9,16.5
	h-0.2C422.5,25.9,412.4,9,412.4,9z M428.4,25.9l4.9-16.5c0,0,0,0,0,0l0,0c0,0,0,0,0,0c0,0,0,0,0-0.1c0,0,0,0,0,0c0,0,0,0,0,0
	c0,0,0,0,0-0.1c0,0,0,0,0,0c0-0.2,0.9-0.9,2.7-0.9c1.5,0,2.4,0.5,2.6,0.8l-10.1,16.9H428.4L428.4,25.9z"/>
<g id="XMLID_117_">
	<path id="XMLID_128_" class="st0" d="M486.3-2.4h-6.1c-0.3-1-1.3-1.7-2.4-1.7h-2.6c-0.8-1.1-2-1.7-3.4-1.7s-2.6,0.6-3.4,1.7H466
		c-1.1,0-2,0.7-2.4,1.7h-6.1c-1.8,0-3.3,1.5-3.3,3.3v39c0,1.8,1.5,3.3,3.3,3.3h28.9c1.8,0,3.3-1.5,3.3-3.3V1
		C489.7-0.9,488.2-2.4,486.3-2.4L486.3-2.4z M463.6,2.6c0.3,1,1.3,1.7,2.4,1.7h11.9c1.1,0,2-0.7,2.4-1.7h4.5v35.8h-25.6V2.6H463.6
		L463.6,2.6z M466-2.5h3c0.3,0,0.5-0.2,0.7-0.4c0.5-0.8,1.3-1.3,2.2-1.3s1.8,0.5,2.2,1.3c0.1,0.2,0.4,0.4,0.7,0.4h3
		c0.5,0,0.9,0.4,0.9,0.9v3.4c0,0,0,0,0,0c0,0,0,0,0,0c0,0.5-0.4,0.9-0.9,0.9H466c-0.5,0-0.9-0.4-0.9-0.9c0,0,0,0,0,0c0,0,0,0,0,0
		v-3.4C465.1-2.1,465.5-2.5,466-2.5L466-2.5z M488.1,40c0,1-0.8,1.8-1.8,1.8h-28.9c-1,0-1.8-0.8-1.8-1.8V1c0-1,0.8-1.8,1.8-1.8h6V1
		h-5.1c-0.4,0-0.8,0.4-0.8,0.8v37.3c0,0.4,0.4,0.8,0.8,0.8h27.2c0.4,0,0.8-0.4,0.8-0.8V1.8c0-0.4-0.4-0.8-0.8-0.8h-5.1v-1.8h6
		c1,0,1.8,0.8,1.8,1.8V40z"/>
	<path id="XMLID_127_" class="st0" d="M471.9,0.9c0.4,0,0.8-0.4,0.8-0.8v-1.7c0-0.4-0.4-0.8-0.8-0.8s-0.8,0.4-0.8,0.8v1.7
		C471.1,0.6,471.5,0.9,471.9,0.9z"/>
	<path id="XMLID_126_" class="st0" d="M472.7,12h5.1c0.4,0,0.8-0.4,0.8-0.8c0-0.4-0.4-0.8-0.8-0.8h-5.1c-0.4,0-0.8,0.4-0.8,0.8
		C471.9,11.6,472.3,12,472.7,12z"/>
	<path id="XMLID_125_" class="st0" d="M472.7,15.3h8.5c0.4,0,0.8-0.4,0.8-0.8c0-0.4-0.4-0.8-0.8-0.8h-8.5c-0.4,0-0.8,0.4-0.8,0.8
		C471.9,15,472.3,15.3,472.7,15.3z"/>
	<path id="XMLID_124_" class="st0" d="M464.5,15.1c0.2,0.2,0.4,0.2,0.6,0.2s0.4-0.1,0.6-0.2l4.2-4.2c0.3-0.3,0.3-0.8,0-1.1
		c-0.3-0.3-0.8-0.3-1.1,0l-3.7,3.7l-2-2c-0.3-0.3-0.8-0.3-1.1,0c-0.3,0.3-0.3,0.8,0,1.1L464.5,15.1L464.5,15.1z"/>
	<path id="XMLID_123_" class="st0" d="M472.7,20.4h5.1c0.4,0,0.8-0.4,0.8-0.8s-0.4-0.8-0.8-0.8h-5.1c-0.4,0-0.8,0.4-0.8,0.8
		S472.3,20.4,472.7,20.4z"/>
	<path id="XMLID_122_" class="st0" d="M472.7,23.8h8.5c0.4,0,0.8-0.4,0.8-0.8c0-0.4-0.4-0.8-0.8-0.8h-8.5c-0.4,0-0.8,0.4-0.8,0.8
		C471.9,23.5,472.3,23.8,472.7,23.8z"/>
	<path id="XMLID_121_" class="st0" d="M464.5,23.6c0.2,0.2,0.4,0.2,0.6,0.2s0.4-0.1,0.6-0.2l4.2-4.2c0.3-0.3,0.3-0.8,0-1.1
		c-0.3-0.3-0.8-0.3-1.1,0l-3.7,3.7l-2-2c-0.3-0.3-0.8-0.3-1.1,0c-0.3,0.3-0.3,0.8,0,1.1L464.5,23.6L464.5,23.6z"/>
	<path id="XMLID_120_" class="st0" d="M472.7,28.9h5.1c0.4,0,0.8-0.4,0.8-0.8c0-0.4-0.4-0.8-0.8-0.8h-5.1c-0.4,0-0.8,0.4-0.8,0.8
		C471.9,28.6,472.3,28.9,472.7,28.9z"/>
	<path id="XMLID_119_" class="st0" d="M472.7,32.3h8.5c0.4,0,0.8-0.4,0.8-0.8s-0.4-0.8-0.8-0.8h-8.5c-0.4,0-0.8,0.4-0.8,0.8
		S472.3,32.3,472.7,32.3z"/>
	<path id="XMLID_118_" class="st0" d="M464.5,32.1c0.2,0.2,0.4,0.2,0.6,0.2s0.4-0.1,0.6-0.2l4.2-4.2c0.3-0.3,0.3-0.8,0-1.1
		c-0.3-0.3-0.8-0.3-1.1,0l-3.7,3.7l-2-2c-0.3-0.3-0.8-0.3-1.1,0c-0.3,0.3-0.3,0.8,0,1.1L464.5,32.1L464.5,32.1z"/>
</g>
<g id="XMLID_21_">
	<path id="XMLID_25_" class="st0" d="M155.4,21.1v-5.8c0-3.3-2.9-5.9-6.4-5.9c-3.5,0-6.4,2.7-6.4,5.9v5.8H138v13.3v4.1h22.5v-4.1
		V21.1H155.4z M143.6,15.3c0-2.7,2.4-4.9,5.4-4.9s5.4,2.2,5.4,4.9v5.8h-10.8V15.3z M159.5,37.5H139v-2h20.5V37.5z M139,34.4V22.1
		h3.6h12.8h4.1v12.3H139z"/>
	<path id="XMLID_22_" class="st0" d="M149.3,25.2c-1.1,0-2,0.9-2,2v3.1c0,1.1,0.9,2,2,2s2-0.9,2-2v-3.1
		C151.3,26.1,150.4,25.2,149.3,25.2z M150.3,30.3c0,0.6-0.5,1-1,1s-1-0.5-1-1v-3.1c0-0.6,0.5-1,1-1s1,0.5,1,1V30.3z"/>
</g>
<g id="XMLID_196_">
	<g id="XMLID_197_">
		<path id="XMLID_199_" class="st0" d="M26.9,16.8l6.5,1.7l1.6-6.5l-1.2-0.3l-1.1,4.1c-2.7-4.4-7.5-7.3-13-7.3
			c-8.5,0-15.3,6.9-15.3,15.3s6.9,15.3,15.3,15.3c5.6,0,10.6-3.1,13.2-7.6L31.7,31c-2.4,4.1-6.9,6.8-12,6.8c-7.7,0-14-6.3-14-14
			s6.3-14,14-14c5.1,0,9.6,2.8,12.1,6.9l-4.5-1.2L26.9,16.8z"/>
		<polygon id="XMLID_198_" class="st0" points="17.6,13.4 17.6,25 25.1,28.7 25.7,27.5 18.9,24.3 18.9,13.4 		"/>
	</g>
</g>
<g id="XMLID_188_">
	<path id="XMLID_193_" class="st0" d="M70.2,36.7l-4.4-10.6c-0.1-0.3-0.4-0.4-0.7-0.3c-0.3,0.1-0.4,0.4-0.3,0.7l4,9.6l-3.6-1.1
		c-0.2-0.1-0.5,0-0.6,0.3l-1.8,3.3l-4.3-10.3c4.9-0.9,8.6-5.3,8.6-10.5c0-5.9-4.8-10.7-10.7-10.7S45.8,12,45.8,17.9
		c0,2.4,0.8,4.6,2.1,6.4l-5.2,12.5c-0.1,0.2,0,0.4,0.1,0.6c0.1,0.2,0.3,0.2,0.5,0.2l4.3-1.2l2.1,3.9c0.1,0.2,0.3,0.3,0.5,0.3
		c0,0,0,0,0,0c0.2,0,0.4-0.1,0.5-0.3l4.1-9.9c0.1-0.3,0-0.6-0.3-0.7c-0.3-0.1-0.6,0-0.7,0.3l-3.7,8.9l-1.8-3.3
		c-0.1-0.2-0.4-0.3-0.6-0.3l-3.6,1.1l4.5-11c1.9,2.1,4.7,3.4,7.8,3.4c0.3,0,0.6,0,0.9,0l4.8,11.6c0.1,0.2,0.3,0.3,0.5,0.3
		c0,0,0,0,0,0c0.2,0,0.4-0.1,0.5-0.3l2.1-3.9l4.3,1.2c0.2,0.1,0.4,0,0.5-0.2C70.3,37.1,70.3,36.9,70.2,36.7L70.2,36.7z M46.9,17.9
		c0-5.3,4.3-9.6,9.6-9.6s9.6,4.3,9.6,9.6s-4.3,9.6-9.6,9.6S46.9,23.2,46.9,17.9L46.9,17.9z"/>
	<path id="XMLID_190_" class="st0" d="M62.6,15.9c-0.1-0.2-0.2-0.3-0.4-0.4l-3.6-0.6L57,11.7c-0.1-0.2-0.3-0.3-0.5-0.3
		c-0.2,0-0.4,0.1-0.5,0.3l-1.7,3.2l-3.6,0.6c-0.2,0-0.4,0.2-0.4,0.4c-0.1,0.2,0,0.4,0.1,0.5L53,19l-0.5,3.6c0,0.2,0.1,0.4,0.2,0.5
		c0.2,0.1,0.4,0.1,0.5,0l3.2-1.6l3.2,1.6c0.1,0,0.2,0.1,0.2,0.1c0.1,0,0.2,0,0.3-0.1c0.2-0.1,0.2-0.3,0.2-0.5L59.9,19l2.5-2.6
		C62.6,16.3,62.7,16.1,62.6,15.9z M59,18.4c-0.1,0.1-0.2,0.3-0.1,0.4l0.4,2.8l-2.6-1.3c-0.1,0-0.2-0.1-0.2-0.1c-0.1,0-0.2,0-0.2,0.1
		l-2.6,1.3l0.4-2.8c0-0.2,0-0.3-0.1-0.4l-2-2l2.8-0.5c0.2,0,0.3-0.1,0.4-0.3l1.3-2.5l1.3,2.5c0.1,0.1,0.2,0.3,0.4,0.3l2.8,0.5
		L59,18.4L59,18.4z"/>
	<path id="XMLID_189_" class="st0" d="M64.5,18.4c-0.3,0-0.6,0.2-0.6,0.5c-0.5,3.7-3.7,6.5-7.4,6.5c-4.1,0-7.5-3.4-7.5-7.5
		s3.4-7.5,7.5-7.5c3.7,0,6.9,2.8,7.4,6.5c0,0.3,0.3,0.5,0.6,0.5c0.3,0,0.5-0.3,0.5-0.6c-0.6-4.2-4.2-7.4-8.5-7.4
		c-4.7,0-8.6,3.8-8.6,8.6s3.8,8.6,8.6,8.6c4.3,0,7.9-3.2,8.5-7.4C65,18.7,64.8,18.4,64.5,18.4L64.5,18.4z"/>
</g>
<path id="XMLID_174_" class="st0" d="M97.1,17.6C97.1,17.6,97.1,17.6,97.1,17.6C97.1,17.6,97.1,17.6,97.1,17.6
	C97.1,17.6,97.1,17.6,97.1,17.6c0-0.1,0-0.1,0-0.1c0,0,0,0,0,0c0,0,0,0,0,0c0,0,0,0,0,0c0,0,0,0,0,0c0,0,0,0,0,0
	c0-5.2-4.3-9.5-9.5-9.5s-9.5,4.3-9.5,9.5c0,0,0,0,0,0c0,0,0,0,0,0c0,0,0,0,0,0c0,0,0,0,0,0c0,0,0,0,0,0c0,0,0,0,0,0c0,0,0,0,0,0
	c0,0,0,0,0,0c0,0,0,0,0,0c0,0,0,0,0,0c0,0,0,0,0,0c0,0,0,0,0,0l6.2,10.4h-1.9c-0.6,0-1.1,0.5-1.1,1.1v10.1c0,0.6,0.5,1.1,1.1,1.1
	h10.1c0.6,0,1.1-0.5,1.1-1.1V29.2c0-0.6-0.5-1.1-1.1-1.1h-1.9L97.1,17.6C97.1,17.7,97.1,17.7,97.1,17.6
	C97.1,17.7,97.1,17.7,97.1,17.6C97.1,17.7,97.1,17.7,97.1,17.6L97.1,17.6z M87.6,9c4.2,0,7.7,3.1,8.3,7.1c-0.4-0.2-1-0.3-1.6-0.3
	c-0.9,0-1.7,0.3-2.2,0.7c-0.5-0.4-1.3-0.7-2.2-0.7c-0.9,0-1.7,0.3-2.2,0.7c-0.5-0.4-1.3-0.7-2.2-0.7c-0.9,0-1.7,0.3-2.2,0.7
	c-0.5-0.4-1.3-0.7-2.2-0.7c-0.6,0-1.2,0.1-1.6,0.3C79.9,12.1,83.4,9,87.6,9z M82.5,29.9l1.2,1.2v6.3l-1.2,1.2V29.9z M90.5,34.8h-5.7
	v-1.2h5.7V34.8z M84.8,37.1v-1.2h5.7v1.2H84.8z M90.5,31.4v1.2h-5.7v-1.2H90.5z M84.5,38.1h6.3l1.2,1.2h-8.7L84.5,38.1z M91.5,37.4
	v-6.3l1.2-1.2v8.7L91.5,37.4z M90.8,30.4h-6.3l-1.2-1.2H92L90.8,30.4z M87.1,28.1h-0.2l-3.2-10.7c0.1-0.2,0.7-0.6,1.7-0.6
	c1.1,0,1.7,0.4,1.7,0.6V28.1L87.1,28.1z M88.2,28.1V17.4c0-0.2,0.6-0.6,1.7-0.6c1,0,1.6,0.4,1.7,0.6l-3.2,10.7H88.2L88.2,28.1z
	 M79.2,17.3c0.1-0.2,0.7-0.5,1.7-0.5c1.1,0,1.7,0.4,1.7,0.6c0,0,0,0,0,0c0,0,0,0,0,0c0,0,0,0,0,0c0,0,0,0,0,0c0,0,0,0,0,0
	c0,0,0,0,0,0l0,0c0,0,0,0,0,0l3.2,10.5h-0.1C85.7,28.1,79.2,17.3,79.2,17.3z M89.5,28.1l3.2-10.5c0,0,0,0,0,0l0,0c0,0,0,0,0,0
	c0,0,0,0,0,0c0,0,0,0,0,0c0,0,0,0,0,0c0,0,0,0,0,0c0,0,0,0,0,0c0-0.2,0.6-0.6,1.7-0.6c1,0,1.5,0.3,1.7,0.5l-6.5,10.8H89.5L89.5,28.1
	z"/>
<g id="XMLID_116_">
	<path id="XMLID_169_" class="st0" d="M127.4,10.1h-3.9C123.3,9.5,122.7,9,122,9h-1.7c-0.5-0.7-1.3-1.1-2.1-1.1
		c-0.8,0-1.6,0.4-2.1,1.1h-1.7c-0.7,0-1.3,0.5-1.5,1.1H109c-1.2,0-2.1,1-2.1,2.1v24.9c0,1.2,1,2.1,2.1,2.1h18.4c1.2,0,2.1-1,2.1-2.1
		V12.2C129.5,11.1,128.6,10.1,127.4,10.1L127.4,10.1z M112.9,13.3c0.2,0.6,0.8,1.1,1.5,1.1h7.6c0.7,0,1.3-0.5,1.5-1.1h2.9v22.8H110
		V13.3H112.9L112.9,13.3z M114.4,10h1.9c0.2,0,0.3-0.1,0.4-0.3c0.3-0.5,0.8-0.8,1.4-0.8c0.6,0,1.1,0.3,1.4,0.8
		c0.1,0.2,0.3,0.3,0.4,0.3h1.9c0.3,0,0.6,0.3,0.6,0.6v2.2c0,0,0,0,0,0c0,0,0,0,0,0c0,0.3-0.3,0.6-0.6,0.6h-7.6
		c-0.3,0-0.6-0.3-0.6-0.6c0,0,0,0,0,0c0,0,0,0,0,0v-2.2C113.8,10.3,114.1,10,114.4,10L114.4,10z M128.5,37.1c0,0.6-0.5,1.1-1.1,1.1
		H109c-0.6,0-1.1-0.5-1.1-1.1V12.2c0-0.6,0.5-1.1,1.1-1.1h3.8v1.2h-3.3c-0.3,0-0.5,0.2-0.5,0.5v23.8c0,0.3,0.2,0.5,0.5,0.5h17.3
		c0.3,0,0.5-0.2,0.5-0.5V12.8c0-0.3-0.2-0.5-0.5-0.5h-3.3v-1.2h3.8c0.6,0,1.1,0.5,1.1,1.1V37.1z"/>
	<path id="XMLID_168_" class="st0" d="M118.2,12.2c0.3,0,0.5-0.2,0.5-0.5v-1.1c0-0.3-0.2-0.5-0.5-0.5s-0.5,0.2-0.5,0.5v1.1
		C117.7,12,117.9,12.2,118.2,12.2z"/>
	<path id="XMLID_167_" class="st0" d="M118.7,19.2h3.2c0.3,0,0.5-0.2,0.5-0.5c0-0.3-0.2-0.5-0.5-0.5h-3.2c-0.3,0-0.5,0.2-0.5,0.5
		C118.2,19,118.5,19.2,118.7,19.2z"/>
	<path id="XMLID_166_" class="st0" d="M118.7,21.4h5.4c0.3,0,0.5-0.2,0.5-0.5c0-0.3-0.2-0.5-0.5-0.5h-5.4c-0.3,0-0.5,0.2-0.5,0.5
		C118.2,21.2,118.5,21.4,118.7,21.4z"/>
	<path id="XMLID_165_" class="st0" d="M113.5,21.3c0.1,0.1,0.2,0.1,0.4,0.1c0.1,0,0.3,0,0.4-0.1l2.7-2.7c0.2-0.2,0.2-0.5,0-0.7
		c-0.2-0.2-0.5-0.2-0.7,0l-2.3,2.3l-1.3-1.3c-0.2-0.2-0.5-0.2-0.7,0c-0.2,0.2-0.2,0.5,0,0.7L113.5,21.3L113.5,21.3z"/>
	<path id="XMLID_164_" class="st0" d="M118.7,24.7h3.2c0.3,0,0.5-0.2,0.5-0.5s-0.2-0.5-0.5-0.5h-3.2c-0.3,0-0.5,0.2-0.5,0.5
		S118.5,24.7,118.7,24.7z"/>
	<path id="XMLID_163_" class="st0" d="M118.7,26.8h5.4c0.3,0,0.5-0.2,0.5-0.5c0-0.3-0.2-0.5-0.5-0.5h-5.4c-0.3,0-0.5,0.2-0.5,0.5
		C118.2,26.6,118.5,26.8,118.7,26.8z"/>
	<path id="XMLID_162_" class="st0" d="M113.5,26.7c0.1,0.1,0.2,0.1,0.4,0.1c0.1,0,0.3,0,0.4-0.1l2.7-2.7c0.2-0.2,0.2-0.5,0-0.7
		c-0.2-0.2-0.5-0.2-0.7,0l-2.3,2.3l-1.3-1.3c-0.2-0.2-0.5-0.2-0.7,0c-0.2,0.2-0.2,0.5,0,0.7L113.5,26.7L113.5,26.7z"/>
	<path id="XMLID_161_" class="st0" d="M118.7,30.1h3.2c0.3,0,0.5-0.2,0.5-0.5c0-0.3-0.2-0.5-0.5-0.5h-3.2c-0.3,0-0.5,0.2-0.5,0.5
		C118.2,29.8,118.5,30.1,118.7,30.1z"/>
	<path id="XMLID_160_" class="st0" d="M118.7,32.2h5.4c0.3,0,0.5-0.2,0.5-0.5c0-0.3-0.2-0.5-0.5-0.5h-5.4c-0.3,0-0.5,0.2-0.5,0.5
		C118.2,32,118.5,32.2,118.7,32.2z"/>
	<path id="XMLID_159_" class="st0" d="M113.5,32.1c0.1,0.1,0.2,0.1,0.4,0.1c0.1,0,0.3,0,0.4-0.1l2.7-2.7c0.2-0.2,0.2-0.5,0-0.7
		c-0.2-0.2-0.5-0.2-0.7,0l-2.3,2.3l-1.3-1.3c-0.2-0.2-0.5-0.2-0.7,0c-0.2,0.2-0.2,0.5,0,0.7L113.5,32.1L113.5,32.1z"/>
</g>
<g id="XMLID_38_">
	<path id="XMLID_45_" class="st0" d="M198.1,31l-0.7-0.1c-0.3-0.1-0.6-0.3-0.7-0.6c-0.1-0.3-0.1-0.7,0.1-1l0.5-0.6
		c0.1-0.2,0.1-0.5-0.1-0.7l-1-1c-0.2-0.2-0.4-0.2-0.6-0.1l-0.6,0.4c-0.3,0.2-0.6,0.2-1,0.1c-0.3-0.1-0.5-0.4-0.6-0.8l-0.1-0.8
		c0-0.2-0.3-0.4-0.5-0.4h-1.4c-0.2,0-0.5,0.2-0.5,0.4l-0.2,0.9c-0.1,0.3-0.3,0.6-0.6,0.7c-0.3,0.1-0.7,0.1-0.9-0.1l-0.8-0.5
		c-0.2-0.1-0.5-0.1-0.6,0.1l-1,1c-0.2,0.2-0.2,0.5-0.1,0.7l0.5,0.6c0.2,0.3,0.3,0.6,0.1,1c-0.1,0.3-0.4,0.6-0.7,0.6l-0.7,0.1
		c-0.2,0-0.4,0.3-0.4,0.5v1.4c0,0.3,0.2,0.5,0.4,0.5l0.8,0.1c0.3,0.1,0.6,0.3,0.8,0.6c0.1,0.3,0.1,0.7-0.1,1l-0.4,0.6
		c-0.1,0.2-0.1,0.5,0.1,0.6l1,1c0.2,0.2,0.5,0.2,0.7,0.1l0.6-0.5c0.3-0.2,0.6-0.3,1-0.1c0.3,0.1,0.6,0.4,0.6,0.7l0.1,0.7
		c0,0.2,0.3,0.4,0.5,0.4h1.4c0.3,0,0.5-0.2,0.5-0.4l0.1-0.5c0.1-0.3,0.3-0.6,0.6-0.8c0.3-0.1,0.7-0.1,1,0.1l0.4,0.3
		c0.2,0.1,0.5,0.1,0.7-0.1l1-1c0.2-0.2,0.2-0.4,0.1-0.6l-0.4-0.6c-0.2-0.3-0.2-0.6-0.1-1c0.1-0.3,0.4-0.5,0.8-0.6l0.8-0.1
		c0.2,0,0.4-0.3,0.4-0.5v-1.4C198.5,31.3,198.3,31.1,198.1,31z M197.5,32.5l-0.3,0.1c-0.7,0.1-1.3,0.5-1.5,1.2
		c-0.3,0.6-0.2,1.4,0.2,1.9L196,36l-0.4,0.4l-0.1-0.1c-0.6-0.4-1.3-0.5-2-0.2c-0.7,0.3-1.1,0.9-1.2,1.6l0,0.1h-0.6l-0.1-0.3
		c-0.1-0.7-0.6-1.2-1.2-1.5c-0.6-0.3-1.4-0.2-1.9,0.3l-0.3,0.2l-0.4-0.4l0.2-0.3c0.4-0.6,0.5-1.3,0.2-1.9c-0.3-0.6-0.9-1.1-1.5-1.2
		l-0.3-0.1V32l0.3-0.1c0.7-0.1,1.2-0.6,1.5-1.2c0.3-0.6,0.2-1.4-0.3-1.9l-0.2-0.3l0.4-0.4l0.5,0.3c0.6,0.4,1.3,0.5,1.9,0.2
		c0.6-0.3,1.1-0.8,1.2-1.5l0.1-0.5h0.6l0.1,0.3c0.1,0.7,0.5,1.3,1.2,1.5c0.6,0.3,1.4,0.2,1.9-0.2l0.3-0.2l0.4,0.4l-0.2,0.3
		c-0.4,0.6-0.5,1.3-0.3,1.9c0.3,0.6,0.8,1.1,1.5,1.2l0.3,0.1L197.5,32.5L197.5,32.5z"/>
	<path id="XMLID_41_" class="st0" d="M191.9,29.6c-1.4,0-2.5,1.1-2.5,2.5c0,1.4,1.1,2.5,2.5,2.5c1.4,0,2.5-1.1,2.5-2.5
		C194.4,30.7,193.3,29.6,191.9,29.6z M191.9,33.7c-0.8,0-1.5-0.7-1.5-1.5c0-0.8,0.7-1.5,1.5-1.5c0.8,0,1.5,0.7,1.5,1.5
		C193.4,33,192.7,33.7,191.9,33.7z"/>
	<path id="XMLID_39_" class="st0" d="M183.5,36.2c-0.3,0-0.6,0-1,0c-0.1,0-0.1,0-0.2,0c-0.3,0-0.6-0.1-1-0.1c0,0,0,0,0,0
		c-0.7-0.1-1.3-0.3-2-0.5c0,0,0,0-0.1,0c-0.3-0.1-0.6-0.2-0.9-0.4c0,0,0,0,0,0c-0.3-0.1-0.6-0.3-0.9-0.4c0,0-0.1,0-0.1-0.1
		c-0.3-0.1-0.5-0.3-0.8-0.4c-0.1,0-0.1-0.1-0.2-0.1c-0.2-0.2-0.5-0.3-0.7-0.5c0,0,0,0-0.1-0.1c0,0,0,0,0,0l4-2.2
		c0.7-0.4,1.1-1.1,1.1-1.9l0-1.8l-0.1-0.1c0,0-1.1-1.3-1.5-3.2l0-0.2L179,24c-0.2-0.2-0.4-0.4-0.4-0.7v-1.8c0-0.2,0.1-0.5,0.3-0.6
		l0.2-0.2v-2.8l0-0.1c0,0-0.2-1.2,0.7-2.2c0.7-0.8,2-1.3,3.7-1.3c1.7,0,3,0.4,3.7,1.3c0.9,1,0.7,2.2,0.7,2.2l0,2.9l0.2,0.2
		c0.2,0.2,0.3,0.4,0.3,0.6v1.8c0,0.4-0.2,0.7-0.6,0.8c-0.3,0.1-0.4,0.4-0.3,0.6c0.1,0.3,0.4,0.4,0.6,0.3c0.8-0.2,1.3-1,1.3-1.8v-1.8
		c0-0.4-0.2-0.9-0.5-1.2v-2.4c0-0.3,0.1-1.8-1-3c-0.9-1.1-2.5-1.6-4.5-1.6c-2.1,0-3.6,0.5-4.5,1.6c-1.1,1.2-1,2.7-1,3v2.4
		c-0.3,0.3-0.5,0.8-0.5,1.2v1.8c0,0.6,0.3,1.1,0.7,1.4c0.4,1.6,1.3,2.8,1.6,3.2v1.5c0,0.4-0.2,0.8-0.6,1l-4,2.2
		c-0.1,0.1-0.3,0.2-0.4,0.2c-2.6-2.4-4.3-5.8-4.3-9.6c0-7.1,5.8-13,13-13c7.1,0,13,5.8,13,13c0,0.3,0.2,0.5,0.5,0.5
		c0.3,0,0.5-0.2,0.5-0.5c0-7.7-6.3-14-14-14s-14,6.3-14,14c0,4.1,1.7,7.7,4.5,10.3l0,0l0.5,0.4c0,0,0.1,0,0.1,0.1
		c0.2,0.2,0.5,0.4,0.7,0.6c0.1,0.1,0.2,0.1,0.2,0.2c0.3,0.2,0.5,0.4,0.8,0.5c0.1,0,0.1,0.1,0.2,0.1c0.3,0.2,0.6,0.3,1,0.5
		c0,0,0,0,0.1,0c1.1,0.5,2.2,0.9,3.4,1.1c0,0,0.1,0,0.1,0c0.4,0.1,0.7,0.1,1.1,0.1c0,0,0.1,0,0.1,0c0.4,0,0.8,0.1,1.1,0.1
		c0.3,0,0.5-0.2,0.5-0.5C184,36.4,183.8,36.2,183.5,36.2z"/>
</g>
<g id="XMLID_204_">
	<path id="XMLID_208_" class="st1" d="M155.4,61.1v-5.8c0-3.3-2.9-5.9-6.4-5.9c-3.5,0-6.4,2.7-6.4,5.9v5.8H138v13.3v4.1h22.5v-4.1
		V61.1H155.4z M143.6,55.3c0-2.7,2.4-4.9,5.4-4.9s5.4,2.2,5.4,4.9v5.8h-10.8V55.3z M159.5,77.5H139v-2h20.5V77.5z M139,74.4V62.1
		h3.6h12.8h4.1v12.3H139z"/>
	<path id="XMLID_205_" class="st1" d="M149.3,65.2c-1.1,0-2,0.9-2,2v3.1c0,1.1,0.9,2,2,2s2-0.9,2-2v-3.1
		C151.3,66.1,150.4,65.2,149.3,65.2z M150.3,70.3c0,0.6-0.5,1-1,1s-1-0.5-1-1v-3.1c0-0.6,0.5-1,1-1s1,0.5,1,1V70.3z"/>
</g>
<g id="XMLID_200_">
	<g id="XMLID_201_">
		<path id="XMLID_203_" class="st1" d="M26.9,56.8l6.5,1.7l1.6-6.5l-1.2-0.3l-1.1,4.1c-2.7-4.4-7.5-7.3-13-7.3
			c-8.5,0-15.3,6.9-15.3,15.3s6.9,15.3,15.3,15.3c5.6,0,10.6-3.1,13.2-7.6L31.7,71c-2.4,4.1-6.9,6.8-12,6.8c-7.7,0-14-6.3-14-14
			s6.3-14,14-14c5.1,0,9.6,2.8,12.1,6.9l-4.5-1.2L26.9,56.8z"/>
		<polygon id="XMLID_202_" class="st1" points="17.6,53.4 17.6,65 25.1,68.7 25.7,67.5 18.9,64.3 18.9,53.4 		"/>
	</g>
</g>
<g id="XMLID_95_">
	<path id="XMLID_100_" class="st1" d="M70.2,76.7l-4.4-10.6c-0.1-0.3-0.4-0.4-0.7-0.3c-0.3,0.1-0.4,0.4-0.3,0.7l4,9.6l-3.6-1.1
		c-0.2-0.1-0.5,0-0.6,0.3l-1.8,3.3l-4.3-10.3c4.9-0.9,8.6-5.3,8.6-10.5c0-5.9-4.8-10.7-10.7-10.7S45.8,52,45.8,57.9
		c0,2.4,0.8,4.6,2.1,6.4l-5.2,12.5c-0.1,0.2,0,0.4,0.1,0.6c0.1,0.2,0.3,0.2,0.5,0.2l4.3-1.2l2.1,3.9c0.1,0.2,0.3,0.3,0.5,0.3
		c0,0,0,0,0,0c0.2,0,0.4-0.1,0.5-0.3l4.1-9.9c0.1-0.3,0-0.6-0.3-0.7c-0.3-0.1-0.6,0-0.7,0.3l-3.7,8.9l-1.8-3.3
		c-0.1-0.2-0.4-0.3-0.6-0.3l-3.6,1.1l4.5-11c1.9,2.1,4.7,3.4,7.8,3.4c0.3,0,0.6,0,0.9,0l4.8,11.6c0.1,0.2,0.3,0.3,0.5,0.3
		c0,0,0,0,0,0c0.2,0,0.4-0.1,0.5-0.3l2.1-3.9l4.3,1.2c0.2,0.1,0.4,0,0.5-0.2C70.3,77.1,70.3,76.9,70.2,76.7L70.2,76.7z M46.9,57.9
		c0-5.3,4.3-9.6,9.6-9.6s9.6,4.3,9.6,9.6s-4.3,9.6-9.6,9.6S46.9,63.2,46.9,57.9L46.9,57.9z"/>
	<path id="XMLID_97_" class="st1" d="M62.6,55.9c-0.1-0.2-0.2-0.3-0.4-0.4l-3.6-0.6L57,51.7c-0.1-0.2-0.3-0.3-0.5-0.3
		c-0.2,0-0.4,0.1-0.5,0.3l-1.7,3.2l-3.6,0.6c-0.2,0-0.4,0.2-0.4,0.4c-0.1,0.2,0,0.4,0.1,0.5L53,59l-0.5,3.6c0,0.2,0.1,0.4,0.2,0.5
		c0.2,0.1,0.4,0.1,0.5,0l3.2-1.6l3.2,1.6c0.1,0,0.2,0.1,0.2,0.1c0.1,0,0.2,0,0.3-0.1c0.2-0.1,0.2-0.3,0.2-0.5L59.9,59l2.5-2.6
		C62.6,56.3,62.7,56.1,62.6,55.9z M59,58.4c-0.1,0.1-0.2,0.3-0.1,0.4l0.4,2.8l-2.6-1.3c-0.1,0-0.2-0.1-0.2-0.1c-0.1,0-0.2,0-0.2,0.1
		l-2.6,1.3l0.4-2.8c0-0.2,0-0.3-0.1-0.4l-2-2l2.8-0.5c0.2,0,0.3-0.1,0.4-0.3l1.3-2.5l1.3,2.5c0.1,0.1,0.2,0.3,0.4,0.3l2.8,0.5
		L59,58.4L59,58.4z"/>
	<path id="XMLID_96_" class="st1" d="M64.5,58.4c-0.3,0-0.6,0.2-0.6,0.5c-0.5,3.7-3.7,6.5-7.4,6.5c-4.1,0-7.5-3.4-7.5-7.5
		s3.4-7.5,7.5-7.5c3.7,0,6.9,2.8,7.4,6.5c0,0.3,0.3,0.5,0.6,0.5c0.3,0,0.5-0.3,0.5-0.6c-0.6-4.2-4.2-7.4-8.5-7.4
		c-4.7,0-8.6,3.8-8.6,8.6s3.8,8.6,8.6,8.6c4.3,0,7.9-3.2,8.5-7.4C65,58.7,64.8,58.4,64.5,58.4L64.5,58.4z"/>
</g>
<path id="XMLID_81_" class="st1" d="M97.1,57.6C97.1,57.6,97.1,57.6,97.1,57.6C97.1,57.6,97.1,57.6,97.1,57.6
	C97.1,57.6,97.1,57.6,97.1,57.6c0-0.1,0-0.1,0-0.1c0,0,0,0,0,0c0,0,0,0,0,0c0,0,0,0,0,0c0,0,0,0,0,0c0,0,0,0,0,0
	c0-5.2-4.3-9.5-9.5-9.5s-9.5,4.3-9.5,9.5c0,0,0,0,0,0c0,0,0,0,0,0c0,0,0,0,0,0c0,0,0,0,0,0c0,0,0,0,0,0c0,0,0,0,0,0c0,0,0,0,0,0
	c0,0,0,0,0,0c0,0,0,0,0,0c0,0,0,0,0,0c0,0,0,0,0,0c0,0,0,0,0,0l6.2,10.4h-1.9c-0.6,0-1.1,0.5-1.1,1.1v10.1c0,0.6,0.5,1.1,1.1,1.1
	h10.1c0.6,0,1.1-0.5,1.1-1.1V69.2c0-0.6-0.5-1.1-1.1-1.1h-1.9L97.1,57.6C97.1,57.7,97.1,57.7,97.1,57.6
	C97.1,57.7,97.1,57.7,97.1,57.6C97.1,57.7,97.1,57.7,97.1,57.6L97.1,57.6z M87.6,49c4.2,0,7.7,3.1,8.3,7.1c-0.4-0.2-1-0.3-1.6-0.3
	c-0.9,0-1.7,0.3-2.2,0.7c-0.5-0.4-1.3-0.7-2.2-0.7c-0.9,0-1.7,0.3-2.2,0.7c-0.5-0.4-1.3-0.7-2.2-0.7c-0.9,0-1.7,0.3-2.2,0.7
	c-0.5-0.4-1.3-0.7-2.2-0.7c-0.6,0-1.2,0.1-1.6,0.3C79.9,52.1,83.4,49,87.6,49z M82.5,69.9l1.2,1.2v6.3l-1.2,1.2V69.9z M90.5,74.8
	h-5.7v-1.2h5.7V74.8z M84.8,77.1v-1.2h5.7v1.2H84.8z M90.5,71.4v1.2h-5.7v-1.2H90.5z M84.5,78.1h6.3l1.2,1.2h-8.7L84.5,78.1z
	 M91.5,77.4v-6.3l1.2-1.2v8.7L91.5,77.4z M90.8,70.4h-6.3l-1.2-1.2H92L90.8,70.4z M87.1,68.1h-0.2l-3.2-10.7
	c0.1-0.2,0.7-0.6,1.7-0.6c1.1,0,1.7,0.4,1.7,0.6V68.1L87.1,68.1z M88.2,68.1V57.4c0-0.2,0.6-0.6,1.7-0.6c1,0,1.6,0.4,1.7,0.6
	l-3.2,10.7H88.2L88.2,68.1z M79.2,57.3c0.1-0.2,0.7-0.5,1.7-0.5c1.1,0,1.7,0.4,1.7,0.6c0,0,0,0,0,0c0,0,0,0,0,0c0,0,0,0,0,0
	c0,0,0,0,0,0c0,0,0,0,0,0c0,0,0,0,0,0l0,0c0,0,0,0,0,0l3.2,10.5h-0.1C85.7,68.1,79.2,57.3,79.2,57.3z M89.5,68.1l3.2-10.5
	c0,0,0,0,0,0l0,0c0,0,0,0,0,0c0,0,0,0,0,0c0,0,0,0,0,0c0,0,0,0,0,0c0,0,0,0,0,0c0,0,0,0,0,0c0-0.2,0.6-0.6,1.7-0.6
	c1,0,1.5,0.3,1.7,0.5l-6.5,10.8H89.5L89.5,68.1z"/>
<g id="XMLID_65_">
	<path id="XMLID_76_" class="st1" d="M127.4,50.1h-3.9c-0.2-0.6-0.8-1.1-1.5-1.1h-1.7c-0.5-0.7-1.3-1.1-2.1-1.1
		c-0.8,0-1.6,0.4-2.1,1.1h-1.7c-0.7,0-1.3,0.5-1.5,1.1H109c-1.2,0-2.1,1-2.1,2.1v24.9c0,1.2,1,2.1,2.1,2.1h18.4c1.2,0,2.1-1,2.1-2.1
		V52.2C129.5,51.1,128.6,50.1,127.4,50.1L127.4,50.1z M112.9,53.3c0.2,0.6,0.8,1.1,1.5,1.1h7.6c0.7,0,1.3-0.5,1.5-1.1h2.9v22.8H110
		V53.3H112.9L112.9,53.3z M114.4,50h1.9c0.2,0,0.3-0.1,0.4-0.3c0.3-0.5,0.8-0.8,1.4-0.8c0.6,0,1.1,0.3,1.4,0.8
		c0.1,0.2,0.3,0.3,0.4,0.3h1.9c0.3,0,0.6,0.3,0.6,0.6v2.2c0,0,0,0,0,0c0,0,0,0,0,0c0,0.3-0.3,0.6-0.6,0.6h-7.6
		c-0.3,0-0.6-0.3-0.6-0.6c0,0,0,0,0,0c0,0,0,0,0,0v-2.2C113.8,50.3,114.1,50,114.4,50L114.4,50z M128.5,77.1c0,0.6-0.5,1.1-1.1,1.1
		H109c-0.6,0-1.1-0.5-1.1-1.1V52.2c0-0.6,0.5-1.1,1.1-1.1h3.8v1.2h-3.3c-0.3,0-0.5,0.2-0.5,0.5v23.8c0,0.3,0.2,0.5,0.5,0.5h17.3
		c0.3,0,0.5-0.2,0.5-0.5V52.8c0-0.3-0.2-0.5-0.5-0.5h-3.3v-1.2h3.8c0.6,0,1.1,0.5,1.1,1.1V77.1z"/>
	<path id="XMLID_75_" class="st1" d="M118.2,52.2c0.3,0,0.5-0.2,0.5-0.5v-1.1c0-0.3-0.2-0.5-0.5-0.5s-0.5,0.2-0.5,0.5v1.1
		C117.7,52,117.9,52.2,118.2,52.2z"/>
	<path id="XMLID_74_" class="st1" d="M118.7,59.2h3.2c0.3,0,0.5-0.2,0.5-0.5c0-0.3-0.2-0.5-0.5-0.5h-3.2c-0.3,0-0.5,0.2-0.5,0.5
		C118.2,59,118.5,59.2,118.7,59.2z"/>
	<path id="XMLID_73_" class="st1" d="M118.7,61.4h5.4c0.3,0,0.5-0.2,0.5-0.5c0-0.3-0.2-0.5-0.5-0.5h-5.4c-0.3,0-0.5,0.2-0.5,0.5
		C118.2,61.2,118.5,61.4,118.7,61.4z"/>
	<path id="XMLID_72_" class="st1" d="M113.5,61.3c0.1,0.1,0.2,0.1,0.4,0.1c0.1,0,0.3,0,0.4-0.1l2.7-2.7c0.2-0.2,0.2-0.5,0-0.7
		c-0.2-0.2-0.5-0.2-0.7,0l-2.3,2.3l-1.3-1.3c-0.2-0.2-0.5-0.2-0.7,0c-0.2,0.2-0.2,0.5,0,0.7L113.5,61.3L113.5,61.3z"/>
	<path id="XMLID_71_" class="st1" d="M118.7,64.7h3.2c0.3,0,0.5-0.2,0.5-0.5c0-0.3-0.2-0.5-0.5-0.5h-3.2c-0.3,0-0.5,0.2-0.5,0.5
		C118.2,64.4,118.5,64.7,118.7,64.7z"/>
	<path id="XMLID_70_" class="st1" d="M118.7,66.8h5.4c0.3,0,0.5-0.2,0.5-0.5s-0.2-0.5-0.5-0.5h-5.4c-0.3,0-0.5,0.2-0.5,0.5
		S118.5,66.8,118.7,66.8z"/>
	<path id="XMLID_69_" class="st1" d="M113.5,66.7c0.1,0.1,0.2,0.1,0.4,0.1c0.1,0,0.3,0,0.4-0.1l2.7-2.7c0.2-0.2,0.2-0.5,0-0.7
		c-0.2-0.2-0.5-0.2-0.7,0l-2.3,2.3l-1.3-1.3c-0.2-0.2-0.5-0.2-0.7,0c-0.2,0.2-0.2,0.5,0,0.7L113.5,66.7L113.5,66.7z"/>
	<path id="XMLID_68_" class="st1" d="M118.7,70.1h3.2c0.3,0,0.5-0.2,0.5-0.5s-0.2-0.5-0.5-0.5h-3.2c-0.3,0-0.5,0.2-0.5,0.5
		S118.5,70.1,118.7,70.1z"/>
	<path id="XMLID_67_" class="st1" d="M118.7,72.2h5.4c0.3,0,0.5-0.2,0.5-0.5c0-0.3-0.2-0.5-0.5-0.5h-5.4c-0.3,0-0.5,0.2-0.5,0.5
		C118.2,72,118.5,72.2,118.7,72.2z"/>
	<path id="XMLID_66_" class="st1" d="M113.5,72.1c0.1,0.1,0.2,0.1,0.4,0.1c0.1,0,0.3,0,0.4-0.1l2.7-2.7c0.2-0.2,0.2-0.5,0-0.7
		c-0.2-0.2-0.5-0.2-0.7,0l-2.3,2.3l-1.3-1.3c-0.2-0.2-0.5-0.2-0.7,0c-0.2,0.2-0.2,0.5,0,0.7L113.5,72.1L113.5,72.1z"/>
</g>
<g id="XMLID_36_">
	<path id="XMLID_56_" class="st1" d="M198.1,71l-0.7-0.1c-0.3-0.1-0.6-0.3-0.7-0.6c-0.1-0.3-0.1-0.7,0.1-1l0.5-0.6
		c0.1-0.2,0.1-0.5-0.1-0.7l-1-1c-0.2-0.2-0.4-0.2-0.6-0.1l-0.6,0.4c-0.3,0.2-0.6,0.2-1,0.1c-0.3-0.1-0.5-0.4-0.6-0.8l-0.1-0.8
		c0-0.2-0.3-0.4-0.5-0.4h-1.4c-0.2,0-0.5,0.2-0.5,0.4l-0.2,0.9c-0.1,0.3-0.3,0.6-0.6,0.7c-0.3,0.1-0.7,0.1-0.9-0.1l-0.8-0.5
		c-0.2-0.1-0.5-0.1-0.6,0.1l-1,1c-0.2,0.2-0.2,0.5-0.1,0.7l0.5,0.6c0.2,0.3,0.3,0.6,0.1,1c-0.1,0.3-0.4,0.6-0.7,0.6l-0.7,0.1
		c-0.2,0-0.4,0.3-0.4,0.5v1.4c0,0.3,0.2,0.5,0.4,0.5l0.8,0.1c0.3,0.1,0.6,0.3,0.8,0.6c0.1,0.3,0.1,0.7-0.1,1l-0.4,0.6
		c-0.1,0.2-0.1,0.5,0.1,0.6l1,1c0.2,0.2,0.5,0.2,0.7,0.1l0.6-0.5c0.3-0.2,0.6-0.3,1-0.1c0.3,0.1,0.6,0.4,0.6,0.7l0.1,0.7
		c0,0.2,0.3,0.4,0.5,0.4h1.4c0.3,0,0.5-0.2,0.5-0.4l0.1-0.5c0.1-0.3,0.3-0.6,0.6-0.8c0.3-0.1,0.7-0.1,1,0.1l0.4,0.3
		c0.2,0.1,0.5,0.1,0.7-0.1l1-1c0.2-0.2,0.2-0.4,0.1-0.6l-0.4-0.6c-0.2-0.3-0.2-0.6-0.1-1c0.1-0.3,0.4-0.5,0.8-0.6l0.8-0.1
		c0.2,0,0.4-0.3,0.4-0.5v-1.4C198.5,71.3,198.3,71.1,198.1,71z M197.5,72.5l-0.3,0.1c-0.7,0.1-1.3,0.5-1.5,1.2
		c-0.3,0.6-0.2,1.4,0.2,1.9L196,76l-0.4,0.4l-0.1-0.1c-0.6-0.4-1.3-0.5-2-0.2c-0.7,0.3-1.1,0.9-1.2,1.6l0,0.1h-0.6l-0.1-0.3
		c-0.1-0.7-0.6-1.2-1.2-1.5c-0.6-0.3-1.4-0.2-1.9,0.3l-0.3,0.2l-0.4-0.4l0.2-0.3c0.4-0.6,0.5-1.3,0.2-1.9c-0.3-0.6-0.9-1.1-1.5-1.2
		l-0.3-0.1V72l0.3-0.1c0.7-0.1,1.2-0.6,1.5-1.2c0.3-0.6,0.2-1.4-0.3-1.9l-0.2-0.3l0.4-0.4l0.5,0.3c0.6,0.4,1.3,0.5,1.9,0.2
		c0.6-0.3,1.1-0.8,1.2-1.5l0.1-0.5h0.6l0.1,0.3c0.1,0.7,0.5,1.3,1.2,1.5c0.6,0.3,1.4,0.2,1.9-0.2l0.3-0.2l0.4,0.4l-0.2,0.3
		c-0.4,0.6-0.5,1.3-0.3,1.9c0.3,0.6,0.8,1.1,1.5,1.2l0.3,0.1L197.5,72.5L197.5,72.5z"/>
	<path id="XMLID_51_" class="st1" d="M191.9,69.6c-1.4,0-2.5,1.1-2.5,2.5c0,1.4,1.1,2.5,2.5,2.5c1.4,0,2.5-1.1,2.5-2.5
		C194.4,70.7,193.3,69.6,191.9,69.6z M191.9,73.7c-0.8,0-1.5-0.7-1.5-1.5c0-0.8,0.7-1.5,1.5-1.5c0.8,0,1.5,0.7,1.5,1.5
		C193.4,73,192.7,73.7,191.9,73.7z"/>
	<path id="XMLID_50_" class="st1" d="M183.5,76.2c-0.3,0-0.6,0-1,0c-0.1,0-0.1,0-0.2,0c-0.3,0-0.6-0.1-1-0.1c0,0,0,0,0,0
		c-0.7-0.1-1.3-0.3-2-0.5c0,0,0,0-0.1,0c-0.3-0.1-0.6-0.2-0.9-0.4c0,0,0,0,0,0c-0.3-0.1-0.6-0.3-0.9-0.4c0,0-0.1,0-0.1-0.1
		c-0.3-0.1-0.5-0.3-0.8-0.4c-0.1,0-0.1-0.1-0.2-0.1c-0.2-0.2-0.5-0.3-0.7-0.5c0,0,0,0-0.1-0.1c0,0,0,0,0,0l4-2.2
		c0.7-0.4,1.1-1.1,1.1-1.9l0-1.8l-0.1-0.1c0,0-1.1-1.3-1.5-3.2l0-0.2L179,64c-0.2-0.2-0.4-0.4-0.4-0.7v-1.8c0-0.2,0.1-0.5,0.3-0.6
		l0.2-0.2v-2.8l0-0.1c0,0-0.2-1.2,0.7-2.2c0.7-0.8,2-1.3,3.7-1.3c1.7,0,3,0.4,3.7,1.3c0.9,1,0.7,2.2,0.7,2.2l0,2.9l0.2,0.2
		c0.2,0.2,0.3,0.4,0.3,0.6v1.8c0,0.4-0.2,0.7-0.6,0.8c-0.3,0.1-0.4,0.4-0.3,0.6c0.1,0.3,0.4,0.4,0.6,0.3c0.8-0.2,1.3-1,1.3-1.8v-1.8
		c0-0.4-0.2-0.9-0.5-1.2v-2.4c0-0.3,0.1-1.8-1-3c-0.9-1.1-2.5-1.6-4.5-1.6c-2.1,0-3.6,0.5-4.5,1.6c-1.1,1.2-1,2.7-1,3v2.4
		c-0.3,0.3-0.5,0.8-0.5,1.2v1.8c0,0.6,0.3,1.1,0.7,1.4c0.4,1.6,1.3,2.8,1.6,3.2v1.5c0,0.4-0.2,0.8-0.6,1l-4,2.2
		c-0.1,0.1-0.3,0.2-0.4,0.2c-2.6-2.4-4.3-5.8-4.3-9.6c0-7.1,5.8-13,13-13c7.1,0,13,5.8,13,13c0,0.3,0.2,0.5,0.5,0.5
		c0.3,0,0.5-0.2,0.5-0.5c0-7.7-6.3-14-14-14s-14,6.3-14,14c0,4.1,1.7,7.7,4.5,10.3l0,0l0.5,0.4c0,0,0.1,0,0.1,0.1
		c0.2,0.2,0.5,0.4,0.7,0.6c0.1,0.1,0.2,0.1,0.2,0.2c0.3,0.2,0.5,0.4,0.8,0.5c0.1,0,0.1,0.1,0.2,0.1c0.3,0.2,0.6,0.3,1,0.5
		c0,0,0,0,0.1,0c1.1,0.5,2.2,0.9,3.4,1.1c0,0,0.1,0,0.1,0c0.4,0.1,0.7,0.1,1.1,0.1c0,0,0.1,0,0.1,0c0.4,0,0.8,0.1,1.1,0.1
		c0.3,0,0.5-0.2,0.5-0.5C184,76.4,183.8,76.2,183.5,76.2z"/>
</g>
</svg>
